<svg width="719" height="1257" viewBox="0 0 719 1257" fill="none" xmlns="http://www.w3.org/2000/svg">
<path fill-rule="evenodd" clip-rule="evenodd" d="M709.174 -192.904C709.101 -188.084 709.032 -183.531 709.226 -179.549C711.467 -133.412 710.532 -86.7499 709.605 -40.4631C709.477 -34.0719 709.349 -27.6879 709.23 -21.3134C707.807 54.6806 705.687 130.661 703.566 206.64C699.951 336.164 696.336 465.684 696.179 595.26C685.229 590.72 677.54 588.363 664.632 585.172C652.243 582.109 646.902 580.211 641.783 578.391C636.316 576.449 631.102 574.596 617.83 571.511C584.344 563.727 551.082 562.737 517.69 561.743C501.248 561.253 484.774 560.763 468.226 559.46C443.723 557.531 419.43 556.455 394.93 555.682C379.078 555.182 363.306 552.764 347.529 550.345L347.527 550.345C339.483 549.112 331.438 547.879 323.38 546.899C298.041 543.819 287.169 540.907 272.057 536.859L272.055 536.859C263.323 534.52 253.175 531.802 238.002 528.453C223.645 532.341 195.93 531.023 172.461 529.907C160.129 529.321 148.97 528.791 141.536 529.1C138.312 529.235 125.843 528.578 123.462 523.904C121.081 519.229 118.15 519.037 115.284 518.849C113.792 518.751 112.318 518.655 110.949 517.927C112.658 519.792 114.732 522.511 114.836 524.384C119.314 530.76 225.013 547.762 242.685 549.068C243.167 549.104 243.64 549.139 244.103 549.173L245.024 549.24C264.681 550.681 267.425 550.882 290.235 561.501C298.486 565.342 317.863 568.993 342.364 573.61C388.196 582.246 451.954 594.259 494.332 617.212C529.219 612.826 554.393 612.437 573.314 614.544L424.617 681.807L257.497 669.507L397.542 696.985L273.828 738.511L277.341 747.125L633.242 640.055L633.904 640.596C637.061 643.176 640.189 645.731 643.532 648.156C661.074 660.883 684.179 716.501 697.261 754.69C698.173 850.34 698.652 946.096 693.806 1041.39C692.936 1058.5 690.505 1076.22 688.07 1093.96C684.487 1120.08 680.896 1146.26 682.252 1170.66L687.807 1270.6L1104.9 1247.41L1021.13 -259.81L697.437 -241.819C709.764 -231.835 709.442 -210.568 709.174 -192.904ZM109.052 516.362C108.043 515.162 109.333 516.163 110.949 517.927C110.289 517.576 109.653 517.078 109.052 516.362Z" fill="#7C4D27"/>
<path opacity="0.3" d="M733.703 -67.1609L762.533 -68.7634L714.108 247.641L733.703 -67.1609Z" fill="#8C4B2D"/>
<path opacity="0.3" d="M718.372 246.775L790.165 68.011L750.053 70.2405L718.372 246.775Z" fill="#8C4B2D"/>
<path opacity="0.2" d="M768.395 635.298L762.904 454.119L720.339 450.192L729.856 621.415L755.952 627.407L750.874 463.953L730.137 461.67L741.764 609.303L741.277 486.814" stroke="#8C4B2D" stroke-width="8.20958"/>
<path d="M239.034 543.837C244.608 543.902 259.628 550.58 266.442 553.91L278.7 578.441L669.49 589.593C672.868 588.703 679.74 583.023 680.2 567.419C680.774 547.915 657.879 539.287 668.687 538.716C679.494 538.144 689.541 573.102 689.407 554.635C689.272 536.167 669.176 526.527 675.09 527.292C681.005 528.058 699.938 547.789 692.4 536.9C684.861 526.012 670.27 522.359 672.06 518.199C673.851 514.038 683.208 518.328 683.236 515.889C674.012 500.104 638.608 488.544 627.096 489.804C615.584 491.064 407.913 492.488 386.318 491.889C364.723 491.291 341.33 465.585 342.29 472.913C343.058 478.775 348.775 484.486 351.538 486.608C331.009 484.28 309.527 473.927 309.527 473.927C309.393 485.46 327.181 483.887 321.943 484.871C316.706 485.856 271.259 468.953 275.387 473.531C278.69 477.193 287.558 485.634 291.579 489.397C280.278 489.894 260.875 495.947 248.918 499.671C245.215 499.787 241.776 500.349 239.523 501.685C236.298 503.597 240.958 502.15 248.918 499.671C258.48 499.37 269.806 502.036 267.044 502.004C263.212 501.959 239.272 523.283 246.969 520.585C254.665 517.887 279.646 526.887 270.589 526.782C261.531 526.677 232.066 543.756 239.034 543.837Z" fill="#B38022"/>
<path d="M674.737 497.673C668.924 494.593 664.08 494.557 660.75 495.441C657.791 496.226 655.917 498.871 654.546 501.608C651.763 507.164 646.901 511.397 641.015 513.388L464.637 573.053C458.658 575.075 452.058 573.867 447.183 569.856L404.986 535.14C396.225 527.932 414.316 511.225 414.447 499.881C414.657 481.766 383.077 470.947 396.291 473.191C409.505 475.435 448.206 503.06 470.979 492.174C493.753 481.289 572.117 474.15 566.269 477.253C562.413 479.298 546.992 487.133 552.594 484.759C558.196 482.385 630.531 476.031 621.66 477.895C616.378 479.004 618.072 482.948 623.468 482.874C654.361 482.451 684.422 502.805 674.737 497.673Z" fill="#B38022"/>
<path d="M690.594 572.417C688.556 579.919 678.014 585.627 672.998 587.543C668.957 585.522 662.826 581.363 670.636 580.896C678.446 580.429 687.196 575.049 690.594 572.417Z" fill="#B38022"/>
<path d="M673.524 595.128C682.186 593.332 680.977 592.176 678.85 600.821C676.719 609.482 671.27 615.674 666.727 623.325C658.208 637.675 645.237 646.04 631.027 653.943C621.32 659.342 610.526 660.396 600.117 664.128C585.945 669.209 572.922 666.136 558.385 667.358C551.787 667.913 545.368 669.058 538.716 669.047C533.311 669.038 527.651 668.389 522.298 669.336C510.687 671.39 500.079 671.834 488.244 671.697C467.363 671.454 446.896 666.087 426.012 665.583C405.664 665.093 384.821 667.791 364.94 662.718C350.497 659.033 337.857 652.003 324.399 645.834C309.426 638.97 291.327 628.042 280.721 615.374C273.791 607.096 268.9 599.544 264.968 589.371C264.814 588.974 262.956 584.094 263.956 583.609C264.131 583.524 265.335 588.84 265.567 589.318C270.044 598.538 280.879 607.304 289.137 612.895C304.517 623.31 321.964 630.154 338.687 638.092C351.105 643.986 363.757 647.25 377.382 648.844C400.533 651.553 424.172 650.422 447.098 655.284C469.071 659.944 489.168 656.841 511.3 656.867C520.577 656.878 531.095 654.625 540.221 652.89C551.373 650.769 563.046 648.564 573.859 645.132C592.428 639.239 609.697 630.889 627.901 623.953C635.493 621.06 641.84 616.055 648.769 611.854C651.947 609.927 654.603 607.455 658.063 605.972C661.875 604.336 666.069 603.529 669.502 601.072C671.301 599.784 671.571 599.75 670.626 602.283C668.62 607.658 665.363 612.988 661.882 617.518C652.421 629.833 637.122 637.527 623.18 643.608C605.997 651.102 587.82 650.207 569.489 649.994C553.576 649.81 537.321 650.583 521.589 647.821C506.436 645.161 491.176 643.359 476.022 640.763C460.82 638.158 445.681 637.287 430.501 634.903C404.076 630.754 377.799 626.036 351.267 622.602C340.119 621.159 329.901 616.342 318.955 614.2C306.442 611.751 296.627 606.114 285.389 600.331C280.188 597.655 277.772 593.869 274.006 590.015C271.73 587.686 273.492 592.93 273.669 593.306C276.775 599.907 283.495 604.731 289.122 609.001C298.419 616.056 308.589 621.59 318.438 627.793C329.511 634.765 339.94 642.492 351.749 648.248C364.039 654.238 377.439 654.509 390.843 655.53C412.171 657.155 433.656 658.187 454.948 660.288C479.897 662.749 505.189 660.618 529.973 658.402C542.356 657.295 554.016 657.737 566.429 655.59C578.701 653.467 592.683 649.393 603.946 643.924C614.499 638.8 620.029 627.468 629.849 621.22C637.993 616.039 646.889 612.367 653.992 605.685C661.751 598.385 682.475 574.313 673.991 580.756C665.079 587.523 659.37 597.862 650.644 605.107C638.436 615.242 623.09 621.196 609.332 628.95C592.343 638.524 575.618 640.275 557.033 644.458C541.941 647.855 526.081 651.214 510.585 651.408C482.145 651.763 453.254 650.441 425.55 643.412C404.096 637.97 382.05 638.252 360.48 634.031C344.632 630.93 327.475 630.853 312.172 625.683C301.549 622.094 291.151 617.827 280.431 614.532C272.376 612.056 268.154 605.073 261.789 600.058C259.176 597.999 256.254 591.701 256.293 588.372C256.355 583.032 265.642 594.937 265.917 595.313C278.755 612.85 290.65 632.102 307.865 645.882C314.737 651.383 322.702 656.07 331.205 658.253C337.701 659.922 342.383 664.79 349.446 666.013C368.47 669.308 386.86 671.599 406.29 671.824C436.292 672.172 465.347 669.244 495.142 665.786C523.496 662.495 551.417 660.935 578.468 650.577C587.988 646.933 598.689 641.498 607.214 635.874C614.504 631.065 622.762 628.265 630.06 623.739C641.749 616.489 649.987 607.535 659.949 598.265C667.94 590.829 658.336 598.567 656.124 602.654C653.206 608.047 650.762 613.649 646.242 617.936C642.271 621.701 637.746 624.874 633.836 628.695C626.219 636.137 619.967 644.134 610.353 649.33C599.112 655.405 583.828 656.112 571.318 657.564C534.357 661.853 497.867 655.113 461.539 649.82C428.351 644.986 393.13 641.61 361.859 628.775C348.111 623.133 334.798 616.63 321.09 610.93C313.014 607.571 307.124 604.4 301.476 597.523C298.172 593.5 294.36 590.327 291.427 585.904C290.208 584.066 284.846 580.915 287.051 580.941C290.826 580.985 296.319 586.346 299.49 588.034C318.779 598.309 339.733 606.376 360.67 612.527C383.217 619.151 406.141 625.03 429.801 622.974C445.233 621.633 459.001 616.977 473.657 612.28C486.201 608.259 498.862 605.552 511.172 600.793C542.696 588.606 577.022 585.102 608.664 572.869C617.942 569.282 628.099 562.918 636.165 557.013C638.109 555.59 643.32 551.87 642.641 556.549C642.051 560.614 638.096 563.865 635.514 566.711C629.572 573.26 623.794 578.715 615.622 582.475C589.11 594.673 557.625 595.563 529.018 596.148C500.217 596.737 468.953 599.271 440.759 592.369C430.701 589.906 402.175 577.448 411.465 582.024C417.649 585.071 422.524 589.766 427.921 593.957C435.982 600.216 445.104 605.199 454.894 608.168C477.275 614.957 501.46 615.546 524.667 614.848C544.986 614.238 561.586 607.088 580.019 599.495C583.489 598.066 587.768 594.575 591.406 593.936C594.242 593.438 582.717 607.936 581.225 609.154C559.48 626.916 528.478 625.731 501.949 626.326C490.201 626.59 478.228 626.002 466.631 624C464.048 623.554 455.662 621.392 463.539 622.047C489.299 624.187 514.213 629.883 540.259 628.927C562.539 628.11 587.341 621.238 605.915 608.482C615.481 601.912 621.803 592.244 631.576 586.015C636.375 582.955 642.1 582.859 647.561 581.647C649.086 581.309 660.235 574.221 660.582 574.729C663.224 578.599 634.039 603.72 631.045 605.958C610.958 620.971 587.438 621.289 563.785 625.306C539.853 629.371 517.403 631.919 493.123 628.021C475.596 625.208 459.695 616.719 442.371 613.534C423.656 610.094 406.115 603.966 387.659 599.481C364.047 593.742 339.222 595.843 315.439 591.993C301.4 589.721 288.563 581.172 275.241 576.491C266.425 573.392 249.49 565.409 249.49 565.409C249.49 565.409 257.507 571.575 261.605 574.535C280.887 588.465 301.99 599.835 323.744 609.403C343.263 617.988 362.841 621.039 383.711 624.835C413.048 630.172 442.921 634.675 472.581 637.847C498.024 640.569 524.194 641.295 548.829 633.819C564.133 629.175 580.064 626.518 595.454 622.019C609.14 618.018 622.685 613.929 636.332 609.793C646.148 606.818 656.128 603.192 663.808 596.094C669.568 590.771 672.984 585.357 676.474 578.388C677.114 577.111 679.174 573.354 678.435 574.577C675.691 579.121 670.577 582.318 666.095 584.858C647.132 595.601 628.553 605.221 607.212 610.294C573.973 618.195 540.975 626.06 506.631 625.542C488.479 625.268 470.509 622.88 452.398 621.918C440.27 621.273 428.371 620.624 416.502 617.787C397.844 613.327 379.847 605.011 362.835 596.317C351.937 590.749 339.98 585.07 330.588 577.133C325.284 572.65 318.488 568.505 314.823 562.392C311.74 557.25 305.205 552.301 300.608 548.449C299.02 547.119 300.989 552.975 301.092 553.187C304.218 559.624 310.093 564.696 315.342 569.348C344.506 595.192 386.863 599.484 424.294 601.942C443.21 603.185 462.047 603.459 481.005 603.678C499.374 603.891 518.084 605.112 536.418 603.722C553.423 602.433 568.702 599.426 585.161 595.241C593.718 593.065 602.589 592.493 611.214 590.631C618.078 589.149 624.278 585.837 630.535 582.768C642.349 576.974 652.464 568.367 664.196 562.67C668.024 560.811 671.647 558.797 670.4 564.899C668.71 573.17 659.869 584.159 652.521 587.935C651.224 588.601 641.724 591.524 643.852 591.549C647.753 591.594 651.337 592.714 655.22 592.759C658.83 592.801 657.29 589.422 655.52 587.611C649.812 581.769 630.863 584.75 623.973 585.507C592.539 588.961 561.585 587.194 530.062 588.732C494.667 590.458 460.495 590.908 425.121 587.455C410.74 586.051 396.255 584.831 381.985 582.521C373.384 581.129 365.377 577.776 356.901 575.88C348.588 574.021 339.041 572.556 331.466 568.516C324.223 564.653 315.981 561.511 308.338 558.543C303.069 556.497 287.118 547.891 293.955 559.035C302.828 573.497 316.176 583.117 332.01 588.831C338.944 591.333 346.049 592.133 353.096 594.048C354.581 594.451 345.081 593.32 343.165 592.914C327.67 589.628 313.642 579.922 299.238 573.594C291.376 570.14 287.231 563.877 280.478 558.879C277.753 556.863 273.98 554.149 270.28 554.927C268.731 555.252 270.951 560.109 271.229 560.868C273.236 566.351 277.231 569.694 281.993 572.855C293.225 580.309 305.106 586.452 317.601 591.479C321.431 593.02 316.552 591.67 315.207 591.332C306.949 589.256 300.215 584.364 293.053 579.992C287.915 576.856 282.074 572.262 276.332 570.273C271.094 568.459 286.362 575.003 291.468 577.158C313.728 586.553 339.172 589.763 362.998 592.605C384.526 595.173 406.026 598.366 427.745 598.747C446.799 599.082 465.836 598.231 484.901 598.332C499.781 598.411 514.258 595.08 528.822 592.371C535.845 591.065 542.464 588.163 549.607 587.461C555.346 586.896 560.84 586.248 566.526 585.261C576.192 583.582 586.015 581.936 595.008 577.803C603.335 573.976 612.378 573.122 620.974 570.316C625.213 568.933 628.858 566.096 633.141 564.706C637.767 563.204 642.362 562.599 646.731 560.311C652.816 557.125 660.753 553.462 665.382 548.187C666.698 546.687 664.943 550.516 664.632 550.874C661.185 554.835 655.375 556.642 650.588 558.259C631.154 564.826 612.471 571.069 591.887 573.154C562.86 576.095 534.295 576.26 505.17 575.922C478.891 575.618 454.09 574.323 428.646 567.547C415.897 564.151 402.659 562.876 389.793 560.147C376.907 557.414 362.848 556.726 349.706 555.788C332.658 554.572 314.325 555.7 297.824 550.873C293.554 549.624 289.238 549.146 284.977 548.028C283.893 547.744 281.363 545.837 282.894 546.866C298.458 557.323 314.877 562.569 332.605 568.529C350.757 574.632 368.649 577.574 387.731 577.795C405.249 577.998 422.326 578.185 439.748 576.242C448.552 575.26 457.381 574.386 466.248 574.393C467.945 574.394 474.176 574.485 468.644 574.42C452.127 574.229 435.637 574.353 419.18 572.768C405.849 571.485 366.225 565.189 379.603 565.84C395.752 566.625 411.715 573.264 427.651 575.862C447.986 579.178 471.228 579.094 491.516 575.524C501.287 573.805 510.681 570.826 520.686 570.711C527.935 570.628 534.82 570.922 541.912 569.04C551.657 566.454 561.361 562.716 571.47 561.834C594.163 559.856 621.702 563.418 641.692 550.548C650.17 545.089 651.776 532.955 660.281 528.358C663.324 526.713 658.33 541.269 657.47 543.422C652.875 554.923 640.356 565.551 629.355 570.893C615.077 577.826 597.426 580.953 581.885 583.222C571.338 584.762 560.564 584.632 549.933 585.128C537.474 585.709 525.378 588.474 512.981 589.372C478.448 591.874 442.257 589.889 407.883 586.116C383.706 583.463 359.869 585.02 335.651 584.74C327.202 584.642 320.787 587.962 311.922 585.303C300.392 581.845 288.337 579.366 277.545 574.121C272.24 571.543 265.968 570.016 261.098 566.622C259.075 565.212 257.43 561.918 255.543 560.087C250.213 554.92 252.889 554.994 258.805 557.729C268.105 562.028 279.206 563.472 289.143 565.869C338.693 577.818 389.793 589.83 440.68 593.985C479.045 597.118 514.4 589.677 550.159 575.965C561.098 571.77 573.487 568.545 583.386 562.272C588.515 559.023 593.038 557.13 598.629 554.841C605.802 551.904 613.317 549.974 620.699 547.608C629.45 544.804 636.315 538.875 645.096 535.97C652.253 533.602 654.321 529.799 659.302 524.932C663.726 520.609 665.264 520.907 659.475 525.533C631.274 548.066 597.212 556.777 561.521 557.106C539.129 557.313 517.035 557.933 494.674 556.331C473.802 554.836 452.946 554.773 432.105 553.389C416.155 552.329 401.114 551.395 385.097 551.825C371.783 552.183 358.452 552.654 345.131 552.5C332.116 552.349 319.083 552.887 306.275 550.492C300.64 549.438 298.551 550.43 294.519 546.521C293.599 545.629 287.351 541.562 289.166 543.224C291.899 545.728 297.052 546.477 300.374 547.907C309.793 551.96 318.855 556.688 328.507 560.215C348.195 567.408 368.865 570.19 389.735 570.27C406.921 570.336 423.872 566.457 441.059 566.552C460.845 566.663 480.595 566.928 500.348 568.079C518.299 569.124 536.093 572.168 554.097 572.177C579.848 572.189 608.906 566.355 630.704 552.697C635.19 549.886 640.757 547.65 644.761 544.173C646.666 542.519 645.814 541.709 643.761 542.604C637.131 545.495 631.269 550.001 624.944 553.469C614.041 559.445 602.206 563.137 590.172 566.065C560.281 573.338 529.724 580.091 499.039 582.8C484.804 584.057 470.641 583.923 456.371 584.043C447.537 584.117 438.724 585.196 429.886 584.634C398.991 582.67 365.521 574.752 336.308 564.259C318.437 557.84 299.551 555.758 281.291 550.741C278.224 549.898 274.131 549.474 271.32 547.87C268.312 546.153 274.761 554.579 275.012 554.922" stroke="#B38022" stroke-width="9.75491" stroke-linecap="square"/>
<path d="M646.954 531.008C643.747 526.839 636.202 523.62 630.958 523.559C629.764 523.546 627.628 523.143 626.574 523.797C625.804 524.274 625.908 525.305 625.168 525.769C624.016 526.491 622.242 525.905 620.955 526.153C618.939 526.541 617.601 528.86 615.82 529.062C613.645 529.308 612.599 529.287 610.648 530.184C608.039 531.383 604.933 531.04 602.107 531.007C599.544 530.977 600.124 528.009 601.608 526.851C603.113 525.675 600.562 525.24 599.81 525.273C596.738 525.408 593.741 527.463 590.84 528.282C587.98 529.09 584.262 530.281 581.335 530.247C578.492 530.214 575.329 530.49 572.758 531.704C572.166 531.984 568.51 533.569 569.406 532.443C571.019 530.418 572.834 527.776 574.954 526.282C575.736 525.731 579.194 523.415 578.865 522.033C578.531 520.629 570.307 526.504 569.758 526.942C568.294 528.112 563.747 530.296 561.848 530.511C560.404 530.675 559.191 531.028 557.721 531.011C556.444 530.996 556.009 529.64 554.597 529.447C551.625 529.04 548.803 528.407 545.825 527.875C543.431 527.448 540.858 527.581 538.577 526.523C537.578 526.059 536.041 526.451 535.214 525.792C533.654 524.55 530.813 524.505 528.86 524.451C523.9 524.313 518.187 524.417 513.674 526.609C510.23 528.282 508.221 531.232 505.009 533.224C503.12 534.395 500.869 536.834 498.508 537.068C495.298 537.387 492.52 538.037 489.159 537.998C488.035 537.985 486.911 537.972 485.787 537.959C483.497 537.932 481.967 536.331 479.847 535.699C476.088 534.578 472.795 531.715 469.011 530.616C467.03 530.041 465.056 529.313 463.066 528.847C459.919 528.109 463.801 529.473 465.154 530.197C467.617 531.514 469.048 533.088 470.919 535.077C472.61 536.874 472.784 537.741 469.946 536.997C463.829 535.392 457.904 533.592 451.756 532.261C449.821 531.841 448.106 531.557 446.237 531.015C444.389 530.478 447.442 531.298 448.244 531.932C450.85 533.991 455.836 537.611 449.447 537.537C438.387 537.409 426.848 532.324 415.777 535.59C412.948 536.425 409.836 536.311 407.083 537.161C405.436 537.67 403.938 538.418 402.222 538.805C396.766 540.037 390.8 537.782 385.383 539.388C382.878 540.131 379.614 540.625 377.342 541.889C376.544 542.332 375.454 542.746 374.455 542.259C371.601 540.866 368.6 540.806 365.605 539.937C360.341 538.409 355.777 537.861 351.461 534.325C349.806 532.97 343.749 534.378 342.92 532.67" stroke="#9E6B0B" stroke-width="1.86747" stroke-linecap="round"/>
<path d="M592.542 525.708C595.359 523.037 599.964 521.419 602.085 518.036C603.206 516.249 604.612 513.833 606.185 512.377C607.061 511.567 609.304 509.819 610.481 509.833C613.019 509.863 616.101 509.7 618.558 509.177C622.553 508.327 624.253 505.586 628.02 508.48" stroke="#9E6B0B" stroke-width="1.86747" stroke-linecap="round"/>
<path d="M353.264 535.384C349.572 532.861 347.544 530.054 344.542 526.982C342.674 525.07 340.727 522.248 338.503 520.802C334.169 517.982 329.758 522.195 325.191 520.475C323.951 520.007 324.252 516.888 323.804 515.847C322.94 513.841 325.345 514.008 327.055 513.838C328.93 513.652 334.199 514.907 332.705 513.76C331.827 513.085 330.053 512.974 329.029 512.68C325.968 511.798 323.021 510.878 319.861 510.383C316.442 509.847 313.371 510.019 309.98 509.98" stroke="#9E6B0B" stroke-width="1.86747" stroke-linecap="round"/>
<path d="M351.219 532.766C347.19 532.061 343.281 529.562 339.325 529.516C336.677 529.485 334.14 528.937 331.434 528.905C329.91 528.888 329.33 529.101 328.022 529.903C326.713 530.706 324.938 530.386 323.462 530.369C319.93 530.328 318.127 528.534 314.846 527.791C311.336 526.996 307.782 525.381 304.192 524.439C303.574 524.277 301.715 523.892 302.353 523.899C304.218 523.921 305.822 525.504 307.192 526.664C308.462 527.739 309.652 528.997 310.782 530.222C312.026 531.57 309.256 530.723 308.442 530.714C305.149 530.676 302.12 529.63 298.817 530.631C293.799 532.152 289.488 533.844 284.273 534.584" stroke="#9E6B0B" stroke-width="1.86747" stroke-linecap="round"/>
<path d="M355.453 525.552C352.65 519.19 345.537 515.676 339.517 512.916" stroke="#9E6B0B" stroke-width="1.86747" stroke-linecap="round"/>
<path d="M351.237 531.21C354.015 532.4 357.087 534.26 359.598 535.976C362.029 537.638 364.714 537.411 367.353 538.257C370.031 539.114 372.713 539.241 375.527 539.274C379.556 539.32 383.155 537.745 387.021 537.361C387.163 537.346 391.467 536.942 389.971 536.444C387.246 535.537 383.717 536.442 380.869 535.963C378.868 535.627 376.559 536.068 374.648 535.517C371.369 534.571 376.35 536.449 377.227 536.815C379.588 537.799 380.742 537.705 383.044 537.314C383.855 537.177 385.364 536.964 383.734 537.409C380.514 538.289 376.552 538.509 373.228 538.699C370.78 538.84 369.558 538.134 367.505 537.653C365.872 537.27 360.503 536.491 359.492 535.197C358.501 533.928 352.725 533.265 356.694 535.395C360.835 537.617 365.476 536.797 369.571 538.426C372.395 539.55 375.979 538.727 378.632 539.944C380.513 540.806 386.971 540.472 381.635 539.46C377.676 538.709 373.591 538.732 369.568 538.686C367.119 538.657 364.666 538.516 362.283 538.054C361.704 537.941 359.447 537.336 359.069 536.892C358.589 536.331 361.601 537.13 361.66 537.153C364.422 538.242 367.413 538.381 370.346 538.695" stroke="#9E6B0B" stroke-width="1.86747" stroke-linecap="round"/>
<path d="M508.436 530.958C505.92 530.99 504.241 531.862 502.077 532.556C500.624 533.022 500.1 534.027 498.938 534.768C498.244 535.21 497.236 534.992 496.452 535.373C492.591 537.248 487.804 536.011 483.725 536.868C480.288 537.59 483.191 535.853 485.004 535.874C487.079 535.898 488.504 535.426 490.462 535.015C494.802 534.103 499.498 535.631 502.747 531.93C503.582 530.978 506.945 529.157 505.771 529.63C502.785 530.834 500.026 532.044 496.883 533.015C492.992 534.216 487.853 533.313 483.766 533.266C480.518 533.228 485.716 534.845 486.861 534.858C489.79 534.892 492.687 534.473 495.541 534.44C499.457 534.394 502.664 533.047 506.099 531.19C507.36 530.508 508.612 529.539 509.759 528.668C511.808 527.112 507.137 530.268 506.393 530.675C505.201 531.327 501.664 532.955 503.023 532.97C504.155 532.984 507.103 530.721 507.929 529.915C509.492 528.387 504.171 532.163 502.186 533.076C500.564 533.822 498.547 534.164 497.203 535.238C495.319 536.743 495.877 536.519 495.142 536.511C492.386 536.479 488.777 535.555 486.32 534.218C482.986 532.403 477.855 532.764 474.456 530.823C472.38 529.638 470.79 529.744 468.509 529.198C464.339 528.199 467.746 529.301 469.659 529.471C471.615 529.644 473.864 531.587 475.852 532.252C478.172 533.027 482.437 533.604 483.999 535.603C484.209 535.873 478.39 533.204 477.08 533.188C476.359 533.18 478.278 534.182 479 534.191C481.906 534.224 473.762 531.663 471.088 530.525" stroke="#9E6B0B" stroke-width="1.86747" stroke-linecap="round"/>
<path d="M513.635 529.981C516.862 529.405 519.227 527.761 522.373 527.084C526.404 526.217 518.453 527.87 517.608 527.923C516.601 527.986 513.573 527.905 514.581 527.916C516.521 527.939 518.463 527.998 520.403 527.984C523.077 527.964 525.899 527.54 528.431 526.636C530.135 526.027 524.812 526.894 523.034 527.236C520.656 527.694 513.451 528.422 515.872 528.45C520.889 528.508 525.715 527.192 530.674 527.065C531.86 527.035 526.774 527.124 527.795 526.773C529.435 526.208 533.792 525.991 535.463 526.717C536.374 527.114 537.709 527.034 538.448 527.79C539.813 529.188 534.759 526.459 532.847 526.053C528.418 525.114 524.717 525.836 520.421 526.399C516.551 526.906 514.384 528.522 511.037 530.354C510.399 530.703 511.749 530.469 512.073 530.481C513.703 530.546 515.26 531.037 516.908 531.056C518.395 531.073 513.887 530.502 513.11 530.493" stroke="#9E6B0B" stroke-width="1.86747" stroke-linecap="round"/>
<path d="M603.405 528.428C605.694 530.134 610.506 530.883 613.473 530.072C615.759 529.448 618.16 526.804 620.547 526.552C621.321 526.47 623.591 525.47 624.082 524.921C625.427 523.42 619.761 525.007 618.187 526.265C615.398 528.493 610.621 528.781 607.284 529.482C606.282 529.692 604.066 530.172 603.128 529.952C600.506 529.338 604.906 528.181 605.081 528.044C606.531 526.912 612.78 528.018 614.563 528.039C616.92 528.066 611.683 527.976 610.929 528.256C609.345 528.844 607.174 528.472 605.48 528.452C604.792 528.444 604.09 528.476 603.405 528.428C603.077 528.405 602.076 527.433 602.667 527.439C603.623 527.451 605.379 529.399 605.98 530.014" stroke="#9E6B0B" stroke-width="1.86747" stroke-linecap="round"/>
<path d="M613.123 592.698C610.846 597.423 608.54 601.345 603.644 603.722C603.153 603.96 595.716 607.133 596.325 604.812C596.96 602.39 598.125 599.945 598.975 597.579C599.117 597.182 600.222 595.587 599.159 596.668C596.49 599.385 593.629 601.933 590.548 604.179C588.285 605.829 580.576 609.281 583.024 607.919C586.439 606.02 589.544 603.666 592.54 601.158C594.233 599.74 602.302 591.802 601.327 597.259" stroke="#B38022" stroke-width="2.8012" stroke-linecap="round"/>
<path d="M593.974 623.79C587.295 623.713 584.478 632.01 581.297 636.778C577.502 642.466 573.222 647.107 567.393 650.708C563.196 653.3 565.929 649.704 567.083 647.399C569.234 643.1 570.546 636.663 574.118 633.302C577.593 630.033 563.575 633.646 560.33 637.143C558.573 639.038 560.942 635.23 561.402 634.72C562.775 633.198 566.623 626.312 566.237 626.557C563.927 628.021 559.531 631.42 558.799 634.212C558.188 636.538 565.182 633.047 565.644 632.725C568.435 630.78 572.509 626.054 576.448 627.371C581.281 628.986 570.069 636.597 568.766 637.241C567.893 637.674 560.116 639.988 561.876 638.901C565.049 636.94 568.511 635.52 571.765 633.71C572.102 633.522 576.461 631.162 574.234 630.781C570.344 630.116 565.346 632.568 563.475 636.006C562.547 637.71 561.96 642.165 565.289 640.854C569.355 639.252 572.117 634.853 576.081 632.803C578.479 631.563 580.753 631.065 577.639 633.43C574.629 635.716 570.944 637.362 567.656 639.229C565.176 640.637 572.39 635.901 575.099 635.01C577.148 634.335 583.62 633.847 581.462 633.822C578.204 633.784 574.883 633.544 571.633 633.795C570.913 633.851 564.897 636.074 567.389 636.008C568.66 635.973 570.483 634.94 570.982 633.701C571.662 632.012 564.097 635.479 563.827 635.618C562.324 636.396 556.371 640.112 561.713 637.942C565.217 636.519 568.793 633.475 571.494 630.836C573.771 628.611 565.645 633.369 562.836 634.867C560.704 636.004 555.801 638.417 554.895 640.821C554.348 642.272 559.324 640.091 559.647 639.789C563.729 635.974 555.815 637.995 553.881 638.199" stroke="#B38022" stroke-width="2.8012" stroke-linecap="round"/>
<path d="M357.166 589.73C361.456 600.827 369.068 613.723 378.943 620.731C381.77 622.737 374.443 615.43 371.855 613.125C370.311 611.749 363.312 603.669 361.265 603.782C361.25 603.783 369.912 613.08 370.804 613.808C371.475 614.358 382.157 622.301 378.85 617.555C376.094 613.601 372.046 610.508 368.531 607.258C364.674 603.693 372.485 609.379 373.451 610.534C376.142 613.747 369.098 608.263 368.526 607.693C366.361 605.535 361.776 601.147 367.686 605.118C373.013 608.697 377.946 613.147 383.473 616.391C389.121 619.706 372.773 608.83 367.603 604.812C366.363 603.849 358.261 597.765 363.888 602.594C367.375 605.588 378.641 613.076 374.264 611.674C369.271 610.074 363.712 604.717 360.078 601.072C359.853 600.845 359.587 600.625 359.478 600.325C359.228 599.633 360.764 601.056 361.334 601.521C363.971 603.669 367.362 606.12 369.075 609.135C370.859 612.277 352.898 601.795 362.708 606.843C363.088 607.038 350.422 591.592 357.955 600.438C358.591 601.185 364.344 608.38 361.213 604.477C360.47 603.551 355.124 596.771 359.046 600.103C360.132 601.026 362.355 604.098 359.99 601.157C357.99 598.67 351.369 592.062 354.208 593.523C356.804 594.859 359.661 600.929 361.532 603.263C365.56 608.291 361.171 603.267 359.376 601.672C358.391 600.798 353.978 596.823 355.036 600.839C355.713 603.41 358.141 607.721 354.359 603.006C354.07 602.646 351.585 599.736 352.481 599.896C354.176 600.199 354.892 602.59 353.719 601.868C353.29 601.603 350.674 599.032 351.745 599.583C355.047 601.282 357.961 603.963 360.889 606.213" stroke="#B38022" stroke-width="2.8012" stroke-linecap="round"/>
<path d="M360.607 630.478C365.62 637.134 371.94 641.273 379.493 644.614C383.703 646.477 365.016 633.318 368.234 636.612C371.179 639.625 375.037 642.19 378.404 644.689C379.812 645.733 388.283 651.651 382.424 646.823C379.533 644.44 376.51 642.209 373.986 639.418C372.383 637.646 379.54 641.568 380.307 641.927C389.885 646.416 378.844 639.402 376.804 640.19C376.11 640.459 392.14 646.502 384.963 645.46C383.992 645.32 378.058 643.937 381.485 645.333C383.983 646.351 390.507 650.679 393.31 649.472C395.211 648.653 376.598 639.1 387.84 644.885" stroke="#B38022" stroke-width="2.8012" stroke-linecap="round"/>
<path d="M466.16 641.879C458.72 641.991 456.891 643.97 451.989 648.76" stroke="#B38022" stroke-width="2.8012" stroke-linecap="round"/>
<path d="M462.536 616.786C457.697 621.411 458.904 624.232 463.794 628.369C467.163 631.22 471.674 634.512 476.062 635.557C480.643 636.647 467.947 630.755 463.703 628.716C461.836 627.819 459.568 626.374 457.471 626.034C457.109 625.976 462.593 629.757 463.208 630.102C468.39 633.007 473.626 635.908 479.075 638.288C480.113 638.742 472.678 634.049 471.303 633.371C468.546 632.011 460.845 627.454 457.602 629.776C456.378 630.651 459.625 635.305 459.642 633.801C459.67 631.436 451.377 629.599 452.376 630.324C454.02 631.518 454.96 632.092 453.431 629.38C452.459 627.656 447.741 623.938 449.393 625.027C453.171 627.518 456.546 630.482 460.481 632.767C464.288 634.978 469.016 636.024 472.637 638.388C476.904 641.173 461.267 631.956 457.622 635.517" stroke="#B38022" stroke-width="2.8012" stroke-linecap="round"/>
<path d="M569.927 604.723C565.44 606.354 559.861 607.679 556.326 611.133C554.386 613.028 558.153 611.281 558.722 610.856C561.327 608.904 562.898 608.543 561.007 612.579C558.443 618.049 553.041 620.298 547.801 622.472" stroke="#B38022" stroke-width="2.8012" stroke-linecap="round"/>
<path d="M597.132 621.478C597.12 622.462 597.661 630.244 594.28 627.36C593.2 626.438 593.904 628.411 594.078 629.793C594.808 635.578 594.271 634.128 593.846 634.748" stroke="#B38022" stroke-width="2.8012" stroke-linecap="round"/>
<path d="M624.146 654.671C623.779 652.993 623.708 650.456 621.825 652.296C620.738 653.358 620.059 653.515 620.441 651.671C620.543 651.18 621.428 648.9 621.342 648.985C620.155 650.145 619.057 651.695 618.077 653.035C616.96 654.561 617.946 654.809 619.538 654.487C622.148 653.96 623.742 651.885 625.59 650.165C628.033 647.892 625.607 651.249 624.874 651.94C623.168 653.547 621.335 654.856 619.432 656.182" stroke="#B38022" stroke-width="2.8012" stroke-linecap="round"/>
<path d="M651.205 616.625C650.595 620.726 650.749 624.207 646.022 624.742C640.713 625.343 635.301 625.052 629.971 624.991" stroke="#B38022" stroke-width="2.8012" stroke-linecap="round"/>
<path d="M630.406 587.419C629.205 594.561 625.393 615.946 626.375 608.77C626.701 606.385 627.726 604.114 628.672 601.925C629.088 600.964 631.504 597.731 631.515 596.826C631.52 596.383 623.7 599.924 623.044 599.729C621.035 599.129 625.452 596.282 626.411 594.418" stroke="#B38022" stroke-width="2.8012" stroke-linecap="round"/>
<path d="M595.848 597.195C596.238 603.874 596.742 609.407 592.078 614.722C590.418 616.614 590.7 615.381 591.694 614.109C593.761 611.464 596.27 609.066 598.737 606.797C602.858 603.008 600.721 606.201 598.069 608.181C597.341 608.724 590.997 613.116 592.333 611.463C594.766 608.455 597.986 604.975 592.723 604.161C592.499 604.126 594.331 598.222 595.834 602.11C596.433 603.659 593.253 606.279 597.19 601.473C597.59 600.984 589.9 616.582 592.608 606.552C593.631 602.763 595.008 602.705 593.261 606.516C592.9 607.303 589.419 611.54 589.454 608.516C589.463 607.709 590.99 603.568 590.968 605.445C590.93 608.731 584.925 606.726 583.215 606.443" stroke="#B38022" stroke-width="2.8012" stroke-linecap="round"/>
<path d="M544.006 612.25C550.805 610.901 539.965 612.741 538.292 613.706C527.3 620.049 518.483 628.925 506.954 634.523" stroke="#B38022" stroke-width="2.8012" stroke-linecap="round"/>
<path d="M478.856 627.152C486.045 634.064 492.975 641.814 501.235 647.505C501.462 647.661 507.046 651.546 505.998 649.387" stroke="#B38022" stroke-width="2.8012" stroke-linecap="round"/>
<path d="M323.972 616.744C325.5 622.334 327.687 626.927 331.457 631.357C336.026 636.724 331.802 630.138 330.277 628.125C328.257 625.459 325.696 620.608 322.731 618.818C321.642 618.16 324.434 620.741 325.483 621.459" stroke="#B38022" stroke-width="2.8012" stroke-linecap="round"/>
<path d="M289.432 624.955C282.716 620.039 274.881 617.078 266.57 616.253C264.245 616.022 261.156 615.538 259.77 617.565" stroke="#B38022" stroke-width="2.8012" stroke-linecap="round"/>
<path d="M290.961 628.104C291.748 634.104 287.676 634.598 282.643 632.879C279.491 631.803 279.06 631.726 278.355 635.047C277.9 637.192 277.622 641.404 276.261 643.112C275.483 644.089 271.006 641.404 269.673 641.166" stroke="#B38022" stroke-width="2.8012" stroke-linecap="round"/>
<path d="M649.508 492.916C653.461 489.904 654.256 489.801 658.476 492.193C661.636 493.985 662.741 494.24 662.847 490.287C662.947 486.539 663.039 485.553 667.283 486.598C671.893 487.734 674.454 490.261 676.895 494.016" stroke="#B38022" stroke-width="2.8012" stroke-linecap="round"/>
<path d="M479.58 497.208C484.657 490.112 491.073 484.016 497.889 478.588C499.807 477.061 501.839 475.69 503.768 474.177C504.508 473.596 506.145 471.698 506.134 472.639C506.101 475.515 501.361 480.91 499.792 483.177C497.812 486.039 495.919 487.744 492.978 489.535" stroke="#B38022" stroke-width="2.8012" stroke-linecap="round"/>
<path d="M495.38 484.865C497.22 483.375 501.724 477.907 500.483 479.923C500.082 480.573 498.308 482.266 499.427 480.955C500.166 480.088 503.106 478.818 501.976 478.679C499.645 478.393 497.862 479.753 496.549 481.574C493.973 485.145 499.881 478.389 498.126 480.591C496.889 482.145 495.285 483.978 493.81 485.282C492.682 486.279 490.994 485.281 489.883 486.367" stroke="#B38022" stroke-width="2.8012" stroke-linecap="round"/>
<path d="M368.668 540.839C369.77 539.155 370.715 538.521 372.23 537.359" stroke="#9E6B0B" stroke-width="2.8012" stroke-linecap="round"/>
<path d="M372.612 538.146C373.196 538.613 374.31 539.396 374.654 540.104C374.668 540.132 372.068 539.783 373.127 540.543C373.677 540.937 377.292 542.63 376.801 540.564C376.644 539.904 374.351 539.191 374.4 539.558C374.423 539.736 374.222 540.41 374.237 540.425C374.636 540.833 376.196 539.721 375.935 540.228C375.594 540.891 371.892 540.887 371.975 540.573C372.099 540.099 375.594 540.835 376.101 540.925" stroke="#9E6B0B" stroke-width="2.8012" stroke-linecap="round"/>
<path d="M351.166 531.636C352.535 531.979 353.263 532.472 354.365 533.239C354.646 533.434 356.087 534.041 355.791 534.038C353.553 534.012 356.583 534.265 355.373 534.402C354.413 534.511 353.781 533.71 353.012 533.701C352.177 533.691 355.596 535.818 354.95 535.289C354.775 535.145 354.585 535.589 355.229 535.596C355.536 535.6 355.725 534.938 355.996 535.084C356.796 535.513 362.555 540.932 363.237 538.646C363.372 538.194 366.921 538.302 367.063 538.668C367.531 539.879 369.473 539.682 370.541 540.556C371.334 541.206 372.837 541.279 371.402 541.262" stroke="#9E6B0B" stroke-width="2.8012" stroke-linecap="round"/>
<path d="M501.376 535.726C501.277 535.189 501.363 532.987 500.538 532.977C498.594 532.955 498.263 534.17 498.244 535.842C498.217 538.134 501.359 534.19 499.628 534.554C498.284 534.836 499.045 534.89 499.36 535.159C499.862 535.587 497.305 535.705 497.154 536.068C496.944 536.577 498.439 536.007 498.459 535.997C499.441 535.5 499.913 534.437 500.811 533.828C501.844 533.127 502.653 533.849 502.977 532.614" stroke="#9E6B0B" stroke-width="2.8012" stroke-linecap="round"/>
<path d="M513.595 528.042C509.468 524.452 514.107 526.579 512.039 527.241" stroke="#9E6B0B" stroke-width="2.8012" stroke-linecap="round"/>
<path d="M604.368 528.704C603.488 528.327 601.394 526.733 600.87 528.489C600.438 529.936 601.453 529.509 602.789 529.859" stroke="#9E6B0B" stroke-width="2.8012" stroke-linecap="round"/>
<path d="M623.966 525.8C625.383 524.03 626.24 524.262 628.287 524.285" stroke="#9E6B0B" stroke-width="2.8012" stroke-linecap="round"/>
<path d="M592.279 525.042C591.957 526.27 590.923 527.765 589.508 527.749C588.513 527.737 588.397 528.625 587.539 528.9" stroke="#9E6B0B" stroke-width="2.8012" stroke-linecap="round"/>
<path d="M513.195 528.82C511.606 529.055 510.095 529.175 508.495 529.156" stroke="#9E6B0B" stroke-width="2.8012" stroke-linecap="round"/>
<path d="M505.706 533.429C507.577 532.633 509.26 531.503 510.635 530.16C511.791 529.03 513.125 527.645 514.773 527.664" stroke="#9E6B0B" stroke-width="2.8012" stroke-linecap="round"/>
<path d="M374.954 538.564C374.852 538.083 374.8 536.821 374.195 536.599C374.102 536.565 373.622 536.467 373.981 536.292C374.235 536.169 374.692 536.328 374.896 536.129C375.05 535.978 374.805 535.495 374.597 535.647C374.339 535.836 373.241 535.838 373.268 535.871C373.625 536.309 374.449 537.511 374.181 537.773" stroke="#9E6B0B" stroke-width="2.8012" stroke-linecap="round"/>
<path d="M386.715 536.744C388.995 536.327 390.851 536.137 392.971 537.121C393.74 537.478 395.401 537.619 396.003 538.113C397.322 539.194 400.257 539.64 401.941 539.66" stroke="#9E6B0B" stroke-width="2.8012" stroke-linecap="round"/>
<path d="M479.568 637.826C482.983 636.505 485.527 635.75 488.882 637.623C489.873 638.177 492.71 640.056 491.81 639.364C490.312 638.213 480.625 633.687 480.644 632.019C480.65 631.477 490.2 636.894 491.173 637.456C491.295 637.527 484.282 631.123 484.472 629.813C484.491 629.682 493.663 636.876 494.778 637.692C494.996 637.851 489.713 632.836 489.729 631.503C489.737 630.799 492.143 631.859 492.4 631.961C492.689 632.076 492.082 630.76 492.139 631.066C492.238 631.595 493.36 633.563 493.972 633.57C494.604 633.577 494.151 630.584 494.4 630.161C494.668 629.703 497.819 634.488 498.815 634.169C500.226 633.717 501.894 633.763 503.355 634.067C505.753 634.566 507.272 636.388 503.887 635.004C502.221 634.323 500.574 633.609 498.826 633.2C496.259 632.598 494.324 632.545 491.787 631.333C490.199 630.575 487.953 629.362 486.103 629.677C484.647 629.924 484.706 631.808 483.818 632.676C483.514 632.973 481.111 632.326 480.565 632.173C476.242 630.966 473.174 628.399 468.51 627.921" stroke="#B38022" stroke-width="2.8012" stroke-linecap="round"/>
<path d="M553.248 607.255C559.017 609.104 553.797 615.54 551.293 618.561C549.344 620.912 540.278 625.356 547.101 622.043C548.923 621.158 558.46 615.308 558.043 615.303C550.322 615.213 544.386 620.381 539.072 625.248" stroke="#B38022" stroke-width="2.8012" stroke-linecap="round"/>
<path d="M339.739 591.511C346.224 595.182 350.202 602.021 354.603 607.822C355.97 609.624 357.989 611.617 358.997 613.693C359.147 614.002 354.667 610.331 354.383 610.07C350.652 606.64 346.768 603.067 342.39 600.465C339.791 598.919 347.14 604.218 349.345 606.287" stroke="#B38022" stroke-width="2.8012" stroke-linecap="round"/>
<path d="M324.793 615.779C329.16 618.288 333.21 621.203 337.503 623.802C340.335 625.517 340.474 624.882 337.859 623.224C335.861 621.958 333.527 620.547 331.264 619.811C328.916 619.048 334.832 623.228 336.558 624.994" stroke="#B38022" stroke-width="2.8012" stroke-linecap="round"/>
<path d="M665.932 629.322C665.3 625.873 663.878 622.301 668.626 622.046C677.186 621.588 685.359 628.612 690.925 634.309" stroke="#B38022" stroke-width="2.8012" stroke-linecap="round"/>
<path d="M666.013 622.277C671.481 631.124 681.406 627.19 690.242 625.689" stroke="#B38022" stroke-width="2.8012" stroke-linecap="round"/>
<path d="M261.762 580.795C257.763 574.782 251.537 570.854 245.48 567.124C244.597 566.58 235.463 561.63 239.802 561.752C243.606 561.858 267.801 570.251 263.4 574.551" stroke="#B38022" stroke-width="2.8012" stroke-linecap="round"/>
<path d="M244.714 565.723C246.657 566.423 248.363 567.207 250.166 568.135" stroke="#B38022" stroke-width="2.8012" stroke-linecap="round"/>
<rect width="26.5425" height="57.2323" rx="13.2713" transform="matrix(-0.998459 0.055496 0.055496 0.998459 498.515 539.086)" fill="#FFAE11"/>
<path d="M505.118 596.039C508.714 595.84 511.467 592.763 511.267 589.167C511.101 586.179 508.923 583.688 505.984 583.124L487.207 579.524C480.518 578.241 474.405 583.586 474.783 590.386C475.007 594.427 478.465 597.521 482.506 597.296L505.118 596.039Z" fill="#FFAE11"/>
<rect x="434.179" y="542.662" width="26.5425" height="57.2323" rx="13.2713" transform="rotate(-3.18132 434.179 542.662)" fill="#FFAE11"/>
<path d="M433.928 599.996C430.332 600.196 427.255 597.443 427.055 593.847C426.889 590.859 428.778 588.142 431.636 587.257L449.899 581.597C456.404 579.581 463.072 584.216 463.45 591.016C463.675 595.057 460.581 598.515 456.54 598.739L433.928 599.996Z" fill="#FFAE11"/>
<path d="M561.46 437.561L360.967 448.705L362.715 480.138C365.792 535.503 413.168 577.89 468.533 574.813C523.897 571.735 566.284 524.359 563.207 468.995L561.46 437.561Z" fill="#00DCF0"/>
<path d="M558.01 375.481C554.932 320.116 507.556 277.729 452.191 280.806C396.827 283.883 354.44 331.26 357.517 386.624L361.617 460.397C362.532 476.848 376.61 489.443 393.061 488.529L533.978 480.696C550.429 479.782 563.024 465.704 562.11 449.253L558.01 375.481Z" fill="#00DCF0"/>
<path d="M397.83 338.069C398.958 337.865 399.706 336.786 399.503 335.659C399.299 334.532 398.22 333.783 397.092 333.986C395.965 334.19 395.216 335.269 395.42 336.397C395.624 337.524 396.703 338.273 397.83 338.069Z" fill="#00B4C5"/>
<path d="M410.214 338.367C411.567 338.123 412.465 336.828 412.221 335.475C411.977 334.122 410.682 333.224 409.329 333.468C407.976 333.713 407.077 335.008 407.322 336.36C407.566 337.713 408.861 338.612 410.214 338.367Z" fill="#00B4C5"/>
<path d="M422.372 342.079C423.95 341.794 424.999 340.283 424.713 338.705C424.428 337.126 422.917 336.078 421.339 336.363C419.761 336.649 418.712 338.159 418.998 339.738C419.283 341.316 420.794 342.364 422.372 342.079Z" fill="#00B4C5"/>
<path d="M433.634 350.169C435.438 349.843 436.636 348.116 436.31 346.313C435.984 344.509 434.258 343.311 432.454 343.637C430.65 343.963 429.452 345.689 429.778 347.493C430.104 349.297 431.83 350.495 433.634 350.169Z" fill="#00B4C5"/>
<path d="M385.368 342.001C386.269 341.838 386.869 340.975 386.706 340.073C386.543 339.171 385.679 338.572 384.777 338.735C383.875 338.898 383.276 339.761 383.439 340.663C383.602 341.565 384.466 342.164 385.368 342.001Z" fill="#00B4C5"/>
<path d="M375.015 350.611C375.466 350.53 375.765 350.098 375.684 349.647C375.602 349.196 375.171 348.897 374.72 348.978C374.269 349.06 373.969 349.491 374.051 349.942C374.132 350.393 374.564 350.693 375.015 350.611Z" fill="#00B4C5"/>
<path d="M512.751 331.682C511.608 331.604 510.744 330.615 510.821 329.472C510.899 328.329 511.888 327.465 513.031 327.542C514.174 327.62 515.038 328.609 514.961 329.752C514.883 330.895 513.894 331.759 512.751 331.682Z" fill="#00B4C5"/>
<path d="M500.476 333.351C499.105 333.258 498.068 332.07 498.161 330.699C498.254 329.327 499.442 328.291 500.813 328.384C502.185 328.477 503.221 329.664 503.128 331.036C503.035 332.407 501.848 333.444 500.476 333.351Z" fill="#00B4C5"/>
<path d="M488.804 338.387C487.204 338.279 485.995 336.893 486.103 335.293C486.212 333.693 487.597 332.484 489.197 332.592C490.798 332.701 492.007 334.086 491.898 335.686C491.79 337.286 490.405 338.496 488.804 338.387Z" fill="#00B4C5"/>
<path d="M478.508 347.675C476.679 347.551 475.297 345.968 475.421 344.139C475.545 342.31 477.128 340.928 478.957 341.052C480.786 341.176 482.168 342.759 482.044 344.588C481.92 346.417 480.337 347.799 478.508 347.675Z" fill="#00B4C5"/>
<path d="M525.572 334.208C524.658 334.146 523.967 333.355 524.029 332.44C524.091 331.526 524.882 330.835 525.797 330.897C526.711 330.959 527.402 331.75 527.34 332.665C527.278 333.579 526.487 334.27 525.572 334.208Z" fill="#00B4C5"/>
<path d="M536.815 341.618C536.358 341.587 536.012 341.191 536.043 340.734C536.074 340.277 536.47 339.931 536.927 339.962C537.384 339.993 537.73 340.389 537.699 340.846C537.668 341.304 537.272 341.649 536.815 341.618Z" fill="#00B4C5"/>
<path d="M487.989 284.341L487.491 284.638C486.966 284.953 486.337 285.045 485.743 284.895C484.507 284.584 483.757 283.329 484.068 282.093L492.006 250.577C493.153 246.026 499.676 246.197 500.583 250.801L501.3 254.442C503.619 266.219 498.292 278.184 487.989 284.341Z" fill="#00DCF0"/>
<path d="M482.682 253.35L479.676 285.444C479.448 287.884 477.469 289.789 475.022 289.925C472.495 290.066 470.27 288.279 469.861 285.782L463.607 247.575C463.223 245.232 462.622 242.931 461.811 240.7L460.294 236.525C456.751 226.778 469.897 219.86 475.925 228.299C481.116 235.566 483.514 244.459 482.682 253.35Z" fill="#00DCF0"/>
<path d="M464.646 280.694L466.524 281.958C467.867 282.861 467.291 284.953 465.676 285.043C465.434 285.056 465.193 285.018 464.967 284.93L453.77 280.551C449.098 278.724 446.324 273.894 447.102 268.938L448.282 261.409C448.748 258.442 453.054 258.546 453.376 261.532L453.44 262.126C454.254 269.665 458.354 276.461 464.646 280.694Z" fill="#00DCF0"/>
<path d="M371.174 441.824C353.812 442.789 341.374 459.088 345.123 476.068L360.552 545.93C361.429 549.902 365.055 552.652 369.115 552.426C382.52 551.681 393.41 541.331 394.834 527.981L400.719 472.823C402.556 455.614 388.454 440.864 371.174 441.824Z" fill="#00DCF0"/>
<path d="M550.382 431.864C567.744 430.899 581.912 445.719 580.067 463.009L572.476 534.151C572.045 538.196 568.746 541.331 564.685 541.557C551.28 542.302 539.311 533.222 536.415 520.112L524.454 465.946C520.722 449.047 533.102 432.825 550.382 431.864Z" fill="#00DCF0"/>
<path fill-rule="evenodd" clip-rule="evenodd" d="M439.445 376.45C436.346 381.104 432.195 385.039 426.846 386.666C422.478 387.995 418.166 389.555 413.928 391.346C407.892 393.898 404.945 400.757 407.248 406.892L410.313 415.057C415.641 429.25 426.668 440.564 440.719 446.256C454.109 451.68 469.222 450.84 481.929 443.965C495.263 436.752 504.968 424.285 508.69 409.589L510.832 401.134C512.441 394.782 508.752 388.292 502.47 386.425C498.06 385.114 493.602 384.041 489.114 383.205C483.617 382.181 479.055 378.73 475.46 374.448C474.476 373.276 473.426 374.066 473.614 375.584C473.954 378.327 470.387 379.685 468.817 377.41L461.103 366.233C461.046 366.149 460.986 366.071 460.923 365.998C459.441 364.279 454.239 364.568 452.956 366.441C452.901 366.521 452.85 366.605 452.802 366.694L446.375 378.657C445.067 381.092 441.371 380.138 441.405 377.374C441.424 375.844 440.293 375.176 439.445 376.45Z" fill="#303030"/>
<path fill-rule="evenodd" clip-rule="evenodd" d="M483.571 401.292L472.618 419.832C468.384 427 459.084 429.42 451.847 425.237C450.079 424.215 448.538 422.85 447.318 421.222L434.423 404.023L483.571 401.292Z" fill="#DE9300"/>
<path fill-rule="evenodd" clip-rule="evenodd" d="M465.734 385.417L483.223 400.454C483.798 400.949 483.859 401.812 483.358 402.381C483.303 402.444 483.243 402.502 483.177 402.553L464.988 416.919C462.006 419.274 457.847 419.508 454.619 417.502L434.89 405.238C434.244 404.837 434.05 403.994 434.456 403.355C434.502 403.284 434.554 403.217 434.611 403.155L450.38 386.26C454.432 381.919 461.232 381.546 465.734 385.417Z" fill="#FFAE11"/>
<mask id="path-84-outside-1" maskUnits="userSpaceOnUse" x="477.115" y="330.547" width="65.1792" height="80.2666" fill="black">
<rect fill="white" x="477.115" y="330.547" width="65.1792" height="80.2666"/>
<path fill-rule="evenodd" clip-rule="evenodd" d="M517.513 341.702C523.632 341.362 528.867 346.046 529.207 352.165L530.593 377.093C530.857 381.848 530.158 386.433 528.666 390.66C528.043 392.422 526.35 393.523 524.488 393.676C522.727 393.82 520.945 394.023 519.147 394.286C511.412 395.418 504.279 397.54 498.159 400.34C494.683 401.93 490.364 399.693 490.152 395.877L488.384 364.064C487.749 352.643 496.492 342.87 507.913 342.236L517.513 341.702Z"/>
</mask>
<path fill-rule="evenodd" clip-rule="evenodd" d="M517.513 341.702C523.632 341.362 528.867 346.046 529.207 352.165L530.593 377.093C530.857 381.848 530.158 386.433 528.666 390.66C528.043 392.422 526.35 393.523 524.488 393.676C522.727 393.82 520.945 394.023 519.147 394.286C511.412 395.418 504.279 397.54 498.159 400.34C494.683 401.93 490.364 399.693 490.152 395.877L488.384 364.064C487.749 352.643 496.492 342.87 507.913 342.236L517.513 341.702Z" fill="white"/>
<path d="M519.147 394.286L517.82 385.219L517.82 385.219L519.147 394.286ZM488.384 364.064L479.234 364.572L488.384 364.064ZM498.159 400.34L501.971 408.673L498.159 400.34ZM490.152 395.877L499.302 395.368L490.152 395.877ZM528.666 390.66L537.306 393.711L528.666 390.66ZM524.488 393.676L525.236 402.809L524.488 393.676ZM520.058 352.673C519.998 351.608 519.087 350.793 518.022 350.852L517.005 332.552C528.176 331.931 537.736 340.485 538.357 351.656L520.058 352.673ZM521.443 377.602L520.058 352.673L538.357 351.656L539.743 376.584L521.443 377.602ZM520.025 387.608C521.121 384.503 521.639 381.127 521.443 377.602L539.743 376.584C540.075 382.569 539.195 388.364 537.306 393.711L520.025 387.608ZM525.236 402.809C523.669 402.938 522.08 403.118 520.473 403.353L517.82 385.219C519.81 384.928 521.785 384.703 523.739 384.543L525.236 402.809ZM520.473 403.353C513.545 404.367 507.255 406.256 501.971 408.673L494.346 392.007C501.303 388.824 509.278 386.469 517.82 385.219L520.473 403.353ZM497.533 363.555L499.302 395.368L481.002 396.386L479.234 364.572L497.533 363.555ZM508.422 351.385C502.054 351.739 497.179 357.188 497.533 363.555L479.234 364.572C478.318 348.098 490.931 334.002 507.404 333.086L508.422 351.385ZM518.022 350.852L508.422 351.385L507.404 333.086L517.005 332.552L518.022 350.852ZM501.971 408.673C493.53 412.535 481.626 407.612 481.002 396.386L499.302 395.368C499.208 393.678 498.161 392.548 497.308 392.084C496.516 391.654 495.432 391.51 494.346 392.007L501.971 408.673ZM537.306 393.711C535.271 399.474 530.025 402.417 525.236 402.809L523.739 384.543C522.676 384.63 520.815 385.371 520.025 387.608L537.306 393.711Z" fill="#00DCF0" mask="url(#path-84-outside-1)"/>
<path fill-rule="evenodd" clip-rule="evenodd" d="M501.27 356.584C495.436 356.908 490.969 361.9 491.293 367.735C491.305 367.938 491.41 368.125 491.579 368.239L496.833 371.803C498.644 373.031 498.789 375.645 497.126 377.067L493.285 380.348C492.509 381.011 492.086 381.999 492.143 383.019C492.467 388.853 497.46 393.32 503.294 392.996C509.128 392.672 513.595 387.679 513.271 381.845L512.421 366.561C512.097 360.726 507.104 356.259 501.27 356.584Z" fill="#303030"/>
<mask id="path-87-outside-2" maskUnits="userSpaceOnUse" x="372.403" y="336.367" width="65.2347" height="81.2651" fill="black">
<rect fill="white" x="372.403" y="336.367" width="65.2347" height="81.2651"/>
<path fill-rule="evenodd" clip-rule="evenodd" d="M394.047 348.565C387.914 348.906 383.219 354.154 383.56 360.286L384.953 385.354C385.217 390.089 386.411 394.552 388.348 398.574C389.161 400.26 390.968 401.17 392.839 401.115C394.61 401.063 396.41 401.066 398.232 401.129C406.042 401.398 413.365 402.72 419.756 404.829C423.388 406.028 427.437 403.326 427.225 399.507L425.449 367.562C424.815 356.141 415.042 347.398 403.621 348.033L394.047 348.565Z"/>
</mask>
<path fill-rule="evenodd" clip-rule="evenodd" d="M394.047 348.565C387.914 348.906 383.219 354.154 383.56 360.286L384.953 385.354C385.217 390.089 386.411 394.552 388.348 398.574C389.161 400.26 390.968 401.17 392.839 401.115C394.61 401.063 396.41 401.066 398.232 401.129C406.042 401.398 413.365 402.72 419.756 404.829C423.388 406.028 427.437 403.326 427.225 399.507L425.449 367.562C424.815 356.141 415.042 347.398 403.621 348.033L394.047 348.565Z" fill="white"/>
<path d="M383.56 360.286L374.41 360.795L383.56 360.286ZM394.047 348.565L393.539 339.415L394.047 348.565ZM384.953 385.354L394.103 384.845L384.953 385.354ZM398.232 401.129L398.548 391.971L398.548 391.971L398.232 401.129ZM425.449 367.562L434.599 367.053L425.449 367.562ZM403.621 348.033L404.13 357.182L403.621 348.033ZM427.225 399.507L418.075 400.016L427.225 399.507ZM392.839 401.115L393.109 410.275L392.839 401.115ZM392.71 359.778C392.65 358.698 393.476 357.774 394.556 357.714L393.539 339.415C382.353 340.037 373.789 349.609 374.41 360.795L392.71 359.778ZM394.103 384.845L392.71 359.778L374.41 360.795L375.804 385.862L394.103 384.845ZM396.604 394.597C395.18 391.641 394.298 388.356 394.103 384.845L375.804 385.862C376.135 391.822 377.641 397.462 380.093 402.551L396.604 394.597ZM393.109 410.275C394.685 410.228 396.289 410.231 397.916 410.288L398.548 391.971C396.531 391.901 394.536 391.897 392.57 391.955L393.109 410.275ZM397.916 410.288C404.91 410.529 411.368 411.711 416.885 413.531L422.628 396.127C415.361 393.729 407.174 392.268 398.548 391.971L397.916 410.288ZM416.3 368.07L418.075 400.016L436.375 398.999L434.599 367.053L416.3 368.07ZM404.13 357.182C410.497 356.828 415.946 361.703 416.3 368.07L434.599 367.053C433.683 350.58 419.587 337.967 403.113 338.883L404.13 357.182ZM394.556 357.714L404.13 357.182L403.113 338.883L393.539 339.415L394.556 357.714ZM416.885 413.531C425.702 416.441 436.999 410.232 436.375 398.999L418.075 400.016C417.981 398.324 418.898 397.085 419.694 396.53C420.432 396.016 421.494 395.753 422.628 396.127L416.885 413.531ZM380.093 402.551C382.749 408.066 388.3 410.416 393.109 410.275L392.57 391.955C393.636 391.924 395.572 392.455 396.604 394.597L380.093 402.551Z" fill="#00DCF0" mask="url(#path-87-outside-2)"/>
<path fill-rule="evenodd" clip-rule="evenodd" d="M411.813 361.556C405.979 361.88 401.512 366.873 401.836 372.707C401.848 372.911 401.953 373.097 402.122 373.212L407.376 376.775C409.187 378.003 409.332 380.618 407.669 382.039L403.828 385.32C403.052 385.983 402.629 386.971 402.686 387.991C403.01 393.826 408.003 398.293 413.837 397.968C419.671 397.644 424.138 392.651 423.814 386.817L422.964 371.533C422.64 365.698 417.647 361.232 411.813 361.556Z" fill="#303030"/>
<g filter="url(#filter0_d)">
<path d="M378.719 509.993C380.665 545.011 406.43 553.74 427.823 552.551C449.216 551.362 473.97 536.604 472.202 504.797C470.288 470.357 447.503 435.916 421.421 437.366C395.34 438.816 376.772 474.974 378.719 509.993Z" fill="#FAFAFA"/>
</g>
<g filter="url(#filter1_d)">
<path d="M432.232 538.834C434.178 573.853 459.944 582.581 481.336 581.392C502.729 580.203 527.483 565.445 525.715 533.638C523.801 499.198 501.016 464.757 474.934 466.207C448.853 467.657 430.285 503.815 432.232 538.834Z" fill="#FAFAFA"/>
</g>
<g filter="url(#filter2_d)">
<path d="M347.744 555.251C349.691 590.27 375.456 598.999 396.849 597.81C418.242 596.62 442.996 581.863 441.228 550.056C439.314 515.616 416.528 481.175 390.447 482.625C364.365 484.074 345.798 520.233 347.744 555.251Z" fill="#FAFAFA"/>
</g>
<path d="M648.895 530.619C645.682 526.442 638.122 523.216 632.867 523.155C631.671 523.141 629.531 522.738 628.475 523.393C627.703 523.872 627.807 524.905 627.065 525.37C625.911 526.093 624.134 525.506 622.845 525.754C620.825 526.143 619.483 528.467 617.699 528.669C615.519 528.915 614.471 528.894 612.517 529.793C609.902 530.994 606.791 530.65 603.959 530.618C601.391 530.588 601.972 527.614 603.458 526.453C604.966 525.275 602.41 524.84 601.657 524.873C598.579 525.008 595.576 527.066 592.67 527.887C589.804 528.697 586.079 529.89 583.146 529.856C580.297 529.823 577.128 530.1 574.551 531.316C573.958 531.596 570.295 533.185 571.193 532.057C572.809 530.028 574.628 527.38 576.752 525.883C577.535 525.331 581 523.011 580.671 521.626C580.336 520.219 572.095 526.106 571.546 526.545C570.078 527.717 565.523 529.905 563.62 530.121C562.173 530.285 560.957 530.639 559.484 530.622C558.205 530.607 557.769 529.248 556.355 529.055C553.376 528.647 550.549 528.013 547.565 527.48C545.166 527.051 542.588 527.185 540.303 526.125C539.301 525.66 537.761 526.053 536.933 525.393C535.369 524.147 532.523 524.102 530.566 524.048C525.597 523.91 519.872 524.015 515.35 526.211C511.899 527.887 509.886 530.843 506.667 532.839C504.775 534.013 502.519 536.456 500.154 536.691C496.938 537.011 494.154 537.661 490.786 537.622L487.407 537.583C485.113 537.556 483.579 535.953 481.456 535.319C477.689 534.196 474.39 531.327 470.598 530.226C468.613 529.65 466.636 528.921 464.641 528.453C461.488 527.714 465.378 529.081 466.733 529.806C469.201 531.126 470.635 532.703 472.51 534.696C474.204 536.496 474.379 537.365 471.535 536.619C465.406 535.011 459.469 533.208 453.309 531.874C451.369 531.454 449.651 531.169 447.779 530.626C447.564 530.563 447.415 530.519 447.321 530.491C447.165 530.442 447.136 530.435 447.321 530.491C447.769 530.632 449.263 531.128 449.79 531.544C452.401 533.608 457.397 537.235 450.995 537.161C439.914 537.032 428.351 531.937 417.258 535.21C414.424 536.046 411.305 535.933 408.547 536.784C406.896 537.293 405.395 538.043 403.676 538.431C398.21 539.666 392.232 537.406 386.804 539.015C384.294 539.76 381.023 540.255 378.746 541.521C377.948 541.965 376.855 542.38 375.854 541.892C372.995 540.497 369.987 540.437 366.986 539.565C361.712 538.034 357.139 537.486 352.814 533.943C351.156 532.584 345.087 533.995 344.256 532.284L341.658 599.755L475.19 612.832L549.035 607.694L646.477 582.538L648.895 530.619Z" fill="#B38022"/>
<path d="M649.398 530.04C646.191 525.871 638.646 522.652 633.402 522.591C632.208 522.577 630.072 522.174 629.018 522.828C628.248 523.306 628.352 524.337 627.612 524.801C626.459 525.523 624.686 524.936 623.399 525.184C621.383 525.572 620.045 527.892 618.264 528.093C616.088 528.34 615.043 528.318 613.092 529.215C610.482 530.414 607.377 530.071 604.551 530.038C601.988 530.008 602.568 527.041 604.051 525.882C605.557 524.706 603.006 524.272 602.254 524.305C599.181 524.44 596.185 526.494 593.284 527.314C590.424 528.122 586.706 529.312 583.779 529.278C580.936 529.246 577.773 529.521 575.202 530.735C574.61 531.015 570.953 532.6 571.85 531.475C573.463 529.45 575.278 526.807 577.398 525.313C578.179 524.762 581.638 522.447 581.309 521.064C580.975 519.66 572.751 525.535 572.202 525.974C570.738 527.144 566.191 529.327 564.292 529.542C562.848 529.706 561.635 530.059 560.165 530.042C558.888 530.027 558.453 528.671 557.041 528.478C554.068 528.072 551.247 527.439 548.269 526.907C545.875 526.479 543.302 526.613 541.021 525.555C540.022 525.091 538.485 525.483 537.658 524.824C536.097 523.581 533.257 523.536 531.304 523.482C526.344 523.344 520.631 523.449 516.118 525.64C512.674 527.313 510.665 530.263 507.452 532.255C505.564 533.427 503.312 535.865 500.952 536.1C497.742 536.419 494.964 537.068 491.603 537.029C490.479 537.016 489.355 537.003 488.231 536.99C485.941 536.963 484.41 535.363 482.291 534.731C478.532 533.609 475.239 530.746 471.455 529.647C469.473 529.072 467.5 528.345 465.509 527.878C462.363 527.14 466.245 528.505 467.598 529.228C470.061 530.545 471.492 532.119 473.363 534.108C475.054 535.905 475.228 536.773 472.39 536.028C466.273 534.423 460.348 532.624 454.2 531.292C452.264 530.873 450.55 530.589 448.681 530.046C446.833 529.51 449.886 530.33 450.688 530.963C453.294 533.022 458.28 536.643 451.891 536.568C440.831 536.44 429.292 531.355 418.221 534.622C415.392 535.456 412.28 535.343 409.527 536.192C407.88 536.701 406.381 537.449 404.666 537.837C399.21 539.069 393.244 536.814 387.827 538.419C385.322 539.162 382.058 539.656 379.785 540.92C378.988 541.363 377.898 541.778 376.899 541.29C374.045 539.898 371.044 539.838 368.049 538.968C362.785 537.44 358.221 536.893 353.904 533.357C352.25 532.001 346.193 533.409 345.363 531.701" stroke="#9E6B0B" stroke-width="1.86747" stroke-linecap="round"/>
<g opacity="0.8">
<path d="M641.201 565.122C635.942 563.334 633.198 564.377 628.41 567.093C623.315 569.982 617.346 573.724 611.512 574.895C606.145 575.973 599.724 574.889 594.648 577.049C592.267 578.061 590.677 580.071 588.737 581.677C587.141 582.998 585.883 583.121 583.976 583.549" stroke="#9E6B0B" stroke-width="2.45281" stroke-linecap="round"/>
<path d="M600.409 576.772C604.246 573.641 609.402 577.51 613.03 579.545C614.326 580.272 615.605 578.365 617.191 578.206C619.391 577.986 622.197 577.377 623.988 578.979" stroke="#9E6B0B" stroke-width="2.45281" stroke-linecap="round"/>
<path d="M584.993 573.719C580.861 573.232 580.026 575.008 578.731 578.281C577.544 581.281 575.374 581.08 572.527 581.536C569.514 582.019 567.302 583.792 564.696 585.229C562.004 586.714 559.045 587.092 556.045 587.447" stroke="#9E6B0B" stroke-width="2.45281" stroke-linecap="round"/>
<path d="M346.822 572.101C350.341 571.164 353.621 570.771 357.155 572.005C360.057 573.018 362.42 575.417 365.301 576.33C371.122 578.176 377.896 577.158 383.912 578.25C389.92 579.34 394.931 582.734 401.319 582.733C402.658 582.733 403.185 582.16 404.313 581.894C407.207 581.212 411.042 583.757 413.597 584.809" stroke="#9E6B0B" stroke-width="2.45281" stroke-linecap="round"/>
<path d="M363.774 576.633C361.356 575.004 359.655 575.078 356.672 575.464C355.557 575.608 355.139 576.653 354.247 577.162C353.167 577.779 351.766 577.691 350.566 577.758C344.527 578.093 339.158 578.839 332.963 577.954" stroke="#9E6B0B" stroke-width="2.45281" stroke-linecap="round"/>
<path d="M308.478 599.643C313.349 601.317 318.058 603.851 323.213 604.514C324.319 604.657 324.771 604.3 325.768 603.982C327.405 603.459 329.091 604.086 330.683 604.49C334.719 605.514 339.411 604.399 342.558 607.913" stroke="#9E6B0B" stroke-width="2.45281" stroke-linecap="round"/>
<path d="M321.869 604.763C328.854 603.425 334.824 609.77 341.031 612.299C343.019 613.109 345.644 614.304 347.819 613.681C351.258 612.696 355.215 615.136 358.461 616.021" stroke="#9E6B0B" stroke-width="2.45281" stroke-linecap="round"/>
<path d="M313.024 597.045C310.142 596.69 307.628 595.883 305.23 594.351C303.712 593.381 302.332 591.57 300.574 591.091" stroke="#9E6B0B" stroke-width="2.45281" stroke-linecap="round"/>
<path d="M655.947 598.313C653.533 597.287 652.844 596.693 651.082 599.105C649.544 601.212 647.878 605.634 645.294 606.724C644.638 607.001 643.809 606.626 643.139 607.018C642.268 607.527 641.732 608.709 641.147 609.474C638.544 612.876 635.084 612.696 631.317 613.93C629.065 614.668 627.284 615.952 625.332 617.216" stroke="#9E6B0B" stroke-width="2.45281" stroke-linecap="round"/>
<path d="M443.652 654.289C440.283 654.54 437.261 655.167 433.844 654.834C432.609 654.714 431.229 654.347 429.978 654.441C429.176 654.501 428.569 655.024 427.802 655.148C425.36 655.544 422.993 654.037 420.636 653.614C419.017 653.323 417.474 653.008 415.829 653.099" stroke="#9E6B0B" stroke-width="2.45281" stroke-linecap="round"/>
<path d="M439.991 602.498C441.668 601.766 443.701 601.082 445.549 601.668C447.282 602.218 446.982 603.886 447.227 605.289C447.414 606.361 448.867 610.515 450.197 610.662C450.882 610.737 451.467 610.36 452.238 610.657C452.798 610.872 454.803 612.183 455.355 611.635C456.331 610.665 456.47 610.329 458.21 610.651C459.988 610.979 461.27 611.678 463.056 611.076C464.526 610.582 465.814 612.269 466.775 613.128" stroke="#9E6B0B" stroke-width="2.45281" stroke-linecap="round"/>
</g>
<path d="M191.851 553.909C204.808 546.783 224.44 523.077 199.31 485.261C185.465 464.426 173.133 459.572 163.965 462.253C163.096 456.017 159.583 449.256 151.937 442.326C121.873 415.079 69.9776 474.858 80.88 496.928C83.6276 502.49 86.6694 506.521 89.8135 509.449C84.4449 510.022 79.1915 512.401 74.8847 517.732C59.5641 536.696 94.3982 576.531 125.219 578.225C156.919 583.679 218.817 578.349 191.851 553.909Z" fill="#84B719"/>
<path d="M144.305 463.842C144.186 463.439 143.469 460.11 142.542 460.741C141.621 461.369 140.959 462.478 139.645 462.08C138.159 461.629 137.161 460.443 135.528 460.283C133.553 460.09 131.927 460.158 130.02 459.527" stroke="#A0C96C" stroke-width="1.10076" stroke-linecap="round"/>
<path d="M85.7102 480.373C83.5066 482.153 83.4043 484.918 84.5873 487.348C85.3968 489.011 87.243 493.171 85.3071 494.539C84.7698 494.918 85.0284 495.256 85.2019 495.77C85.4696 496.563 85.1147 497.856 85.6837 498.461C86.7182 499.56 87.0977 500.88 87.9691 502.083C88.9087 503.38 90.3978 504.11 91.6575 505.042" stroke="#A0C96C" stroke-width="1.10076" stroke-linecap="round"/>
<path d="M89.439 482.313C88.7663 483.205 87.2537 484.589 87.5205 485.882C87.6585 486.551 88.2274 486.962 88.3505 487.657C88.5555 488.815 88.5572 488.96 87.8229 489.833C87.3904 490.347 87.4523 490.879 86.9628 491.419C86.5046 491.925 86.7499 492.411 86.6585 493.03" stroke="#A0C96C" stroke-width="1.10076" stroke-linecap="round"/>
<path d="M197.034 539.83C197.348 538.054 197.95 535.88 196.655 534.37C196.071 533.689 195.294 533.191 194.728 532.496C194.17 531.811 193.884 530.81 193.509 530.016" stroke="#A0C96C" stroke-width="1.10076" stroke-linecap="round"/>
<path d="M180.897 472.546C180.23 470.738 179.454 467.792 177.181 467.58C174.345 467.316 171.5 467.236 168.661 466.924" stroke="#A0C96C" stroke-width="1.10076" stroke-linecap="round"/>
<path d="M112.779 564.209C112.62 562.597 112.05 560.386 110.817 562.651C110.61 563.031 110.123 563.724 110.221 564.19C110.274 564.438 110.942 564.651 110.945 564.714C110.96 564.993 110.38 564.756 110.115 564.846C109.206 565.155 108.136 565.767 107.54 566.536C106.089 568.409 110.254 567.73 110.863 567.646" stroke="#A0C96C" stroke-width="1.10076" stroke-linecap="round"/>
<path d="M118.559 562.68C117.976 563.298 117.421 563.738 116.755 564.23" stroke="#A0C96C" stroke-width="1.10076" stroke-linecap="round"/>
<path d="M116.323 559.857C115.602 560.41 114.978 561.004 114.321 561.625" stroke="#A0C96C" stroke-width="1.10076" stroke-linecap="round"/>
<path d="M148.758 450.324C148.15 448.264 145.757 447.422 144.159 446.156" stroke="#A0C96C" stroke-width="1.10076" stroke-linecap="round"/>
<path d="M183.957 554.558C194.829 542.688 211.188 513.251 189.653 490.458C168.118 467.665 176.883 523.694 183.957 554.558Z" fill="#B5D959"/>
<path d="M163.435 517.875C207.338 523.545 196.219 548.838 185.171 560.776C157.513 562.322 102.101 560.005 101.714 538.364C101.327 516.723 132.066 532.208 147.483 542.655C134.508 532.033 119.532 512.205 163.435 517.875Z" fill="#A0C96C"/>
<path d="M111.249 545.982C116.189 555.646 162.564 559.394 185.135 560.06C173.777 557.728 149.638 551.841 143.936 546.947C136.809 540.829 105.073 533.902 111.249 545.982Z" fill="#ADCD5B"/>
<path d="M150.616 456.443C144.651 446.147 126.76 431.752 102.919 456.547C98.3352 461.605 127.003 432.996 150.616 456.443Z" fill="#A0C96C"/>
<path d="M91.6444 558.922C90.3572 557.536 88.8889 555.83 87.3738 553.904C76.5844 537.517 83.412 511.398 76.8834 522.684C72.1002 530.953 80.2527 544.852 87.3738 553.904C88.5677 555.717 89.9772 557.411 91.6444 558.922Z" fill="#A0C96C"/>
<path d="M327.558 741.066C268.447 798.256 152.968 893.886 163.946 818.886C170.007 777.482 196.905 755.066 226.232 743.801C218.737 740.303 214.687 733.158 216.992 720.545C224.178 681.221 293.697 717.841 327.558 741.066Z" fill="#84B719"/>
<path d="M257.964 785.269C270.873 782.719 302.889 756.076 317.284 743.073C310.002 741.058 292.656 738.422 281.526 743.994C267.613 750.96 241.828 788.457 257.964 785.269Z" fill="#ADCD5B"/>
<path d="M225.237 743.88C241.926 736.221 289.823 721.396 289.914 732.809C290.034 747.885 251.666 744.158 225.237 743.88Z" fill="#A0C96C"/>
<path d="M246.799 795.897C224.285 810.277 178.478 836.124 175.361 824.465C171.464 809.891 190.587 736.551 246.799 795.897Z" fill="#A0C96C"/>
<path d="M230.464 805.688C210.714 822.353 171.454 851.228 172.404 833.41C173.593 811.138 180.289 803.597 230.464 805.688Z" fill="#ADCD5B"/>
<path d="M213.513 777.935C208.04 774.938 195.234 772.953 187.789 788.984C178.483 809.023 195.823 774.568 213.513 777.935Z" fill="#ADCD5B"/>
<defs>
<filter id="filter0_d" x="371.826" y="432.76" width="107.886" height="128.381" filterUnits="userSpaceOnUse" color-interpolation-filters="sRGB">
<feFlood flood-opacity="0" result="BackgroundImageFix"/>
<feColorMatrix in="SourceAlpha" type="matrix" values="0 0 0 0 0 0 0 0 0 0 0 0 0 0 0 0 0 0 127 0" result="hardAlpha"/>
<feOffset dx="1" dy="2"/>
<feGaussianBlur stdDeviation="2"/>
<feComposite in2="hardAlpha" operator="out"/>
<feColorMatrix type="matrix" values="0 0 0 0 0 0 0 0 0 0 0 0 0 0 0 0 0 0 0.8 0"/>
<feBlend mode="normal" in2="BackgroundImageFix" result="effect1_dropShadow"/>
<feBlend mode="normal" in="SourceGraphic" in2="effect1_dropShadow" result="shape"/>
</filter>
<filter id="filter1_d" x="425.339" y="461.601" width="107.886" height="128.381" filterUnits="userSpaceOnUse" color-interpolation-filters="sRGB">
<feFlood flood-opacity="0" result="BackgroundImageFix"/>
<feColorMatrix in="SourceAlpha" type="matrix" values="0 0 0 0 0 0 0 0 0 0 0 0 0 0 0 0 0 0 127 0" result="hardAlpha"/>
<feOffset dx="1" dy="2"/>
<feGaussianBlur stdDeviation="2"/>
<feComposite in2="hardAlpha" operator="out"/>
<feColorMatrix type="matrix" values="0 0 0 0 0 0 0 0 0 0 0 0 0 0 0 0 0 0 0.8 0"/>
<feBlend mode="normal" in2="BackgroundImageFix" result="effect1_dropShadow"/>
<feBlend mode="normal" in="SourceGraphic" in2="effect1_dropShadow" result="shape"/>
</filter>
<filter id="filter2_d" x="340.852" y="478.018" width="107.886" height="128.381" filterUnits="userSpaceOnUse" color-interpolation-filters="sRGB">
<feFlood flood-opacity="0" result="BackgroundImageFix"/>
<feColorMatrix in="SourceAlpha" type="matrix" values="0 0 0 0 0 0 0 0 0 0 0 0 0 0 0 0 0 0 127 0" result="hardAlpha"/>
<feOffset dx="1" dy="2"/>
<feGaussianBlur stdDeviation="2"/>
<feComposite in2="hardAlpha" operator="out"/>
<feColorMatrix type="matrix" values="0 0 0 0 0 0 0 0 0 0 0 0 0 0 0 0 0 0 0.8 0"/>
<feBlend mode="normal" in2="BackgroundImageFix" result="effect1_dropShadow"/>
<feBlend mode="normal" in="SourceGraphic" in2="effect1_dropShadow" result="shape"/>
</filter>
</defs>
</svg>
