<svg 
                width="421" 
                height="567" 
                viewBox="0 0 421 567" 
                fill="none" >
            <path 
                fill-rule="evenodd" 
                clip-rule="evenodd" 
                d="M730.483 344.111C697.844 407.242 603.018 427.172 533.341 413.175C465.356 399.518 445.05 307.334 383.972 274.502C334.58 247.953 269.647 274.731 221.698 245.658C161.32 209.051 95.8343 161.06 82.5077 91.7202C69.0789 21.848 110.745 -48.4656 154.366 -104.676C194.557 -156.466 260.983 -173.917 316.143 -209.341C377.649 -248.841 425.155 -336.81 497.275 -324.893C570.934 -312.722 592.492 -215.679 637.638 -156.217C670.337 -113.151 716.769 -77.2733 725.765 -23.9536C734.296 26.6096 683.747 69.7042 684.404 120.978C685.397 198.488 766.082 275.252 730.483 344.111Z" 
                fill="#1AC74A"/>
            </svg>