<svg 
    width="497" 
                height="547" 
                viewBox="0 0 497 547" 
                fill="none" 
                xmlns="http://www.w3.org/2000/svg">
            <path 
                opacity="0.6" 
                fill-rule="evenodd" 
                clip-rule="evenodd" 
                d="M730.22 323.622C697.582 386.754 602.755 406.684 533.078 392.687C465.093 379.029 444.788 286.845 383.709 254.014C334.317 227.464 269.385 254.242 221.435 225.17C161.058 188.562 95.5716 140.571 82.245 71.2317C68.8162 1.35952 110.482 -68.9541 154.104 -125.165C194.294 -176.954 260.72 -194.406 315.88 -229.83C377.386 -269.33 424.892 -357.299 497.012 -345.382C570.672 -333.21 592.229 -236.167 637.375 -176.706C670.074 -133.639 716.507 -97.7618 725.502 -44.4421C734.033 6.12111 683.484 49.2156 684.141 100.489C685.135 178 765.819 254.763 730.22 323.622Z" 
                fill="#1AC74A"/>
                </svg>