<svg width="190" height="173" viewBox="0 0 190 173" fill="none" xmlns="http://www.w3.org/2000/svg">
<g filter="url(#filter0_d)">
<path d="M37.7187 78.9928C39.6651 114.011 65.4305 122.74 86.8233 121.551C108.216 120.362 132.97 105.604 131.202 73.7968C129.288 39.3571 106.503 4.91623 80.4211 6.36589C54.3395 7.81555 35.7723 43.9743 37.7187 78.9928Z" fill="#FAFAFA"/>
</g>
<g filter="url(#filter1_d)">
<path d="M91.2319 107.834C93.1782 142.853 118.944 151.581 140.336 150.392C161.729 149.203 186.483 134.445 184.715 102.638C182.801 68.1983 160.016 33.7574 133.934 35.2071C107.853 36.6567 89.2855 72.8155 91.2319 107.834Z" fill="#FAFAFA"/>
</g>
<g filter="url(#filter2_d)">
<path d="M6.74431 124.251C8.6907 159.27 34.4561 167.999 55.8489 166.81C77.2416 165.62 101.996 150.863 100.228 119.056C98.3135 84.6158 75.5283 50.1749 49.4467 51.6246C23.3651 53.0742 4.79792 89.2329 6.74431 124.251Z" fill="#FAFAFA"/>
</g>
<defs>
<filter id="filter0_d" x="34.5789" y="4.32166" width="101.713" height="123.333" filterUnits="userSpaceOnUse" color-interpolation-filters="sRGB">
<feFlood flood-opacity="0" result="BackgroundImageFix"/>
<feColorMatrix in="SourceAlpha" type="matrix" values="0 0 0 0 0 0 0 0 0 0 0 0 0 0 0 0 0 0 127 0" result="hardAlpha"/>
<feOffset dx="1" dy="2"/>
<feGaussianBlur stdDeviation="2"/>
<feComposite in2="hardAlpha" operator="out"/>
<feColorMatrix type="matrix" values="0 0 0 0 0 0 0 0 0 0 0 0 0 0 0 0 0 0 0.8 0"/>
<feBlend mode="normal" in2="BackgroundImageFix" result="effect1_dropShadow"/>
<feBlend mode="normal" in="SourceGraphic" in2="effect1_dropShadow" result="shape"/>
</filter>
<filter id="filter1_d" x="88.092" y="33.1628" width="101.713" height="123.333" filterUnits="userSpaceOnUse" color-interpolation-filters="sRGB">
<feFlood flood-opacity="0" result="BackgroundImageFix"/>
<feColorMatrix in="SourceAlpha" type="matrix" values="0 0 0 0 0 0 0 0 0 0 0 0 0 0 0 0 0 0 127 0" result="hardAlpha"/>
<feOffset dx="1" dy="2"/>
<feGaussianBlur stdDeviation="2"/>
<feComposite in2="hardAlpha" operator="out"/>
<feColorMatrix type="matrix" values="0 0 0 0 0 0 0 0 0 0 0 0 0 0 0 0 0 0 0.8 0"/>
<feBlend mode="normal" in2="BackgroundImageFix" result="effect1_dropShadow"/>
<feBlend mode="normal" in="SourceGraphic" in2="effect1_dropShadow" result="shape"/>
</filter>
<filter id="filter2_d" x="3.60449" y="49.5803" width="101.713" height="123.333" filterUnits="userSpaceOnUse" color-interpolation-filters="sRGB">
<feFlood flood-opacity="0" result="BackgroundImageFix"/>
<feColorMatrix in="SourceAlpha" type="matrix" values="0 0 0 0 0 0 0 0 0 0 0 0 0 0 0 0 0 0 127 0" result="hardAlpha"/>
<feOffset dx="1" dy="2"/>
<feGaussianBlur stdDeviation="2"/>
<feComposite in2="hardAlpha" operator="out"/>
<feColorMatrix type="matrix" values="0 0 0 0 0 0 0 0 0 0 0 0 0 0 0 0 0 0 0.8 0"/>
<feBlend mode="normal" in2="BackgroundImageFix" result="effect1_dropShadow"/>
<feBlend mode="normal" in="SourceGraphic" in2="effect1_dropShadow" result="shape"/>
</filter>
</defs>
</svg>
