<svg width="32" height="32" viewBox="0 0 32 32" fill="none" xmlns="http://www.w3.org/2000/svg">
<g opacity="0.5">
<path d="M21.3335 10.6666C23.4552 10.6666 25.4901 11.5095 26.9904 13.0098C28.4906 14.5101 29.3335 16.5449 29.3335 18.6666V28H24.0002V18.6666C24.0002 17.9594 23.7192 17.2811 23.2191 16.781C22.719 16.2809 22.0407 16 21.3335 16C20.6263 16 19.948 16.2809 19.4479 16.781C18.9478 17.2811 18.6668 17.9594 18.6668 18.6666V28H13.3335V18.6666C13.3335 16.5449 14.1764 14.5101 15.6766 13.0098C17.1769 11.5095 19.2118 10.6666 21.3335 10.6666V10.6666Z" stroke="#303030" stroke-width="2" stroke-linecap="round" stroke-linejoin="round"/>
<path d="M8.00008 12H2.66675V28H8.00008V12Z" stroke="#303030" stroke-width="2" stroke-linecap="round" stroke-linejoin="round"/>
<path d="M5.33341 8.00008C6.80617 8.00008 8.00008 6.80617 8.00008 5.33341C8.00008 3.86066 6.80617 2.66675 5.33341 2.66675C3.86066 2.66675 2.66675 3.86066 2.66675 5.33341C2.66675 6.80617 3.86066 8.00008 5.33341 8.00008Z" stroke="#303030" stroke-width="2" stroke-linecap="round" stroke-linejoin="round"/>
</g>
</svg>
