<svg width="52" height="50" viewBox="0 0 52 50" fill="none" xmlns="http://www.w3.org/2000/svg">
<path fill-rule="evenodd" clip-rule="evenodd" d="M29.7143 13.8614V21.2121L22.2857 13.8614H15.8476V10.0767L12.3852 6.54848C12.3824 6.47038 12.381 6.39193 12.381 6.31313C12.381 2.82649 15.1525 0 18.5714 0C21.9903 0 24.7619 2.82649 24.7619 6.31313V12.3798L27.2381 14.902V6.31313C27.2381 2.82649 30.0097 0 33.4286 0C36.8475 0 39.619 2.82649 39.619 6.31313C39.619 6.39193 39.6176 6.47038 39.6148 6.54848L36.1524 10.0767V13.8614H29.7143ZM46.5762 21.2121L48.4576 19.292C50.5517 20.3041 52 22.4796 52 25C52 27.5204 50.5517 29.6959 48.4576 30.708L46.5762 28.7879H38.6286V21.2121H46.5762ZM38.6286 31.3131H45.0381C46.9721 32.3809 48.2857 34.4683 48.2857 36.8687C48.2857 40.108 45.8934 42.7775 42.8123 43.1399L38.6286 38.8767V31.3131ZM36.1524 39.9233L39.6148 43.4515C39.6176 43.5296 39.619 43.6081 39.619 43.6869C39.619 47.1735 36.8475 50 33.4286 50C30.0097 50 27.2381 47.1735 27.2381 43.6869V37.6353L24.7619 35.1101V43.6869C24.7619 47.1735 21.9903 50 18.5714 50C15.1525 50 12.381 47.1735 12.381 43.6869C12.381 43.6081 12.3824 43.5296 12.3852 43.4515L15.8476 39.9233V36.1386H22.2857V28.7879L29.7143 36.1386H36.1524V39.9233ZM38.6286 18.6869V11.1233L42.8123 6.86008C45.8934 7.22252 48.2857 9.892 48.2857 13.1313C48.2857 15.5317 46.9721 17.6191 45.0381 18.6869H38.6286ZM5.42378 28.7879L3.54244 30.708C1.44828 29.6959 0 27.5204 0 25C0 22.4796 1.44828 20.3041 3.54244 19.292L5.42378 21.2121H13.3714V28.7879H5.42378ZM6.96194 18.6869C5.02788 17.6191 3.71429 15.5317 3.71429 13.1313C3.71429 9.892 6.10658 7.22252 9.1877 6.86008L13.3714 11.1233V18.6869H6.96194ZM13.3714 31.3131V38.8767L9.1877 43.1399C6.10658 42.7775 3.71429 40.108 3.71429 36.8687C3.71429 34.4683 5.02788 32.3809 6.96194 31.3131H13.3714Z" fill="#00DCF0"/>
</svg>
