<svg width="105" height="26" viewBox="0 0 105 26" fill="none" xmlns="http://www.w3.org/2000/svg">
<path d="M103.95 21.9335L100.731 23.4782V22.5357L102.868 21.5407L100.731 20.5373V19.5948L103.95 21.1395V21.9335ZM95.8572 24.9728L98.7981 17.1369H99.644L96.7034 24.9728H95.8572ZM94.1895 19.2662H95.1496L92.9681 24.6414C92.8518 24.9323 92.6991 25.1505 92.5105 25.2958C92.3211 25.4411 92.0489 25.514 91.6942 25.514H90.9348V24.7373H91.9996L92.4096 23.7077L90.5945 19.2662H91.5895L92.3053 21.1508L92.8638 22.6955H92.9159L93.4744 21.1508L94.1895 19.2662ZM84.7842 23.7687V19.2662H85.5956V19.8508H85.6393C85.7091 19.6586 85.8092 19.4957 85.9404 19.3625C86.0712 19.2285 86.2588 19.1615 86.5035 19.1615C86.7411 19.1615 86.9262 19.2267 87.0574 19.3579C87.1882 19.4887 87.2707 19.6678 87.3056 19.8945H87.3409C87.4223 19.6907 87.5355 19.5176 87.6811 19.3755C87.8264 19.2327 88.0358 19.1615 88.3094 19.1615C88.6585 19.1615 88.901 19.2835 89.0378 19.5282C89.1747 19.7722 89.2431 20.13 89.2431 20.6011V23.7687H88.4314V20.7234C88.4314 20.4093 88.3937 20.1928 88.3182 20.0733C88.2421 19.9541 88.1204 19.8945 87.9519 19.8945C87.8003 19.8945 87.6737 19.9453 87.5718 20.0472C87.4703 20.1487 87.4191 20.3018 87.4191 20.5052V23.7687H86.6075V20.7234C86.6075 20.4093 86.5715 20.1928 86.4989 20.0733C86.4259 19.9541 86.3053 19.8945 86.1364 19.8945C85.9795 19.8945 85.8501 19.9453 85.7482 20.0472C85.6463 20.1487 85.5956 20.3018 85.5956 20.5052V23.7687H84.7842ZM81.0853 19.8857C80.9164 19.8857 80.7609 19.9146 80.6184 19.9731C80.476 20.0313 80.3537 20.1142 80.2521 20.2217C80.1502 20.3296 80.0698 20.4562 80.0116 20.6011C79.9538 20.7467 79.9246 20.9064 79.9246 21.081V21.1423H82.1846V21.0552C82.1846 20.6998 82.0841 20.4167 81.8835 20.2041C81.6833 19.9922 81.4171 19.8857 81.0853 19.8857ZM81.1551 23.8735C80.812 23.8735 80.5035 23.8181 80.2302 23.7077C79.9566 23.597 79.7268 23.4401 79.5406 23.2363C79.3544 23.0329 79.212 22.7868 79.1133 22.4991C79.0142 22.2114 78.9652 21.887 78.9652 21.5259C78.9652 21.1656 79.0156 20.8394 79.1175 20.5486C79.219 20.2584 79.3622 20.0091 79.5448 19.8028C79.7285 19.5962 79.951 19.4376 80.213 19.3269C80.4746 19.2168 80.7655 19.1615 81.0853 19.1615C81.3994 19.1615 81.6847 19.2154 81.9403 19.323C82.1963 19.4305 82.4145 19.5832 82.595 19.781C82.7749 19.9791 82.9134 20.2143 83.0093 20.4876C83.1052 20.7615 83.1535 21.0637 83.1535 21.3955V21.753H79.9246V21.9004C79.9246 22.253 80.0353 22.5407 80.2563 22.7632C80.4774 22.9856 80.7827 23.0967 81.1724 23.0967C81.4636 23.0967 81.7122 23.035 81.9184 22.9105C82.125 22.7861 82.2925 22.62 82.4202 22.412L83.0136 22.937C82.8623 23.1997 82.631 23.4214 82.32 23.6023C82.009 23.7828 81.6201 23.8735 81.1551 23.8735ZM75.1985 23.0967C75.3381 23.0967 75.4693 23.0794 75.5913 23.0445C75.7136 23.0096 75.8212 22.9574 75.9139 22.8873C76.0073 22.8178 76.0814 22.7318 76.1367 22.6302C76.1917 22.5283 76.2196 22.4074 76.2196 22.2678V20.7668C76.2196 20.6272 76.1917 20.5066 76.1367 20.4051C76.0814 20.3032 76.0073 20.2171 75.9139 20.1477C75.8212 20.0775 75.7136 20.0253 75.5913 19.9904C75.4693 19.9555 75.3381 19.9379 75.1985 19.9379C74.8381 19.9379 74.5603 20.0486 74.3653 20.2697C74.1703 20.4907 74.073 20.7844 74.073 21.1508V21.8838C74.073 22.2501 74.1703 22.5442 74.3653 22.7653C74.5603 22.9863 74.8381 23.0967 75.1985 23.0967ZM76.2196 23.0008H76.167C76.0334 23.2744 75.8557 23.4881 75.6346 23.6422C75.4139 23.7962 75.1375 23.8735 74.8061 23.8735C74.2768 23.8735 73.8551 23.6757 73.5406 23.2801C73.2265 22.8845 73.0696 22.297 73.0696 21.5175C73.0696 20.7379 73.2265 20.1505 73.5406 19.7549C73.8551 19.3593 74.2768 19.1615 74.8061 19.1615C75.1375 19.1615 75.4139 19.2384 75.6346 19.3924C75.8557 19.5469 76.0334 19.7605 76.167 20.0341H76.2196V17.3115H77.1709V23.7687H76.2196V23.0008ZM69.1188 23.1753C69.427 23.1753 69.6802 23.1062 69.8776 22.9673C70.0758 22.8284 70.1745 22.6493 70.1745 22.4296V21.7794H69.3279C68.6414 21.7794 68.2984 21.9847 68.2984 22.3951V22.5685C68.2984 22.7709 68.371 22.9225 68.5166 23.0234C68.6619 23.1249 68.8625 23.1753 69.1188 23.1753ZM71.1081 23.7687C70.8345 23.7687 70.6297 23.6986 70.4929 23.5593C70.3564 23.4197 70.2732 23.2363 70.2443 23.0096H70.2006C70.1131 23.2832 69.9548 23.4955 69.7253 23.6467C69.4951 23.7976 69.2028 23.8735 68.8481 23.8735C68.3886 23.8735 68.0223 23.7529 67.7487 23.5113C67.4751 23.2702 67.3386 22.937 67.3386 22.5125C67.3386 22.076 67.4998 21.7428 67.8227 21.5129C68.1457 21.2834 68.6414 21.1688 69.3106 21.1688H70.1745V20.8194C70.1745 20.2083 69.8515 19.903 69.2059 19.903C68.915 19.903 68.6792 19.9601 68.499 20.0733C68.3185 20.1868 68.1679 20.3367 68.0452 20.5225L67.4783 20.0602C67.6062 19.8159 67.821 19.605 68.1238 19.4277C68.426 19.2503 68.8163 19.1615 69.293 19.1615C69.8632 19.1615 70.3113 19.2979 70.6371 19.5715C70.9625 19.8452 71.1254 20.2404 71.1254 20.7584V23.0184H71.6927V23.7687H71.1081ZM63.8509 23.8735C63.5131 23.8735 63.2123 23.8181 62.9475 23.7077C62.6827 23.597 62.4588 23.4401 62.2759 23.2363C62.0922 23.0329 61.9529 22.7857 61.857 22.4945C61.7607 22.204 61.7128 21.8782 61.7128 21.5175C61.7128 21.1568 61.7607 20.831 61.857 20.5401C61.9529 20.2492 62.0922 20.0021 62.2759 19.7983C62.4588 19.5948 62.6827 19.4376 62.9475 19.3269C63.2123 19.2168 63.5106 19.1615 63.842 19.1615C64.3075 19.1615 64.6812 19.2592 64.9633 19.4548C65.2457 19.6502 65.4565 19.9047 65.5962 20.2171L64.8543 20.6187C64.7729 20.4093 64.6491 20.2432 64.483 20.1212C64.3177 19.9992 64.1037 19.9379 63.842 19.9379C63.4813 19.9379 63.2021 20.0479 63.0043 20.2672C62.8068 20.4865 62.7074 20.7777 62.7074 21.1402V21.8947C62.7074 22.2516 62.8068 22.5414 63.0043 22.7635C63.2021 22.986 63.487 23.0967 63.8593 23.0967C64.1386 23.0967 64.3667 23.0329 64.5444 22.9049C64.7217 22.7769 64.8631 22.6024 64.9675 22.3813L65.6656 22.809C65.5203 23.1217 65.2993 23.377 65.0024 23.5759C64.7059 23.7744 64.3219 23.8735 63.8509 23.8735ZM50.7417 21.1395L53.9612 19.5948V20.5373L51.8234 21.5323L53.9612 22.5357V23.4782L50.7417 21.9335V21.1395ZM57.7046 23.1753C58.0127 23.1753 58.2659 23.1062 58.4633 22.9673C58.6615 22.8284 58.7602 22.6493 58.7602 22.4296V21.7794H57.9137C57.2272 21.7794 56.8841 21.9847 56.8841 22.3951V22.5685C56.8841 22.7709 56.9567 22.9225 57.1024 23.0234C57.2476 23.1249 57.4482 23.1753 57.7046 23.1753ZM59.6935 23.7687C59.4203 23.7687 59.2154 23.6986 59.0786 23.5593C58.9421 23.4197 58.8589 23.2363 58.8297 23.0096H58.7863C58.6989 23.2832 58.5406 23.4955 58.311 23.6467C58.0808 23.7976 57.7885 23.8735 57.4338 23.8735C56.9744 23.8735 56.608 23.7529 56.3344 23.5113C56.0608 23.2702 55.9244 22.937 55.9244 22.5125C55.9244 22.076 56.0855 21.7428 56.4085 21.5129C56.7311 21.2834 57.2272 21.1688 57.8964 21.1688H58.7602V20.8194C58.7602 20.2083 58.4372 19.903 57.7917 19.903C57.5008 19.903 57.2649 19.9601 57.0847 20.0733C56.9042 20.1868 56.7536 20.3367 56.6309 20.5225L56.064 20.0602C56.192 19.8159 56.4067 19.605 56.7096 19.4277C57.0117 19.2503 57.4017 19.1615 57.8787 19.1615C58.4489 19.1615 58.897 19.2979 59.2228 19.5715C59.5482 19.8452 59.7111 20.2404 59.7111 20.7584V23.0184H60.2785V23.7687H59.6935Z" fill="#1AC74A"/>
<path d="M96.7506 8.12711C96.898 6.78657 97.778 6.07435 99.1524 6.03874C100.53 6.07435 101.369 6.74321 101.464 8.12711H96.7506ZM104.022 9.11999C104.022 8.77587 103.999 8.44408 103.951 8.12711C103.579 5.54759 101.726 3.92922 99.1002 3.92922C96.1537 3.92922 94.1806 5.96928 94.1806 9.11999C94.1806 12.2703 96.1537 14.3108 99.1002 14.3108C101.193 14.3108 102.905 13.3362 103.657 11.6131L101.426 10.8029C101.071 11.6805 100.315 12.0898 99.1524 12.0898C97.7382 12.0542 96.91 11.262 96.7724 9.87347H103.982C104.01 9.63018 104.022 9.37808 104.022 9.11999ZM92.6602 8.03191V14.0079H90.1269V6.46219H85.9865V14.0068H83.4528V4.23068H88.859C90.9583 4.23068 92.6602 5.93261 92.6602 8.03191ZM76.7452 11.8804C74.9643 11.8398 74.1301 10.9379 74.1301 9.06957C74.1301 7.2132 74.9548 6.28978 76.7452 6.24853C78.5356 6.28978 79.3603 7.2132 79.3603 9.06957C79.3603 10.9379 78.5261 11.8398 76.7452 11.8804ZM76.7441 3.92922C73.6354 3.92922 71.5555 5.96928 71.5555 9.11999C71.5555 12.2703 73.6354 14.3108 76.7441 14.3108C79.8525 14.3108 81.9328 12.2703 81.9328 9.11999C81.9328 5.96928 79.8525 3.92922 76.7441 3.92922ZM68.3226 10.7782L70.711 11.647C69.9029 13.3179 68.2345 14.3108 66.0664 14.3108C62.9577 14.3108 60.8778 12.2703 60.8778 9.11999C60.8778 5.96928 62.9577 3.92922 66.0664 3.92922C68.2345 3.92922 69.9029 4.9221 70.711 6.59265L68.3667 7.44485C67.9764 6.67057 67.225 6.27603 66.0682 6.24853C64.2781 6.29084 63.4531 7.21426 63.4531 9.06957C63.4531 10.9376 64.2866 11.8402 66.0682 11.88C67.1767 11.855 67.9179 11.4961 68.3226 10.7782ZM52.3395 8.12711C52.4869 6.78657 53.367 6.07435 54.7414 6.03874C56.1186 6.07435 56.9581 6.74321 57.0533 8.12711H52.3395ZM59.6109 9.11999C59.6109 8.77587 59.588 8.44408 59.5397 8.12711C59.1681 5.54759 57.3149 3.92922 54.6892 3.92922C51.7423 3.92922 49.7692 5.96928 49.7692 9.11999C49.7692 12.2703 51.7423 14.3108 54.6892 14.3108C56.7818 14.3108 58.4943 13.3362 59.2456 11.6131L57.0145 10.8029C56.6598 11.6805 55.9038 12.0898 54.7414 12.0898C53.3271 12.0542 52.4989 11.262 52.3614 9.87347H59.5714C59.5986 9.63018 59.6109 9.37808 59.6109 9.11999ZM48.2492 8.03473V14.0107H45.7159V6.46502H41.5754V14.0093H39.0417V4.2335H44.448C46.5473 4.2335 48.2492 5.93508 48.2492 8.03473ZM34.2279 1.51999C34.2279 0.680487 34.9084 -5.01159e-06 35.7479 -5.01159e-06C36.5874 -5.01159e-06 37.2679 0.680487 37.2679 1.51999C37.2679 2.3595 36.5874 3.03999 35.7479 3.03999C34.9084 3.03999 34.2279 2.3595 34.2279 1.51999ZM34.4814 4.2335H37.0151V14.0107H34.4814V4.2335ZM30.4277 9.75323C30.4277 10.8716 29.5212 11.7781 28.4028 11.7781H25.3667V6.46502H28.4028C29.5212 6.46502 30.4277 7.37151 30.4277 8.48957V9.75323ZM32.9455 8.61368C32.8338 6.20163 30.8632 4.2744 28.4317 4.23385L22.833 4.23209V17.2274H25.3667V14.0093H28.4317C30.8649 13.9684 32.8366 12.0387 32.9459 9.62454C32.9491 9.55402 32.961 9.35164 32.961 9.12069C32.961 8.90703 32.9491 8.68525 32.9455 8.61368Z" fill="black"/>
<path d="M17.3109 7.33033L14.9225 2.8539C14.4821 2.02708 13.6211 1.51054 12.6843 1.51054H10.1471V2.7788H10.1481C10.616 2.7788 11.0462 3.03654 11.2665 3.45012L13.6543 7.92726C13.8538 8.3003 13.9532 8.71035 13.9532 9.12112C13.9532 9.53188 13.8538 9.94158 13.6543 10.315L11.2665 14.7921C11.0462 15.2057 10.616 15.4634 10.1481 15.4634H10.1471V16.7317H12.6843C13.6211 16.7317 14.4821 16.2152 14.9225 15.3883L17.3109 10.9119C17.6089 10.3516 17.7584 9.73673 17.7584 9.12112C17.7584 8.5055 17.6089 7.89059 17.3109 7.33033ZM5.07407 1.51054H7.61128V2.7788H7.61022C7.14234 2.7788 6.71183 3.03654 6.49146 3.45012L4.1041 7.92726C3.90454 8.3003 3.80511 8.71035 3.80511 9.12112C3.80511 9.53188 3.90454 9.94158 4.1041 10.315L6.49146 14.7921C6.71183 15.2057 7.14234 15.4634 7.61022 15.4634H7.61128V16.7317H5.07407C4.13725 16.7317 3.27623 16.2152 2.83585 15.3883L0.447432 10.9119C0.149497 10.3516 0 9.73673 0 9.12112C0 8.5055 0.149497 7.89059 0.447432 7.33033L2.83585 2.8539C3.27623 2.02708 4.13725 1.51054 5.07407 1.51054Z" fill="black"/>
</svg>
