<svg width="270" height="438" viewBox="0 0 270 438" fill="none" xmlns="http://www.w3.org/2000/svg">
<rect width="26.5425" height="57.2323" rx="13.2713" transform="matrix(-0.998459 0.055496 0.055496 0.998459 175.516 372.086)" fill="#FFAE11"/>
<path d="M182.119 429.039C185.715 428.84 188.468 425.763 188.268 422.167C188.102 419.179 185.924 416.688 182.985 416.124L164.208 412.524C157.519 411.241 151.406 416.586 151.784 423.386C152.008 427.427 155.466 430.521 159.507 430.296L182.119 429.039Z" fill="#FFAE11"/>
<rect x="111.18" y="375.662" width="26.5425" height="57.2323" rx="13.2713" transform="rotate(-3.18132 111.18 375.662)" fill="#FFAE11"/>
<path d="M110.929 432.996C107.333 433.196 104.256 430.443 104.056 426.847C103.89 423.859 105.779 421.142 108.637 420.257L126.9 414.597C133.405 412.581 140.073 417.216 140.451 424.016C140.676 428.057 137.582 431.515 133.541 431.739L110.929 432.996Z" fill="#FFAE11"/>
<path d="M238.461 270.561L37.9684 281.704L39.7155 313.138C42.7928 368.503 90.1692 410.89 145.534 407.813C200.898 404.735 243.285 357.359 240.208 301.994L238.461 270.561Z" fill="#00DCF0"/>
<path d="M235.011 208.48C231.933 153.116 184.557 110.729 129.192 113.806C73.828 116.883 31.4408 164.26 34.518 219.624L38.6184 293.397C39.5328 309.848 53.6105 322.443 70.0618 321.529L210.979 313.696C227.43 312.782 240.025 298.704 239.111 282.253L235.011 208.48Z" fill="#00DCF0"/>
<path d="M74.8311 171.069C75.9585 170.865 76.7073 169.786 76.5036 168.659C76.2998 167.532 75.2207 166.783 74.0933 166.986C72.9659 167.19 72.2172 168.269 72.4209 169.397C72.6246 170.524 73.7037 171.273 74.8311 171.069Z" fill="#00B4C5"/>
<path d="M87.215 171.367C88.5679 171.123 89.4665 169.828 89.222 168.475C88.9775 167.122 87.6826 166.224 86.3297 166.468C84.9769 166.713 84.0783 168.008 84.3228 169.36C84.5672 170.713 85.8621 171.612 87.215 171.367Z" fill="#00B4C5"/>
<path d="M99.3729 175.079C100.951 174.794 102 173.283 101.714 171.705C101.429 170.126 99.9184 169.078 98.3401 169.363C96.7617 169.649 95.7134 171.159 95.9986 172.738C96.2838 174.316 97.7945 175.364 99.3729 175.079Z" fill="#00B4C5"/>
<path d="M110.635 183.169C112.439 182.843 113.637 181.116 113.311 179.313C112.985 177.509 111.259 176.311 109.455 176.637C107.651 176.963 106.453 178.689 106.779 180.493C107.105 182.297 108.831 183.495 110.635 183.169Z" fill="#00B4C5"/>
<path d="M62.3685 175.001C63.2705 174.838 63.8695 173.975 63.7065 173.073C63.5435 172.171 62.6803 171.572 61.7783 171.735C60.8764 171.898 60.2774 172.761 60.4404 173.663C60.6033 174.565 61.4666 175.164 62.3685 175.001Z" fill="#00B4C5"/>
<path d="M52.0159 183.611C52.4669 183.53 52.7664 183.098 52.6849 182.647C52.6034 182.196 52.1718 181.897 51.7208 181.978C51.2699 182.06 50.9704 182.491 51.0518 182.942C51.1333 183.393 51.565 183.693 52.0159 183.611Z" fill="#00B4C5"/>
<path d="M189.752 164.682C188.609 164.604 187.745 163.615 187.822 162.472C187.9 161.329 188.889 160.465 190.032 160.542C191.175 160.62 192.039 161.609 191.962 162.752C191.884 163.895 190.895 164.759 189.752 164.682Z" fill="#00B4C5"/>
<path d="M177.477 166.351C176.106 166.258 175.069 165.07 175.162 163.699C175.255 162.327 176.443 161.291 177.814 161.384C179.186 161.477 180.222 162.664 180.129 164.036C180.036 165.407 178.849 166.444 177.477 166.351Z" fill="#00B4C5"/>
<path d="M165.805 171.387C164.205 171.279 162.996 169.893 163.104 168.293C163.213 166.693 164.598 165.484 166.198 165.592C167.799 165.701 169.008 167.086 168.899 168.686C168.791 170.286 167.406 171.496 165.805 171.387Z" fill="#00B4C5"/>
<path d="M155.509 180.675C153.68 180.551 152.298 178.968 152.422 177.139C152.546 175.31 154.129 173.928 155.958 174.052C157.787 174.176 159.169 175.759 159.045 177.588C158.921 179.417 157.338 180.799 155.509 180.675Z" fill="#00B4C5"/>
<path d="M202.573 167.208C201.659 167.146 200.968 166.355 201.03 165.44C201.092 164.526 201.883 163.835 202.798 163.897C203.712 163.959 204.403 164.75 204.341 165.665C204.279 166.579 203.488 167.27 202.573 167.208Z" fill="#00B4C5"/>
<path d="M213.816 174.618C213.359 174.587 213.013 174.191 213.044 173.734C213.075 173.277 213.471 172.931 213.928 172.962C214.385 172.993 214.731 173.389 214.7 173.846C214.669 174.304 214.273 174.649 213.816 174.618Z" fill="#00B4C5"/>
<path d="M164.99 117.341L164.492 117.638C163.967 117.952 163.338 118.045 162.744 117.895C161.508 117.584 160.758 116.329 161.069 115.093L169.007 83.5769C170.154 79.0263 176.677 79.1969 177.584 83.8012L178.301 87.4423C180.62 99.2191 175.293 111.184 164.99 117.341Z" fill="#00DCF0"/>
<path d="M159.683 86.3497L156.677 118.444C156.449 120.884 154.47 122.789 152.023 122.925C149.496 123.066 147.271 121.279 146.862 118.782L140.608 80.5746C140.224 78.2323 139.623 75.9308 138.812 73.7001L137.295 69.5253C133.752 59.7777 146.898 52.8598 152.926 61.2994C158.117 68.5658 160.515 77.4589 159.683 86.3497Z" fill="#00DCF0"/>
<path d="M141.646 113.694L143.525 114.958C144.868 115.861 144.292 117.953 142.677 118.043C142.435 118.056 142.194 118.018 141.968 117.93L130.771 113.551C126.099 111.724 123.325 106.894 124.102 101.938L125.283 94.4093C125.749 91.4423 130.055 91.546 130.377 94.532L130.441 95.1261C131.254 102.665 135.355 109.461 141.646 113.694Z" fill="#00DCF0"/>
<path d="M48.1749 274.824C30.8132 275.789 18.3748 292.088 22.1245 309.067L37.5525 378.93C38.4295 382.901 42.0555 385.652 46.1164 385.426C59.5212 384.681 70.4107 374.331 71.8352 360.981L77.7204 305.823C79.5566 288.614 65.4552 273.864 48.1749 274.824Z" fill="#00DCF0"/>
<path d="M227.383 264.864C244.745 263.899 258.913 278.719 257.068 296.009L249.477 367.151C249.046 371.195 245.747 374.331 241.686 374.557C228.281 375.302 216.312 366.222 213.416 353.112L201.455 298.946C197.723 282.047 210.103 265.824 227.383 264.864Z" fill="#00DCF0"/>
<path fill-rule="evenodd" clip-rule="evenodd" d="M116.446 209.45C113.347 214.104 109.196 218.039 103.846 219.666C99.4788 220.995 95.1667 222.555 90.9289 224.346C84.8932 226.898 81.9457 233.757 84.2487 239.892L87.3142 248.057C92.6423 262.25 103.669 273.564 117.72 279.256C131.11 284.68 146.223 283.84 158.93 276.965C172.264 269.752 181.969 257.285 185.691 242.589L187.833 234.134C189.442 227.782 185.753 221.292 179.471 219.425C175.061 218.114 170.603 217.041 166.115 216.205C160.618 215.181 156.056 211.73 152.461 207.448C151.477 206.276 150.427 207.066 150.615 208.584C150.955 211.327 147.388 212.685 145.818 210.41L138.104 199.233C138.047 199.149 137.987 199.071 137.924 198.998C136.442 197.279 131.239 197.568 129.957 199.441C129.902 199.521 129.851 199.605 129.803 199.694L123.376 211.657C122.068 214.092 118.372 213.138 118.406 210.374C118.425 208.844 117.294 208.176 116.446 209.45Z" fill="#303030"/>
<path fill-rule="evenodd" clip-rule="evenodd" d="M160.572 234.292L149.619 252.832C145.385 260 136.085 262.42 128.848 258.237C127.08 257.215 125.539 255.85 124.319 254.222L111.424 237.023L160.572 234.292Z" fill="#DE9300"/>
<path fill-rule="evenodd" clip-rule="evenodd" d="M142.735 218.417L160.224 233.454C160.799 233.949 160.86 234.812 160.359 235.381C160.304 235.444 160.244 235.502 160.178 235.553L141.989 249.919C139.007 252.274 134.848 252.508 131.62 250.502L111.891 238.238C111.245 237.837 111.051 236.994 111.457 236.355C111.503 236.284 111.554 236.217 111.612 236.155L127.381 219.26C131.433 214.919 138.233 214.546 142.735 218.417Z" fill="#FFAE11"/>
<mask id="path-27-outside-1" maskUnits="userSpaceOnUse" x="154.116" y="163.547" width="65.1792" height="80.2666" fill="black">
<rect fill="white" x="154.116" y="163.547" width="65.1792" height="80.2666"/>
<path fill-rule="evenodd" clip-rule="evenodd" d="M194.514 174.702C200.633 174.362 205.868 179.046 206.208 185.165L207.594 210.093C207.858 214.848 207.159 219.433 205.667 223.66C205.044 225.422 203.351 226.523 201.489 226.676C199.728 226.82 197.946 227.023 196.148 227.286C188.413 228.418 181.28 230.54 175.16 233.34C171.684 234.93 167.365 232.693 167.153 228.877L165.385 197.063C164.75 185.643 173.493 175.87 184.914 175.236L194.514 174.702Z"/>
</mask>
<path fill-rule="evenodd" clip-rule="evenodd" d="M194.514 174.702C200.633 174.362 205.868 179.046 206.208 185.165L207.594 210.093C207.858 214.848 207.159 219.433 205.667 223.66C205.044 225.422 203.351 226.523 201.489 226.676C199.728 226.82 197.946 227.023 196.148 227.286C188.413 228.418 181.28 230.54 175.16 233.34C171.684 234.93 167.365 232.693 167.153 228.877L165.385 197.063C164.75 185.643 173.493 175.87 184.914 175.236L194.514 174.702Z" fill="white"/>
<path d="M206.208 185.165L215.358 184.656L206.208 185.165ZM207.594 210.093L198.444 210.601L207.594 210.093ZM196.148 227.286L194.821 218.219L194.821 218.219L196.148 227.286ZM165.385 197.063L174.534 196.555L165.385 197.063ZM201.489 226.676L202.237 235.809L201.489 226.676ZM197.059 185.673C196.999 184.608 196.088 183.792 195.023 183.852L194.006 165.552C205.177 164.931 214.737 173.484 215.358 184.656L197.059 185.673ZM198.444 210.601L197.059 185.673L215.358 184.656L216.744 209.584L198.444 210.601ZM197.026 220.608C198.122 217.503 198.64 214.126 198.444 210.601L216.744 209.584C217.076 215.569 216.196 221.364 214.307 226.711L197.026 220.608ZM202.237 235.809C200.67 235.937 199.081 236.118 197.474 236.353L194.821 218.219C196.811 217.927 198.786 217.703 200.74 217.543L202.237 235.809ZM197.474 236.353C190.546 237.367 184.255 239.255 178.972 241.673L171.347 225.006C178.304 221.824 186.279 219.468 194.821 218.219L197.474 236.353ZM174.534 196.555L176.303 228.368L158.003 229.385L156.235 197.572L174.534 196.555ZM185.422 184.385C179.055 184.739 174.18 190.188 174.534 196.555L156.235 197.572C155.319 181.098 167.932 167.002 184.405 166.086L185.422 184.385ZM195.023 183.852L185.422 184.385L184.405 166.086L194.006 165.552L195.023 183.852ZM178.972 241.673C170.531 245.534 158.627 240.612 158.003 229.385L176.303 228.368C176.209 226.678 175.162 225.548 174.309 225.084C173.517 224.654 172.433 224.51 171.347 225.006L178.972 241.673ZM214.307 226.711C212.272 232.473 207.026 235.417 202.237 235.809L200.74 217.543C199.677 217.63 197.816 218.371 197.026 220.608L214.307 226.711Z" fill="#00DCF0" mask="url(#path-27-outside-1)"/>
<path fill-rule="evenodd" clip-rule="evenodd" d="M178.271 189.583C172.437 189.908 167.97 194.9 168.294 200.735C168.306 200.938 168.411 201.125 168.58 201.239L173.834 204.803C175.645 206.031 175.79 208.645 174.127 210.066L170.286 213.347C169.51 214.011 169.087 214.999 169.144 216.019C169.468 221.853 174.461 226.32 180.295 225.996C186.129 225.672 190.596 220.679 190.272 214.845L189.422 199.56C189.098 193.726 184.105 189.259 178.271 189.583Z" fill="#303030"/>
<mask id="path-30-outside-2" maskUnits="userSpaceOnUse" x="49.4043" y="169.367" width="65.2347" height="81.2651" fill="black">
<rect fill="white" x="49.4043" y="169.367" width="65.2347" height="81.2651"/>
<path fill-rule="evenodd" clip-rule="evenodd" d="M71.048 181.565C64.9154 181.906 60.2202 187.153 60.561 193.286L61.9543 218.354C62.2175 223.089 63.4117 227.551 65.3493 231.574C66.1618 233.26 67.969 234.17 69.8403 234.115C71.6114 234.062 73.4109 234.066 75.2329 234.129C83.0434 234.398 90.3658 235.72 96.7572 237.829C100.389 239.027 104.438 236.326 104.226 232.507L102.45 200.562C101.816 189.141 92.0429 180.398 80.6224 181.033L71.048 181.565Z"/>
</mask>
<path fill-rule="evenodd" clip-rule="evenodd" d="M71.048 181.565C64.9154 181.906 60.2202 187.153 60.561 193.286L61.9543 218.354C62.2175 223.089 63.4117 227.551 65.3493 231.574C66.1618 233.26 67.969 234.17 69.8403 234.115C71.6114 234.062 73.4109 234.066 75.2329 234.129C83.0434 234.398 90.3658 235.72 96.7572 237.829C100.389 239.027 104.438 236.326 104.226 232.507L102.45 200.562C101.816 189.141 92.0429 180.398 80.6224 181.033L71.048 181.565Z" fill="white"/>
<path d="M75.2329 234.129L75.5486 224.971L75.5486 224.971L75.2329 234.129ZM65.3493 231.574L57.0936 235.551L65.3493 231.574ZM69.8403 234.115L69.5705 224.955L69.8403 234.115ZM69.7107 192.778C69.6507 191.698 70.4771 190.774 71.5566 190.714L70.5395 172.415C59.3536 173.037 50.7896 182.609 51.4114 193.795L69.7107 192.778ZM71.104 217.845L69.7107 192.778L51.4114 193.795L52.8047 218.862L71.104 217.845ZM73.6051 227.596C72.1815 224.641 71.2991 221.356 71.104 217.845L52.8047 218.862C53.1359 224.822 54.6419 230.462 57.0936 235.551L73.6051 227.596ZM70.1102 243.274C71.6857 243.228 73.2899 243.231 74.9173 243.287L75.5486 224.971C73.5319 224.901 71.5372 224.897 69.5705 224.955L70.1102 243.274ZM74.9173 243.287C81.9115 243.528 88.3691 244.711 93.8857 246.531L99.6288 229.127C92.3624 226.729 84.1753 225.268 75.5486 224.971L74.9173 243.287ZM93.3007 201.07L95.0763 233.016L113.376 231.999L111.6 200.053L93.3007 201.07ZM81.131 190.182C87.4983 189.828 92.9468 194.703 93.3007 201.07L111.6 200.053C110.684 183.58 96.5876 170.967 80.1139 171.883L81.131 190.182ZM71.5566 190.714L81.131 190.182L80.1139 171.883L70.5395 172.415L71.5566 190.714ZM93.8857 246.531C102.703 249.441 114 243.232 113.376 231.999L95.0763 233.016C94.9823 231.324 95.899 230.085 96.695 229.53C97.4332 229.016 98.4948 228.753 99.6288 229.127L93.8857 246.531ZM57.0936 235.551C59.7505 241.066 65.3008 243.416 70.1102 243.274L69.5705 224.955C70.6373 224.923 72.5732 225.454 73.6051 227.596L57.0936 235.551Z" fill="#00DCF0" mask="url(#path-30-outside-2)"/>
<path fill-rule="evenodd" clip-rule="evenodd" d="M88.8141 194.556C82.9797 194.88 78.5129 199.873 78.8372 205.707C78.8485 205.911 78.9541 206.097 79.1228 206.211L84.3769 209.775C86.1876 211.003 86.3329 213.618 84.6695 215.039L80.8292 218.32C80.0525 218.983 79.63 219.971 79.6867 220.991C80.011 226.826 85.0036 231.292 90.8379 230.968C96.6723 230.644 101.139 225.651 100.815 219.817L99.9653 204.533C99.641 198.698 94.6484 194.231 88.8141 194.556Z" fill="#303030"/>
</svg>
