<svg width="420" height="69" viewBox="0 0 420 69" fill="none" xmlns="http://www.w3.org/2000/svg">
<line y1="0.5" x2="420" y2="0.5" stroke="black"/>
<path d="M128.366 28.72C129.166 28.9733 129.792 29.4 130.246 30C130.699 30.5867 130.926 31.3133 130.926 32.18C130.926 33.4067 130.446 34.3533 129.486 35.02C128.539 35.6733 127.152 36 125.326 36H118.086V22H124.926C126.632 22 127.939 22.3267 128.846 22.98C129.766 23.6333 130.226 24.52 130.226 25.64C130.226 26.32 130.059 26.9267 129.726 27.46C129.406 27.9933 128.952 28.4133 128.366 28.72ZM121.306 24.44V27.74H124.526C125.326 27.74 125.932 27.6 126.346 27.32C126.759 27.04 126.966 26.6267 126.966 26.08C126.966 25.5333 126.759 25.1267 126.346 24.86C125.932 24.58 125.326 24.44 124.526 24.44H121.306ZM125.086 33.56C125.939 33.56 126.579 33.42 127.006 33.14C127.446 32.86 127.666 32.4267 127.666 31.84C127.666 30.68 126.806 30.1 125.086 30.1H121.306V33.56H125.086ZM137.499 25.08C139.165 25.08 140.445 25.48 141.339 26.28C142.232 27.0667 142.679 28.26 142.679 29.86V36H139.759V34.66C139.172 35.66 138.079 36.16 136.479 36.16C135.652 36.16 134.932 36.02 134.319 35.74C133.719 35.46 133.259 35.0733 132.939 34.58C132.619 34.0867 132.459 33.5267 132.459 32.9C132.459 31.9 132.832 31.1133 133.579 30.54C134.339 29.9667 135.505 29.68 137.079 29.68H139.559C139.559 29 139.352 28.48 138.939 28.12C138.525 27.7467 137.905 27.56 137.079 27.56C136.505 27.56 135.939 27.6533 135.379 27.84C134.832 28.0133 134.365 28.2533 133.979 28.56L132.859 26.38C133.445 25.9667 134.145 25.6467 134.959 25.42C135.785 25.1933 136.632 25.08 137.499 25.08ZM137.259 34.06C137.792 34.06 138.265 33.94 138.679 33.7C139.092 33.4467 139.385 33.08 139.559 32.6V31.5H137.419C136.139 31.5 135.499 31.92 135.499 32.76C135.499 33.16 135.652 33.48 135.959 33.72C136.279 33.9467 136.712 34.06 137.259 34.06ZM152.443 35.48C152.136 35.7067 151.756 35.88 151.303 36C150.863 36.1067 150.396 36.16 149.903 36.16C148.623 36.16 147.629 35.8333 146.923 35.18C146.229 34.5267 145.883 33.5667 145.883 32.3V27.88H144.223V25.48H145.883V22.86H149.003V25.48H151.683V27.88H149.003V32.26C149.003 32.7133 149.116 33.0667 149.342 33.32C149.583 33.56 149.916 33.68 150.343 33.68C150.836 33.68 151.256 33.5467 151.603 33.28L152.443 35.48ZM153.599 29.12H159.259V31.62H153.599V29.12ZM172.773 33.4V36H161.933V22H172.513V24.6H165.153V27.64H171.653V30.16H165.153V33.4H172.773ZM181.671 25.08C183.005 25.08 184.078 25.48 184.891 26.28C185.718 27.08 186.131 28.2667 186.131 29.84V36H183.011V30.32C183.011 29.4667 182.825 28.8333 182.451 28.42C182.078 27.9933 181.538 27.78 180.831 27.78C180.045 27.78 179.418 28.0267 178.951 28.52C178.485 29 178.251 29.72 178.251 30.68V36H175.131V25.24H178.111V26.5C178.525 26.0467 179.038 25.7 179.651 25.46C180.265 25.2067 180.938 25.08 181.671 25.08ZM193.58 31.78L192.08 33.26V36H188.96V21.16H192.08V29.56L196.64 25.24H200.36L195.88 29.8L200.76 36H196.98L193.58 31.78ZM208.703 25.08C210.036 25.08 211.109 25.48 211.923 26.28C212.749 27.08 213.163 28.2667 213.163 29.84V36H210.043V30.32C210.043 29.4667 209.856 28.8333 209.483 28.42C209.109 27.9933 208.569 27.78 207.863 27.78C207.076 27.78 206.449 28.0267 205.983 28.52C205.516 29 205.283 29.72 205.283 30.68V36H202.163V21.16H205.283V26.36C205.696 25.9467 206.196 25.6333 206.783 25.42C207.369 25.1933 208.009 25.08 208.703 25.08ZM230.885 28.78C231.805 28.98 232.512 29.38 233.005 29.98C233.512 30.5667 233.765 31.3267 233.765 32.26C233.765 33.46 233.318 34.3867 232.425 35.04C231.545 35.68 230.238 36 228.505 36H222.065V22H228.105C229.665 22 230.872 22.3133 231.725 22.94C232.592 23.5667 233.025 24.4533 233.025 25.6C233.025 26.3733 232.832 27.0333 232.445 27.58C232.072 28.1133 231.552 28.5133 230.885 28.78ZM223.545 23.22V28.3H228.005C229.138 28.3 230.012 28.0867 230.625 27.66C231.238 27.22 231.545 26.5867 231.545 25.76C231.545 24.9333 231.238 24.3067 230.625 23.88C230.012 23.44 229.138 23.22 228.005 23.22H223.545ZM228.485 34.78C229.738 34.78 230.685 34.5667 231.325 34.14C231.965 33.7133 232.285 33.0467 232.285 32.14C232.285 30.3933 231.018 29.52 228.485 29.52H223.545V34.78H228.485ZM240.523 25.4C241.897 25.4 242.95 25.7467 243.683 26.44C244.417 27.12 244.783 28.1333 244.783 29.48V36H243.423V34.36C243.103 34.9067 242.63 35.3333 242.003 35.64C241.39 35.9467 240.657 36.1 239.803 36.1C238.63 36.1 237.697 35.82 237.003 35.26C236.31 34.7 235.963 33.96 235.963 33.04C235.963 32.1467 236.283 31.4267 236.923 30.88C237.577 30.3333 238.61 30.06 240.023 30.06H243.363V29.42C243.363 28.5133 243.11 27.8267 242.603 27.36C242.097 26.88 241.357 26.64 240.383 26.64C239.717 26.64 239.077 26.7533 238.463 26.98C237.85 27.1933 237.323 27.4933 236.883 27.88L236.243 26.82C236.777 26.3667 237.417 26.02 238.163 25.78C238.91 25.5267 239.697 25.4 240.523 25.4ZM240.023 34.98C240.823 34.98 241.51 34.8 242.083 34.44C242.657 34.0667 243.083 33.5333 243.363 32.84V31.12H240.063C238.263 31.12 237.363 31.7467 237.363 33C237.363 33.6133 237.597 34.1 238.063 34.46C238.53 34.8067 239.183 34.98 240.023 34.98ZM254.18 35.36C253.913 35.6 253.58 35.7867 253.18 35.92C252.793 36.04 252.387 36.1 251.96 36.1C250.973 36.1 250.213 35.8333 249.68 35.3C249.147 34.7667 248.88 34.0133 248.88 33.04V26.68H247V25.48H248.88V23.18H250.3V25.48H253.5V26.68H250.3V32.96C250.3 33.5867 250.453 34.0667 250.76 34.4C251.08 34.72 251.533 34.88 252.12 34.88C252.413 34.88 252.693 34.8333 252.96 34.74C253.24 34.6467 253.48 34.5133 253.68 34.34L254.18 35.36ZM259.585 36.1C258.732 36.1 257.912 35.98 257.125 35.74C256.352 35.4867 255.745 35.1733 255.305 34.8L255.945 33.68C256.385 34.0267 256.938 34.3133 257.605 34.54C258.272 34.7533 258.965 34.86 259.685 34.86C260.645 34.86 261.352 34.7133 261.805 34.42C262.272 34.1133 262.505 33.6867 262.505 33.14C262.505 32.7533 262.378 32.4533 262.125 32.24C261.872 32.0133 261.552 31.8467 261.165 31.74C260.778 31.62 260.265 31.5067 259.625 31.4C258.772 31.24 258.085 31.08 257.565 30.92C257.045 30.7467 256.598 30.46 256.225 30.06C255.865 29.66 255.685 29.1067 255.685 28.4C255.685 27.52 256.052 26.8 256.785 26.24C257.518 25.68 258.538 25.4 259.845 25.4C260.525 25.4 261.205 25.4933 261.885 25.68C262.565 25.8533 263.125 26.0867 263.565 26.38L262.945 27.52C262.078 26.92 261.045 26.62 259.845 26.62C258.938 26.62 258.252 26.78 257.785 27.1C257.332 27.42 257.105 27.84 257.105 28.36C257.105 28.76 257.232 29.08 257.485 29.32C257.752 29.56 258.078 29.74 258.465 29.86C258.852 29.9667 259.385 30.08 260.065 30.2C260.905 30.36 261.578 30.52 262.085 30.68C262.592 30.84 263.025 31.1133 263.385 31.5C263.745 31.8867 263.925 32.42 263.925 33.1C263.925 34.02 263.538 34.7533 262.765 35.3C262.005 35.8333 260.945 36.1 259.585 36.1ZM276.03 25.48V36H274.67V34.08C274.297 34.72 273.784 35.22 273.13 35.58C272.477 35.9267 271.73 36.1 270.89 36.1C269.517 36.1 268.43 35.72 267.63 34.96C266.844 34.1867 266.45 33.06 266.45 31.58V25.48H267.87V31.44C267.87 32.5467 268.144 33.3867 268.69 33.96C269.237 34.5333 270.017 34.82 271.03 34.82C272.137 34.82 273.01 34.4867 273.65 33.82C274.29 33.14 274.61 32.2 274.61 31V25.48H276.03ZM283.907 30.72L281.427 33V36H280.007V21.16H281.427V31.22L287.707 25.48H289.467L284.967 29.78L289.887 36H288.147L283.907 30.72ZM297.379 25.4C298.699 25.4 299.746 25.7867 300.519 26.56C301.306 27.32 301.699 28.4333 301.699 29.9V36H300.279V30.04C300.279 28.9467 300.006 28.1133 299.459 27.54C298.912 26.9667 298.132 26.68 297.119 26.68C295.986 26.68 295.086 27.02 294.419 27.7C293.766 28.3667 293.439 29.2933 293.439 30.48V36H292.019V21.16H293.439V27.32C293.826 26.7067 294.359 26.2333 295.039 25.9C295.719 25.5667 296.499 25.4 297.379 25.4Z" fill="black"/>
<path d="M198.907 65.096C197.797 65.096 196.795 64.8507 195.899 64.36C195.013 63.8693 194.315 63.192 193.803 62.328C193.301 61.4533 193.051 60.4773 193.051 59.4C193.051 58.3227 193.301 57.352 193.803 56.488C194.315 55.6133 195.019 54.9307 195.915 54.44C196.811 53.9493 197.813 53.704 198.923 53.704C199.755 53.704 200.523 53.8427 201.227 54.12C201.931 54.3973 202.528 54.8027 203.019 55.336L202.267 56.088C201.392 55.2027 200.288 54.76 198.955 54.76C198.069 54.76 197.264 54.9627 196.539 55.368C195.813 55.7733 195.243 56.328 194.827 57.032C194.421 57.736 194.219 58.5253 194.219 59.4C194.219 60.2747 194.421 61.064 194.827 61.768C195.243 62.472 195.813 63.0267 196.539 63.432C197.264 63.8373 198.069 64.04 198.955 64.04C200.299 64.04 201.403 63.592 202.267 62.696L203.019 63.448C202.528 63.9813 201.925 64.392 201.211 64.68C200.507 64.9573 199.739 65.096 198.907 65.096ZM213.463 63.976V65H205.543V53.8H213.223V54.824H206.727V58.808H212.519V59.816H206.727V63.976H213.463ZM221.079 65.096C219.97 65.096 218.962 64.8507 218.055 64.36C217.159 63.8587 216.455 63.176 215.943 62.312C215.442 61.448 215.191 60.4773 215.191 59.4C215.191 58.3227 215.442 57.352 215.943 56.488C216.455 55.624 217.159 54.9467 218.055 54.456C218.962 53.9547 219.97 53.704 221.079 53.704C222.189 53.704 223.186 53.9493 224.071 54.44C224.967 54.9307 225.671 55.6133 226.183 56.488C226.695 57.352 226.951 58.3227 226.951 59.4C226.951 60.4773 226.695 61.4533 226.183 62.328C225.671 63.192 224.967 63.8693 224.071 64.36C223.186 64.8507 222.189 65.096 221.079 65.096ZM221.079 64.04C221.965 64.04 222.765 63.8427 223.479 63.448C224.194 63.0427 224.754 62.488 225.159 61.784C225.565 61.0693 225.767 60.2747 225.767 59.4C225.767 58.5253 225.565 57.736 225.159 57.032C224.754 56.3173 224.194 55.7627 223.479 55.368C222.765 54.9627 221.965 54.76 221.079 54.76C220.194 54.76 219.389 54.9627 218.663 55.368C217.949 55.7627 217.383 56.3173 216.967 57.032C216.562 57.736 216.359 58.5253 216.359 59.4C216.359 60.2747 216.562 61.0693 216.967 61.784C217.383 62.488 217.949 63.0427 218.663 63.448C219.389 63.8427 220.194 64.04 221.079 64.04Z" fill="black"/>
</svg>
