<svg width="459" height="208" viewBox="0 0 459 208" fill="none" xmlns="http://www.w3.org/2000/svg">
<path d="M3.03378 74.837C8.60765 74.9016 23.6281 81.5795 30.4416 84.9104L42.7 109.441L433.49 120.593C436.868 119.703 443.74 114.023 444.2 98.4192C444.774 78.9147 421.879 70.2873 432.687 69.7158C443.494 69.1443 453.541 104.102 453.407 85.6347C453.272 67.1672 433.176 57.527 439.09 58.2924C445.005 59.0578 463.938 78.7885 456.4 67.9003C448.861 57.0121 434.27 53.3587 436.06 49.1985C437.851 45.0383 447.208 49.3278 447.236 46.8893C438.012 31.1035 402.608 19.544 391.096 20.8041C379.584 22.0642 171.913 23.4883 150.318 22.8894C128.723 22.2905 105.33 -3.41493 106.29 3.91288C107.058 9.77513 112.775 15.4858 115.538 17.6083C95.0087 15.2798 73.5272 4.92668 73.5272 4.92668C73.3934 16.4597 91.1807 14.887 85.9431 15.8715C80.7055 16.856 35.2594 -0.0465059 39.3873 4.53074C42.6896 8.19253 51.5575 16.6341 55.5787 20.3971C44.2778 20.8936 24.8755 26.947 12.9183 30.6709C9.21452 30.7874 5.77553 31.3489 3.52264 32.6847C0.297887 34.5967 4.95847 33.1499 12.9183 30.6709C22.4798 30.3703 33.8057 33.0359 31.0436 33.0039C27.2116 32.9594 3.27215 54.2834 10.9685 51.5853C18.6649 48.8873 43.6463 57.8873 34.5887 57.7823C25.5312 57.6773 -3.93353 74.7562 3.03378 74.837Z" fill="#B38022"/>
<path d="M438.737 28.6732C432.924 25.5926 428.08 25.5571 424.75 26.4407C421.791 27.2259 419.917 29.871 418.546 32.608C415.763 38.1637 410.901 42.3969 405.015 44.388L228.637 104.053C222.658 106.075 216.058 104.867 211.183 100.856L168.986 66.14C160.225 58.9324 178.316 42.2246 178.447 30.8808C178.657 12.7657 147.077 1.94706 160.291 4.19078C173.505 6.43451 212.206 34.0596 234.979 23.1745C257.753 12.2894 336.117 5.15047 330.269 8.25259C326.413 10.2983 310.992 18.133 316.594 15.759C322.196 13.3851 394.531 7.03129 385.66 8.89498C380.378 10.0044 382.072 13.9476 387.468 13.8737C418.361 13.4507 448.422 33.8054 438.737 28.6732Z" fill="#B38022"/>
<path d="M454.594 103.417C452.556 110.919 442.014 116.627 436.998 118.543C432.957 116.522 426.826 112.363 434.636 111.896C442.446 111.429 451.196 106.049 454.594 103.417Z" fill="#B38022"/>
<path d="M437.524 126.128C446.186 124.332 444.977 123.176 442.85 131.821C440.719 140.482 435.27 146.674 430.727 154.325C422.208 168.675 409.237 177.04 395.027 184.943C385.32 190.342 374.526 191.396 364.117 195.128C349.945 200.209 336.922 197.136 322.385 198.358C315.787 198.913 309.368 200.058 302.716 200.047C297.311 200.038 291.651 199.389 286.298 200.336C274.687 202.39 264.079 202.834 252.244 202.697C231.363 202.454 210.896 197.087 190.012 196.583C169.664 196.093 148.821 198.791 128.94 193.718C114.497 190.033 101.857 183.003 88.3994 176.834C73.4265 169.97 55.3272 159.042 44.7212 146.374C37.7911 138.096 32.9005 130.544 28.9678 120.371C28.8142 119.974 26.9558 115.094 27.9563 114.609C28.1308 114.524 29.335 119.84 29.5675 120.318C34.0443 129.538 44.8793 138.304 53.1369 143.895C68.517 154.31 85.9641 161.154 102.687 169.092C115.105 174.986 127.757 178.25 141.382 179.844C164.533 182.553 188.172 181.422 211.098 186.284C233.071 190.944 253.168 187.841 275.3 187.867C284.577 187.878 295.095 185.625 304.221 183.89C315.373 181.769 327.046 179.564 337.859 176.132C356.428 170.239 373.697 161.889 391.901 154.953C399.493 152.06 405.84 147.055 412.769 142.854C415.947 140.927 418.603 138.455 422.063 136.972C425.875 135.336 430.069 134.529 433.502 132.072C435.301 130.784 435.571 130.75 434.626 133.283C432.62 138.658 429.363 143.988 425.882 148.518C416.421 160.833 401.122 168.527 387.18 174.608C369.997 182.102 351.82 181.207 333.489 180.994C317.576 180.81 301.321 181.583 285.589 178.821C270.436 176.161 255.176 174.359 240.022 171.763C224.82 169.158 209.681 168.287 194.501 165.903C168.076 161.754 141.799 157.036 115.267 153.602C104.119 152.159 93.901 147.342 82.9553 145.2C70.4418 142.751 60.6266 137.114 49.3887 131.331C44.1877 128.655 41.7717 124.869 38.0062 121.015C35.7304 118.686 37.4916 123.93 37.6685 124.306C40.7747 130.907 47.4947 135.731 53.1222 140.001C62.4187 147.056 72.5891 152.59 82.4382 158.793C93.5113 165.765 103.94 173.492 115.749 179.248C128.039 185.238 141.439 185.509 154.843 186.53C176.171 188.155 197.656 189.187 218.948 191.288C243.897 193.749 269.189 191.618 293.973 189.402C306.356 188.295 318.016 188.737 330.429 186.59C342.701 184.467 356.683 180.393 367.946 174.924C378.499 169.8 384.029 158.468 393.849 152.22C401.993 147.039 410.889 143.367 417.992 136.685C425.751 129.385 446.475 105.313 437.991 111.756C429.079 118.523 423.37 128.862 414.644 136.107C402.436 146.242 387.09 152.196 373.332 159.95C356.343 169.524 339.618 171.275 321.033 175.458C305.941 178.855 290.081 182.214 274.585 182.408C246.145 182.763 217.254 181.441 189.55 174.412C168.096 168.97 146.05 169.252 124.48 165.031C108.632 161.93 91.4748 161.853 76.1725 156.683C65.549 153.094 55.151 148.827 44.4315 145.532C36.3761 143.056 32.1538 136.073 25.7886 131.058C23.176 128.999 20.2543 122.701 20.2929 119.372C20.3549 114.032 29.6423 125.937 29.9173 126.313C42.7553 143.85 54.6503 163.102 71.8646 176.882C78.7374 182.383 86.7019 187.07 95.2045 189.253C101.701 190.922 106.383 195.79 113.446 197.013C132.47 200.308 150.86 202.599 170.29 202.824C200.292 203.172 229.347 200.244 259.142 196.786C287.496 193.495 315.417 191.935 342.468 181.577C351.988 177.933 362.689 172.498 371.214 166.874C378.504 162.065 386.762 159.265 394.06 154.739C405.749 147.489 413.987 138.535 423.949 129.265C431.94 121.829 422.336 129.567 420.124 133.654C417.206 139.047 414.762 144.649 410.242 148.936C406.271 152.701 401.746 155.874 397.836 159.695C390.219 167.137 383.967 175.134 374.353 180.33C363.112 186.405 347.828 187.112 335.318 188.564C298.357 192.853 261.867 186.113 225.539 180.82C192.351 175.986 157.13 172.61 125.859 159.775C112.111 154.133 98.7976 147.63 85.0899 141.93C77.0139 138.571 71.1245 135.4 65.4763 128.523C62.172 124.5 58.3601 121.327 55.4269 116.904C54.2079 115.066 48.846 111.915 51.0513 111.941C54.8265 111.985 60.3194 117.346 63.4896 119.034C82.7793 129.309 103.733 137.376 124.67 143.527C147.217 150.151 170.141 156.03 193.801 153.974C209.233 152.633 223.001 147.977 237.657 143.28C250.201 139.259 262.862 136.552 275.172 131.793C306.696 119.606 341.022 116.102 372.664 103.869C381.942 100.282 392.099 93.9181 400.165 88.0134C402.109 86.5903 407.32 82.8696 406.641 87.5494C406.051 91.6139 402.096 94.8645 399.514 97.7108C393.572 104.26 387.794 109.715 379.622 113.475C353.11 125.673 321.625 126.563 293.018 127.148C264.217 127.737 232.953 130.271 204.759 123.369C194.701 120.906 166.175 108.448 175.465 113.024C181.649 116.071 186.524 120.766 191.921 124.957C199.982 131.216 209.104 136.199 218.894 139.168C241.275 145.957 265.46 146.546 288.667 145.848C308.986 145.238 325.586 138.088 344.019 130.495C347.489 129.066 351.768 125.575 355.406 124.936C358.242 124.438 346.717 138.936 345.225 140.154C323.48 157.916 292.478 156.731 265.949 157.326C254.201 157.59 242.228 157.002 230.631 155C228.048 154.554 219.662 152.392 227.539 153.047C253.299 155.187 278.213 160.883 304.259 159.927C326.539 159.11 351.341 152.238 369.915 139.482C379.481 132.912 385.803 123.244 395.576 117.015C400.375 113.955 406.1 113.859 411.561 112.647C413.086 112.309 424.235 105.221 424.582 105.729C427.224 109.599 398.039 134.72 395.045 136.958C374.958 151.971 351.438 152.289 327.785 156.306C303.853 160.371 281.403 162.919 257.123 159.021C239.596 156.208 223.695 147.719 206.371 144.534C187.656 141.094 170.115 134.966 151.659 130.481C128.047 124.742 103.222 126.843 79.4387 122.993C65.4 120.721 52.563 112.172 39.2414 107.491C30.4252 104.392 13.4903 96.4089 13.4903 96.4089C13.4903 96.4089 21.507 102.575 25.6054 105.535C44.8867 119.465 65.9897 130.835 87.7436 140.403C107.263 148.988 126.841 152.039 147.711 155.835C177.048 161.172 206.921 165.675 236.581 168.847C262.024 171.569 288.194 172.295 312.829 164.819C328.133 160.175 344.064 157.518 359.454 153.019C373.14 149.018 386.685 144.929 400.332 140.793C410.148 137.818 420.128 134.192 427.808 127.094C433.568 121.771 436.984 116.357 440.474 109.388C441.114 108.111 443.174 104.354 442.435 105.577C439.691 110.121 434.577 113.318 430.095 115.858C411.132 126.601 392.553 136.221 371.212 141.294C337.973 149.195 304.975 157.06 270.631 156.542C252.479 156.268 234.509 153.88 216.398 152.918C204.27 152.273 192.371 151.624 180.502 148.787C161.844 144.327 143.847 136.011 126.835 127.317C115.937 121.749 103.98 116.07 94.5877 108.133C89.284 103.65 82.488 99.505 78.8235 93.3925C75.7404 88.2498 69.2054 83.3007 64.6076 79.4491C63.0197 78.1188 64.9887 83.9748 65.0919 84.1873C68.2175 90.6243 74.0928 95.696 79.3419 100.348C108.506 126.192 150.863 130.484 188.294 132.942C207.21 134.185 226.047 134.459 245.005 134.678C263.374 134.891 282.084 136.112 300.418 134.722C317.423 133.433 332.702 130.426 349.161 126.241C357.718 124.065 366.589 123.493 375.214 121.631C382.078 120.149 388.278 116.837 394.535 113.768C406.349 107.974 416.464 99.367 428.196 93.6702C432.024 91.8112 435.647 89.7966 434.4 95.8988C432.71 104.17 423.869 115.159 416.521 118.935C415.224 119.601 405.724 122.524 407.852 122.549C411.753 122.594 415.337 123.714 419.22 123.759C422.83 123.801 421.29 120.422 419.52 118.611C413.812 112.769 394.863 115.75 387.973 116.507C356.539 119.961 325.585 118.194 294.062 119.732C258.667 121.458 224.495 121.908 189.121 118.455C174.74 117.051 160.255 115.831 145.985 113.521C137.384 112.129 129.377 108.776 120.901 106.88C112.588 105.021 103.041 103.556 95.4665 99.5162C88.2232 95.6533 79.9807 92.5106 72.3383 89.5431C67.0688 87.4971 51.1177 78.8914 57.955 90.0353C66.8279 104.497 80.1761 114.117 96.0096 119.831C102.944 122.333 110.049 123.133 117.096 125.048C118.581 125.451 109.081 124.32 107.165 123.914C91.6704 120.628 77.642 110.922 63.2377 104.594C55.3762 101.14 51.2315 94.8768 44.4778 89.879C41.753 87.8626 37.9798 85.1494 34.2797 85.9267C32.7314 86.252 34.9511 91.1089 35.2291 91.8685C37.2362 97.3507 41.2306 100.694 45.9931 103.855C57.2249 111.309 69.1056 117.452 81.6013 122.479C85.4314 124.02 80.5521 122.67 79.2068 122.332C70.9488 120.256 64.215 115.364 57.053 110.992C51.9149 107.856 46.0744 103.262 40.3319 101.273C35.0941 99.4594 50.3617 106.003 55.4684 108.158C77.7278 117.553 103.172 120.763 126.998 123.605C148.526 126.173 170.026 129.366 191.745 129.747C210.799 130.082 229.836 129.231 248.901 129.332C263.781 129.411 278.258 126.08 292.822 123.371C299.845 122.065 306.464 119.163 313.607 118.461C319.346 117.896 324.84 117.248 330.526 116.261C340.192 114.582 350.015 112.936 359.008 108.803C367.335 104.976 376.378 104.122 384.974 101.316C389.213 99.9327 392.858 97.0964 397.141 95.7063C401.767 94.2044 406.362 93.5985 410.731 91.311C416.816 88.1249 424.753 84.4625 429.382 79.1866C430.698 77.6874 428.943 81.5164 428.632 81.8737C425.185 85.8354 419.375 87.6417 414.588 89.259C395.154 95.8261 376.471 102.069 355.887 104.154C326.86 107.095 298.295 107.26 269.17 106.922C242.891 106.618 218.09 105.323 192.646 98.5466C179.897 95.1507 166.659 93.8756 153.793 91.1468C140.907 88.4139 126.848 87.7256 113.706 86.7879C96.6581 85.5716 78.3254 86.7005 61.8238 81.873C57.5544 80.6239 53.2377 80.146 48.9768 79.0282C47.8927 78.7437 45.3627 76.8372 46.8936 77.8658C62.4578 88.323 78.8768 93.5692 96.6045 99.5294C114.757 105.632 132.649 108.574 151.731 108.795C169.249 108.998 186.326 109.185 203.748 107.242C212.552 106.26 221.381 105.386 230.248 105.393C231.945 105.394 238.176 105.485 232.644 105.42C216.127 105.229 199.637 105.353 183.18 103.768C169.849 102.485 130.225 96.1887 143.603 96.8395C159.752 97.6253 175.715 104.264 191.651 106.862C211.986 110.178 235.228 110.094 255.516 106.524C265.287 104.805 274.681 101.826 284.686 101.711C291.935 101.628 298.82 101.922 305.912 100.04C315.657 97.4544 325.361 93.716 335.47 92.8344C358.163 90.8556 385.702 94.4182 405.692 81.5477C414.17 76.0887 415.776 63.9547 424.281 59.3582C427.324 57.7132 422.33 72.2694 421.47 74.4221C416.875 85.9225 404.356 96.5507 393.355 101.893C379.077 108.826 361.426 111.953 345.885 114.222C335.338 115.762 324.564 115.632 313.933 116.128C301.474 116.709 289.378 119.474 276.981 120.372C242.448 122.874 206.257 120.889 171.883 117.116C147.706 114.463 123.869 116.02 99.6515 115.74C91.2024 115.642 84.7867 118.962 75.9219 116.303C64.3921 112.845 52.3375 110.366 41.5454 105.121C36.2396 102.543 29.9678 101.016 25.0981 97.6218C23.0754 96.2119 21.4301 92.9175 19.5426 91.0875C14.213 85.9198 16.8893 85.9944 22.805 88.729C32.1045 93.028 43.2059 94.4724 53.1431 96.8688C102.693 108.818 153.793 120.83 204.68 124.985C243.045 128.118 278.4 120.677 314.159 106.965C325.098 102.77 337.487 99.545 347.386 93.2722C352.515 90.0229 357.038 88.1303 362.629 85.8408C369.802 82.9037 377.317 80.9742 384.699 78.6084C393.45 75.8035 400.315 69.8751 409.096 66.9699C416.253 64.602 418.321 60.7993 423.302 55.9322C427.726 51.6095 429.264 51.9073 423.475 56.5332C395.274 79.0659 361.212 87.7767 325.521 88.1062C303.129 88.313 281.035 88.9331 258.674 87.331C237.802 85.8356 216.946 85.7733 196.105 84.3888C180.155 83.3291 165.114 82.3951 149.097 82.8252C135.783 83.1827 122.452 83.6544 109.131 83.4999C96.1162 83.349 83.0835 83.8866 70.2751 81.4917C64.6395 80.438 62.5506 81.4299 58.5195 77.5214C57.5995 76.6293 51.3514 72.5623 53.1661 74.2243C55.8995 76.7276 61.0516 77.4773 64.3743 78.9072C73.7927 82.9604 82.8551 87.6882 92.5075 91.2148C112.195 98.4078 132.865 101.19 153.735 101.27C170.921 101.336 187.872 97.4565 205.059 97.5523C224.845 97.6626 244.595 97.9277 264.348 99.0786C282.299 100.124 300.093 103.168 318.097 103.177C343.848 103.189 372.906 97.3549 394.704 83.6967C399.19 80.8861 404.757 78.6505 408.761 75.1733C410.666 73.519 409.814 72.7087 407.761 73.6041C401.131 76.4954 395.269 81.0014 388.944 84.4686C378.041 90.4454 366.206 94.1369 354.172 97.0651C324.281 104.338 293.724 111.091 263.039 113.8C248.804 115.057 234.641 114.923 220.371 115.043C211.537 115.117 202.724 116.196 193.886 115.634C162.991 113.67 129.521 105.752 100.308 95.2591C82.4369 88.8398 63.5511 86.7577 45.2911 81.7411C42.2235 80.8984 38.131 80.4744 35.32 78.8698C32.312 77.1528 38.7613 85.5788 39.0123 85.9217" stroke="#B38022" stroke-width="9.75491" stroke-linecap="square"/>
<path d="M410.954 62.0081C407.747 57.8394 400.202 54.6203 394.958 54.5594C393.764 54.5456 391.628 54.1431 390.574 54.7968C389.804 55.2745 389.908 56.3055 389.168 56.7692C388.016 57.4912 386.242 56.9051 384.955 57.1527C382.939 57.5407 381.601 59.8602 379.82 60.0618C377.645 60.3082 376.599 60.287 374.648 61.1836C372.039 62.3827 368.933 62.0396 366.107 62.0068C363.544 61.9771 364.124 59.0094 365.608 57.8506C367.113 56.6749 364.562 56.2404 363.81 56.2734C360.738 56.4084 357.741 58.4627 354.84 59.2822C351.98 60.0903 348.262 61.2811 345.335 61.2471C342.492 61.2141 339.329 61.4899 336.758 62.704C336.166 62.9835 332.51 64.5688 333.406 63.4434C335.019 61.4184 336.834 58.7757 338.954 57.2821C339.736 56.7311 343.194 54.4152 342.865 53.033C342.531 51.6289 334.307 57.5039 333.758 57.9424C332.294 59.1123 327.747 61.2961 325.848 61.5111C324.404 61.6746 323.191 62.0279 321.721 62.0108C320.444 61.996 320.009 60.6401 318.597 60.447C315.625 60.0404 312.803 59.4072 309.825 58.8754C307.431 58.4479 304.858 58.5815 302.577 57.5232C301.578 57.0593 300.041 57.4514 299.214 56.7924C297.654 55.5496 294.813 55.5047 292.86 55.4505C287.9 55.313 282.187 55.4175 277.674 57.609C274.23 59.2815 272.221 62.2316 269.009 64.2241C267.12 65.3954 264.869 67.8339 262.508 68.0685C259.298 68.3874 256.52 69.0366 253.159 68.9976C252.035 68.9846 250.911 68.9716 249.787 68.9585C247.497 68.932 245.967 67.3315 243.847 66.6992C240.088 65.578 236.795 62.7147 233.011 61.6161C231.03 61.0409 229.056 60.3133 227.066 59.8466C223.919 59.109 227.801 60.4732 229.154 61.1967C231.617 62.5139 233.048 64.0878 234.919 66.0768C236.61 67.8738 236.784 68.7413 233.946 67.9966C227.829 66.3919 221.904 64.5925 215.756 63.2606C213.821 62.8412 212.106 62.5574 210.237 62.0149C208.389 61.4784 211.442 62.2982 212.244 62.9317C214.85 64.9909 219.836 68.6112 213.447 68.5371C202.387 68.4088 190.848 63.3237 179.777 66.5902C176.948 67.4247 173.836 67.3114 171.083 68.1611C169.436 68.6695 167.938 69.4177 166.222 69.8052C160.766 71.0375 154.8 68.7823 149.383 70.3881C146.878 71.1307 143.614 71.6251 141.342 72.8888C140.544 73.3321 139.454 73.7463 138.455 73.2588C135.601 71.8663 132.6 71.8065 129.605 70.9369C124.341 69.4089 119.777 68.8613 115.461 65.3255C113.806 63.9699 107.749 65.3776 106.92 63.67" stroke="#9E6B0B" stroke-width="1.86747" stroke-linecap="round"/>
<path d="M356.542 56.7078C359.359 54.0365 363.964 52.4186 366.085 49.0365C367.206 47.2492 368.612 44.8332 370.185 43.3773C371.061 42.5672 373.304 40.8194 374.481 40.8331C377.019 40.8625 380.101 40.7005 382.558 40.1774C386.553 39.3271 388.253 36.586 392.02 39.4801" stroke="#9E6B0B" stroke-width="1.86747" stroke-linecap="round"/>
<path d="M117.264 66.3842C113.572 63.8606 111.544 61.0541 108.542 57.9823C106.674 56.0705 104.727 53.2484 102.503 51.8019C98.1685 48.9819 93.7579 53.1954 89.1915 51.4746C87.9515 51.0074 88.2524 47.8881 87.804 46.847C86.9403 44.8411 89.3455 45.0083 91.0554 44.8383C92.9297 44.6521 98.1991 45.9073 96.7055 44.7598C95.8273 44.0851 94.0528 43.9745 93.0288 43.6795C89.9685 42.7981 87.0213 41.8776 83.8611 41.3827C80.4418 40.8473 77.371 41.0192 73.9798 40.9799" stroke="#9E6B0B" stroke-width="1.86747" stroke-linecap="round"/>
<path d="M115.219 63.7664C111.19 63.0606 107.281 60.5616 103.325 60.5157C100.677 60.485 98.1402 59.9368 95.4344 59.9054C93.9103 59.8877 93.3297 60.1009 92.0218 60.9034C90.7134 61.7062 88.938 61.3865 87.4625 61.3693C83.9297 61.3284 82.1271 59.5338 78.8458 58.7907C75.3358 57.9959 71.7823 56.3811 68.1916 55.4391C67.5739 55.277 65.7147 54.8915 66.3533 54.899C68.2175 54.9206 69.8216 56.504 71.1922 57.6644C72.4618 58.7392 73.652 59.9971 74.7825 61.2223C76.0257 62.5696 73.256 61.7234 72.4422 61.7139C69.1495 61.6758 66.1196 60.63 62.8166 61.6311C57.7988 63.1519 53.4879 64.8436 48.2732 65.584" stroke="#9E6B0B" stroke-width="1.86747" stroke-linecap="round"/>
<path d="M119.453 56.5521C116.65 50.1902 109.537 46.6757 103.517 43.9162" stroke="#9E6B0B" stroke-width="1.86747" stroke-linecap="round"/>
<path d="M115.237 62.21C118.015 63.3999 121.087 65.2599 123.598 66.9762C126.029 68.638 128.714 68.4109 131.353 69.2566C134.031 70.1144 136.713 70.2411 139.527 70.2737C143.556 70.3204 147.155 68.7448 151.021 68.3606C151.163 68.3465 155.467 67.9415 153.971 67.4437C151.246 66.5368 147.717 67.4424 144.869 66.9635C142.868 66.627 140.559 67.0677 138.648 66.5166C135.369 65.5708 140.35 67.449 141.227 67.8147C143.588 68.7987 144.742 68.7055 147.044 68.3145C147.855 68.1768 149.364 67.9636 147.734 68.409C144.514 69.2888 140.552 69.5089 137.228 69.6994C134.78 69.8397 133.558 69.1344 131.505 68.6531C129.872 68.2703 124.503 67.4907 123.492 66.1967C122.501 64.9284 116.725 64.2651 120.694 66.3949C124.835 68.617 129.476 67.7966 133.571 69.4264C136.395 70.5504 139.979 69.7274 142.632 70.9438C144.513 71.806 150.971 71.4723 145.635 70.4598C141.676 69.7085 137.591 69.7324 133.568 69.6858C131.119 69.6574 128.666 69.5156 126.283 69.0537C125.704 68.9415 123.447 68.3357 123.069 67.8923C122.589 67.3314 125.601 68.1301 125.66 68.153C128.422 69.2423 131.413 69.3811 134.346 69.6948" stroke="#9E6B0B" stroke-width="1.86747" stroke-linecap="round"/>
<path d="M272.436 61.958C269.92 61.9902 268.241 62.8623 266.077 63.5559C264.624 64.0216 264.1 65.0268 262.938 65.7677C262.244 66.2104 261.236 65.9923 260.452 66.3729C256.591 68.2479 251.804 67.0112 247.725 67.8682C244.288 68.5901 247.191 66.8532 249.004 66.8742C251.079 66.8983 252.504 66.4265 254.462 66.0152C258.802 65.1034 263.498 66.6315 266.747 62.9296C267.582 61.9777 270.945 60.1566 269.771 60.6301C266.785 61.8336 264.026 63.0444 260.883 64.0145C256.992 65.2158 251.853 64.3133 247.766 64.2659C244.518 64.2282 249.716 65.8449 250.861 65.8582C253.79 65.8921 256.687 65.4733 259.541 65.44C263.457 65.3944 266.664 64.0465 270.099 62.1903C271.36 61.5084 272.612 60.5392 273.759 59.6676C275.808 58.1124 271.137 61.2675 270.393 61.6749C269.201 62.3275 265.664 63.9547 267.023 63.9704C268.155 63.9835 271.103 61.7214 271.929 60.9145C273.492 59.3873 268.171 63.1634 266.186 64.076C264.564 64.8215 262.547 65.164 261.203 66.2375C259.319 67.7434 259.877 67.5191 259.142 67.5106C256.386 67.4786 252.777 66.5552 250.32 65.2178C246.986 63.4026 241.855 63.7637 238.456 61.8233C236.38 60.6382 234.79 60.7444 232.509 60.198C228.339 59.1992 231.746 60.3012 233.659 60.4707C235.615 60.644 237.864 62.5871 239.852 63.2518C242.172 64.0275 246.437 64.6045 247.999 66.6032C248.209 66.8732 242.39 64.2035 241.08 64.1884C240.359 64.18 242.278 65.1822 243 65.1906C245.906 65.2243 237.762 62.6627 235.088 61.5249" stroke="#9E6B0B" stroke-width="1.86747" stroke-linecap="round"/>
<path d="M277.635 60.9806C280.862 60.4047 283.227 58.7613 286.373 58.0845C290.404 57.2174 282.453 58.8699 281.608 58.9227C280.601 58.9856 277.573 58.9047 278.581 58.9164C280.521 58.9389 282.463 58.9984 284.403 58.9839C287.077 58.964 289.899 58.5404 292.431 57.6359C294.135 57.027 288.812 57.8941 287.034 58.2363C284.656 58.694 277.451 59.4221 279.872 59.4502C284.889 59.5084 289.715 58.1916 294.674 58.0655C295.86 58.0353 290.774 58.1241 291.795 57.7727C293.435 57.2084 297.792 56.9913 299.463 57.7175C300.374 58.114 301.709 58.034 302.448 58.7897C303.813 60.1876 298.759 57.4586 296.847 57.0531C292.418 56.1136 288.717 56.836 284.421 57.3989C280.551 57.9061 278.384 59.5219 275.037 61.354C274.399 61.7031 275.749 61.4686 276.073 61.4813C277.703 61.5455 279.26 62.0371 280.908 62.0562C282.395 62.0735 277.887 61.5024 277.11 61.4934" stroke="#9E6B0B" stroke-width="1.86747" stroke-linecap="round"/>
<path d="M367.405 59.428C369.694 61.134 374.506 61.883 377.473 61.0723C379.759 60.448 382.16 57.8044 384.547 57.5516C385.321 57.4697 387.591 56.4695 388.082 55.9209C389.427 54.4196 383.761 56.0067 382.187 57.2648C379.398 59.4928 374.621 59.7806 371.284 60.4817C370.282 60.6921 368.066 61.1724 367.128 60.9523C364.506 60.3379 368.906 59.1807 369.081 59.0439C370.531 57.9115 376.78 59.0179 378.563 59.0386C380.92 59.0659 375.683 58.9758 374.929 59.2559C373.345 59.8441 371.174 59.4717 369.48 59.4521C368.792 59.4441 368.09 59.4763 367.405 59.428C367.077 59.4049 366.076 58.4326 366.667 58.4395C367.623 58.4506 369.379 60.3992 369.98 61.0142" stroke="#9E6B0B" stroke-width="1.86747" stroke-linecap="round"/>
<path d="M377.123 123.698C374.846 128.423 372.54 132.345 367.644 134.722C367.153 134.96 359.716 138.133 360.325 135.812C360.96 133.39 362.125 130.945 362.975 128.579C363.117 128.182 364.222 126.587 363.159 127.668C360.49 130.385 357.629 132.933 354.548 135.179C352.285 136.829 344.576 140.281 347.024 138.919C350.439 137.02 353.544 134.666 356.54 132.158C358.233 130.74 366.302 122.802 365.327 128.259" stroke="#B38022" stroke-width="2.8012" stroke-linecap="round"/>
<path d="M357.974 154.79C351.295 154.713 348.478 163.01 345.297 167.778C341.502 173.466 337.222 178.107 331.393 181.708C327.196 184.3 329.929 180.704 331.083 178.399C333.234 174.1 334.546 167.663 338.118 164.302C341.593 161.033 327.575 164.646 324.33 168.143C322.573 170.038 324.942 166.23 325.402 165.72C326.775 164.198 330.623 157.312 330.237 157.557C327.927 159.021 323.531 162.42 322.799 165.212C322.188 167.538 329.182 164.047 329.644 163.725C332.435 161.78 336.509 157.054 340.448 158.371C345.281 159.986 334.069 167.597 332.766 168.241C331.893 168.674 324.116 170.988 325.876 169.901C329.049 167.94 332.511 166.52 335.765 164.71C336.102 164.522 340.461 162.162 338.234 161.781C334.344 161.116 329.346 163.568 327.475 167.006C326.547 168.71 325.96 173.165 329.289 171.854C333.355 170.252 336.117 165.853 340.081 163.803C342.479 162.563 344.753 162.065 341.639 164.43C338.629 166.716 334.944 168.362 331.656 170.229C329.176 171.637 336.39 166.901 339.099 166.01C341.148 165.335 347.62 164.847 345.462 164.822C342.204 164.784 338.883 164.544 335.633 164.795C334.913 164.851 328.897 167.074 331.389 167.008C332.66 166.973 334.483 165.94 334.982 164.701C335.662 163.012 328.097 166.479 327.827 166.618C326.324 167.396 320.371 171.112 325.713 168.942C329.217 167.519 332.793 164.475 335.494 161.836C337.771 159.611 329.645 164.369 326.836 165.867C324.704 167.004 319.801 169.417 318.895 171.821C318.348 173.272 323.324 171.091 323.647 170.789C327.729 166.974 319.815 168.995 317.881 169.199" stroke="#B38022" stroke-width="2.8012" stroke-linecap="round"/>
<path d="M121.166 120.73C125.456 131.827 133.068 144.723 142.943 151.731C145.77 153.737 138.443 146.43 135.855 144.125C134.311 142.749 127.312 134.669 125.265 134.782C125.25 134.783 133.912 144.08 134.804 144.808C135.475 145.358 146.157 153.301 142.85 148.555C140.094 144.601 136.046 141.508 132.531 138.258C128.674 134.693 136.485 140.379 137.451 141.534C140.142 144.747 133.098 139.263 132.526 138.693C130.361 136.535 125.776 132.147 131.686 136.118C137.013 139.697 141.946 144.147 147.473 147.391C153.121 150.706 136.773 139.83 131.603 135.812C130.363 134.849 122.261 128.765 127.888 133.594C131.375 136.588 142.641 144.076 138.264 142.674C133.271 141.074 127.712 135.717 124.078 132.072C123.853 131.845 123.587 131.625 123.478 131.325C123.228 130.633 124.764 132.056 125.334 132.521C127.971 134.669 131.362 137.12 133.075 140.135C134.859 143.277 116.898 132.795 126.708 137.843C127.088 138.038 114.422 122.592 121.955 131.438C122.591 132.185 128.344 139.38 125.213 135.477C124.47 134.551 119.124 127.771 123.046 131.103C124.132 132.026 126.355 135.098 123.99 132.157C121.99 129.67 115.369 123.062 118.208 124.523C120.804 125.859 123.661 131.929 125.532 134.263C129.56 139.291 125.171 134.267 123.376 132.672C122.391 131.798 117.978 127.823 119.036 131.839C119.713 134.41 122.141 138.721 118.359 134.006C118.07 133.646 115.585 130.736 116.481 130.896C118.176 131.199 118.892 133.59 117.719 132.868C117.29 132.603 114.674 130.032 115.745 130.583C119.047 132.282 121.961 134.963 124.889 137.213" stroke="#B38022" stroke-width="2.8012" stroke-linecap="round"/>
<path d="M124.607 161.478C129.62 168.134 135.94 172.273 143.493 175.614C147.703 177.477 129.016 164.318 132.234 167.612C135.179 170.625 139.037 173.19 142.404 175.689C143.812 176.733 152.283 182.651 146.424 177.823C143.533 175.44 140.51 173.209 137.986 170.418C136.383 168.646 143.54 172.568 144.307 172.927C153.885 177.416 142.844 170.402 140.804 171.19C140.11 171.459 156.14 177.502 148.963 176.46C147.992 176.32 142.058 174.937 145.485 176.333C147.983 177.351 154.507 181.679 157.31 180.472C159.211 179.653 140.598 170.1 151.84 175.885" stroke="#B38022" stroke-width="2.8012" stroke-linecap="round"/>
<path d="M230.16 172.879C222.72 172.991 220.891 174.97 215.989 179.76" stroke="#B38022" stroke-width="2.8012" stroke-linecap="round"/>
<path d="M226.536 147.786C221.697 152.411 222.904 155.232 227.794 159.369C231.163 162.22 235.674 165.512 240.062 166.557C244.643 167.647 231.947 161.755 227.703 159.716C225.836 158.819 223.568 157.374 221.471 157.034C221.109 156.976 226.593 160.757 227.208 161.102C232.39 164.007 237.626 166.908 243.075 169.288C244.113 169.742 236.678 165.049 235.303 164.371C232.546 163.011 224.845 158.454 221.602 160.776C220.378 161.651 223.625 166.305 223.642 164.801C223.67 162.436 215.377 160.599 216.376 161.324C218.02 162.518 218.96 163.092 217.431 160.38C216.459 158.656 211.741 154.938 213.393 156.027C217.171 158.518 220.546 161.482 224.481 163.767C228.288 165.978 233.016 167.024 236.637 169.388C240.904 172.173 225.267 162.956 221.622 166.517" stroke="#B38022" stroke-width="2.8012" stroke-linecap="round"/>
<path d="M333.927 135.723C329.44 137.354 323.861 138.679 320.326 142.133C318.386 144.028 322.153 142.281 322.722 141.856C325.327 139.904 326.898 139.543 325.007 143.579C322.443 149.049 317.041 151.298 311.801 153.472" stroke="#B38022" stroke-width="2.8012" stroke-linecap="round"/>
<path d="M361.132 152.478C361.12 153.462 361.661 161.244 358.28 158.36C357.2 157.438 357.904 159.411 358.078 160.793C358.808 166.578 358.271 165.128 357.846 165.748" stroke="#B38022" stroke-width="2.8012" stroke-linecap="round"/>
<path d="M388.146 185.671C387.779 183.993 387.708 181.456 385.825 183.296C384.738 184.358 384.059 184.515 384.441 182.671C384.543 182.18 385.428 179.9 385.342 179.985C384.155 181.145 383.057 182.695 382.077 184.035C380.96 185.561 381.946 185.809 383.538 185.487C386.148 184.96 387.742 182.885 389.59 181.165C392.033 178.892 389.607 182.249 388.874 182.94C387.168 184.547 385.335 185.856 383.432 187.182" stroke="#B38022" stroke-width="2.8012" stroke-linecap="round"/>
<path d="M415.205 147.625C414.595 151.726 414.749 155.207 410.022 155.742C404.713 156.343 399.301 156.052 393.971 155.991" stroke="#B38022" stroke-width="2.8012" stroke-linecap="round"/>
<path d="M394.406 118.419C393.205 125.561 389.393 146.946 390.375 139.77C390.701 137.385 391.726 135.114 392.672 132.925C393.088 131.964 395.504 128.731 395.515 127.826C395.52 127.383 387.7 130.924 387.044 130.729C385.035 130.129 389.452 127.282 390.411 125.418" stroke="#B38022" stroke-width="2.8012" stroke-linecap="round"/>
<path d="M359.848 128.195C360.238 134.874 360.742 140.407 356.078 145.722C354.418 147.614 354.7 146.381 355.694 145.109C357.761 142.464 360.27 140.066 362.737 137.797C366.858 134.008 364.721 137.201 362.069 139.181C361.341 139.724 354.997 144.116 356.333 142.463C358.766 139.455 361.986 135.975 356.723 135.161C356.499 135.126 358.331 129.222 359.834 133.11C360.433 134.659 357.253 137.279 361.19 132.473C361.59 131.984 353.9 147.582 356.608 137.552C357.631 133.763 359.008 133.705 357.261 137.516C356.9 138.303 353.419 142.54 353.454 139.516C353.463 138.709 354.99 134.568 354.968 136.445C354.93 139.731 348.925 137.726 347.215 137.443" stroke="#B38022" stroke-width="2.8012" stroke-linecap="round"/>
<path d="M308.006 143.25C314.805 141.901 303.965 143.741 302.292 144.706C291.3 151.049 282.483 159.925 270.954 165.523" stroke="#B38022" stroke-width="2.8012" stroke-linecap="round"/>
<path d="M242.856 158.152C250.045 165.064 256.975 172.814 265.235 178.505C265.462 178.661 271.046 182.546 269.998 180.387" stroke="#B38022" stroke-width="2.8012" stroke-linecap="round"/>
<path d="M87.9724 147.744C89.4995 153.334 91.6865 157.927 95.4575 162.357C100.026 167.724 95.802 161.138 94.2772 159.125C92.2573 156.459 89.696 151.608 86.7306 149.818C85.6421 149.16 88.4336 151.741 89.4835 152.459" stroke="#B38022" stroke-width="2.8012" stroke-linecap="round"/>
<path d="M53.4322 155.955C46.7164 151.039 38.8812 148.078 30.5696 147.253C28.2448 147.022 25.1555 146.538 23.7697 148.565" stroke="#B38022" stroke-width="2.8012" stroke-linecap="round"/>
<path d="M54.9614 159.104C55.7476 165.104 51.6761 165.598 46.6426 163.879C43.4906 162.803 43.0596 162.726 42.3553 166.047C41.9004 168.192 41.6216 172.404 40.2611 174.112C39.483 175.089 35.0058 172.404 33.673 172.166" stroke="#B38022" stroke-width="2.8012" stroke-linecap="round"/>
<path d="M413.508 23.9157C417.461 20.9036 418.256 20.8007 422.476 23.1934C425.636 24.9852 426.741 25.2401 426.847 21.2869C426.947 17.5395 427.039 16.553 431.283 17.5981C435.893 18.7338 438.454 21.2612 440.895 25.0162" stroke="#B38022" stroke-width="2.8012" stroke-linecap="round"/>
<path d="M243.58 28.208C248.657 21.1121 255.073 15.0155 261.889 9.58846C263.807 8.06103 265.839 6.69026 267.768 5.17701C268.508 4.59624 270.145 2.69801 270.134 3.63875C270.101 6.51458 265.361 11.9102 263.792 14.1772C261.812 17.0387 259.919 18.7438 256.978 20.5349" stroke="#B38022" stroke-width="2.8012" stroke-linecap="round"/>
<path d="M259.38 15.8653C261.22 14.3751 265.724 8.90679 264.483 10.923C264.082 11.5729 262.308 13.2658 263.427 11.9545C264.166 11.0881 267.106 9.81791 265.976 9.67901C263.645 9.39265 261.862 10.7528 260.549 12.5735C257.973 16.1453 263.881 9.38873 262.126 11.5915C260.889 13.1447 259.285 14.9779 257.81 16.282C256.682 17.2788 254.994 16.2811 253.883 17.3673" stroke="#B38022" stroke-width="2.8012" stroke-linecap="round"/>
<path d="M132.668 71.839C133.77 70.1548 134.715 69.5207 136.23 68.3586" stroke="#9E6B0B" stroke-width="2.8012" stroke-linecap="round"/>
<path d="M136.612 69.1457C137.196 69.613 138.31 70.3958 138.654 71.1041C138.668 71.1324 136.068 70.7827 137.127 71.5429C137.677 71.9372 141.292 73.6301 140.801 71.5638C140.644 70.9038 138.351 70.191 138.4 70.5577C138.423 70.7364 138.222 71.4101 138.237 71.4254C138.636 71.8329 140.196 70.721 139.935 71.2277C139.594 71.8907 135.892 71.887 135.975 71.573C136.099 71.0992 139.594 71.8346 140.101 71.9252" stroke="#9E6B0B" stroke-width="2.8012" stroke-linecap="round"/>
<path d="M115.166 62.6363C116.535 62.9791 117.263 63.4721 118.365 64.2386C118.646 64.4342 120.087 65.0411 119.791 65.0377C117.553 65.0117 120.583 65.2655 119.373 65.4024C118.413 65.5112 117.781 64.71 117.012 64.7011C116.177 64.6914 119.596 66.818 118.95 66.2888C118.775 66.1454 118.585 66.5889 119.229 66.5963C119.536 66.5999 119.725 65.9381 119.996 66.0835C120.796 66.513 126.555 71.9319 127.237 69.6457C127.372 69.1941 130.921 69.3023 131.063 69.6683C131.531 70.8785 133.473 70.6822 134.541 71.5564C135.334 72.206 136.837 72.2787 135.402 72.262" stroke="#9E6B0B" stroke-width="2.8012" stroke-linecap="round"/>
<path d="M265.376 66.7262C265.277 66.1887 265.363 63.987 264.538 63.9774C262.594 63.9548 262.263 65.1697 262.244 66.842C262.217 69.1342 265.359 65.1903 263.628 65.5538C262.284 65.8361 263.045 65.8902 263.36 66.1593C263.862 66.5869 261.305 66.7049 261.154 67.0685C260.944 67.5765 262.439 67.0071 262.459 66.9967C263.441 66.5004 263.913 65.4372 264.811 64.8284C265.844 64.127 266.653 64.8492 266.977 63.6144" stroke="#9E6B0B" stroke-width="2.8012" stroke-linecap="round"/>
<path d="M277.595 59.0421C273.468 55.4516 278.107 57.5787 276.039 58.2415" stroke="#9E6B0B" stroke-width="2.8012" stroke-linecap="round"/>
<path d="M368.368 59.7035C367.488 59.3268 365.394 57.7327 364.87 59.489C364.438 60.9364 365.453 60.5087 366.789 60.8591" stroke="#9E6B0B" stroke-width="2.8012" stroke-linecap="round"/>
<path d="M387.966 56.8003C389.383 55.0295 390.24 55.2615 392.287 55.2853" stroke="#9E6B0B" stroke-width="2.8012" stroke-linecap="round"/>
<path d="M356.279 56.0417C355.957 57.2697 354.923 58.7651 353.508 58.7487C352.513 58.7371 352.397 59.6247 351.539 59.8997" stroke="#9E6B0B" stroke-width="2.8012" stroke-linecap="round"/>
<path d="M277.195 59.8196C275.606 60.0549 274.095 60.1749 272.495 60.1564" stroke="#9E6B0B" stroke-width="2.8012" stroke-linecap="round"/>
<path d="M269.706 64.4287C271.577 63.6333 273.26 62.5033 274.635 61.1599C275.791 60.0302 277.125 58.6453 278.773 58.6644" stroke="#9E6B0B" stroke-width="2.8012" stroke-linecap="round"/>
<path d="M138.954 69.5644C138.852 69.0828 138.8 67.8208 138.195 67.5991C138.102 67.5651 137.622 67.4667 137.981 67.2923C138.235 67.1689 138.692 67.3285 138.896 67.129C139.05 66.9778 138.805 66.4948 138.597 66.6473C138.339 66.8362 137.241 66.8379 137.268 66.871C137.625 67.309 138.449 68.5115 138.181 68.7729" stroke="#9E6B0B" stroke-width="2.8012" stroke-linecap="round"/>
<path d="M150.715 67.7441C152.995 67.3265 154.851 67.1372 156.971 68.121C157.74 68.4778 159.401 68.6194 160.003 69.1127C161.322 70.1936 164.257 70.6402 165.941 70.6598" stroke="#9E6B0B" stroke-width="2.8012" stroke-linecap="round"/>
<path d="M243.568 168.826C246.983 167.505 249.527 166.75 252.882 168.623C253.873 169.177 256.71 171.056 255.81 170.364C254.312 169.213 244.625 164.687 244.644 163.019C244.65 162.477 254.2 167.894 255.173 168.456C255.295 168.527 248.282 162.123 248.472 160.813C248.491 160.682 257.663 167.876 258.778 168.692C258.996 168.851 253.713 163.836 253.729 162.503C253.737 161.799 256.143 162.859 256.4 162.961C256.689 163.076 256.082 161.76 256.139 162.066C256.238 162.595 257.36 164.563 257.972 164.57C258.604 164.577 258.151 161.584 258.4 161.161C258.668 160.703 261.819 165.488 262.815 165.169C264.226 164.717 265.894 164.763 267.355 165.067C269.753 165.566 271.272 167.388 267.887 166.004C266.221 165.323 264.574 164.609 262.826 164.2C260.259 163.598 258.324 163.545 255.787 162.333C254.199 161.575 251.953 160.362 250.103 160.677C248.647 160.924 248.706 162.808 247.818 163.676C247.514 163.973 245.111 163.326 244.565 163.173C240.242 161.966 237.174 159.399 232.51 158.921" stroke="#B38022" stroke-width="2.8012" stroke-linecap="round"/>
<path d="M317.248 138.255C323.017 140.104 317.797 146.54 315.293 149.561C313.344 151.912 304.278 156.356 311.101 153.043C312.923 152.158 322.46 146.308 322.043 146.303C314.322 146.213 308.386 151.381 303.072 156.248" stroke="#B38022" stroke-width="2.8012" stroke-linecap="round"/>
<path d="M103.739 122.511C110.224 126.182 114.202 133.021 118.603 138.822C119.97 140.624 121.989 142.617 122.997 144.693C123.147 145.002 118.667 141.331 118.383 141.07C114.652 137.64 110.768 134.067 106.39 131.465C103.791 129.919 111.14 135.218 113.345 137.287" stroke="#B38022" stroke-width="2.8012" stroke-linecap="round"/>
<path d="M88.7932 146.779C93.1604 149.288 97.2104 152.203 101.503 154.802C104.335 156.517 104.474 155.882 101.859 154.224C99.8615 152.958 97.5265 151.547 95.2642 150.811C92.9159 150.048 98.8322 154.228 100.558 155.994" stroke="#B38022" stroke-width="2.8012" stroke-linecap="round"/>
<path d="M429.932 160.322C429.3 156.873 427.878 153.301 432.626 153.046C441.186 152.588 449.359 159.612 454.925 165.309" stroke="#B38022" stroke-width="2.8012" stroke-linecap="round"/>
<path d="M430.013 153.277C435.481 162.124 445.406 158.19 454.242 156.689" stroke="#B38022" stroke-width="2.8012" stroke-linecap="round"/>
<path d="M25.7616 111.795C21.7634 105.782 15.537 101.854 9.48036 98.1237C8.59749 97.5799 -0.537333 92.6304 3.80177 92.7519C7.6061 92.8584 31.8012 101.251 27.3997 105.551" stroke="#B38022" stroke-width="2.8012" stroke-linecap="round"/>
<path d="M8.71391 96.723C10.6573 97.4225 12.3628 98.2069 14.1659 99.1347" stroke="#B38022" stroke-width="2.8012" stroke-linecap="round"/>
</svg>
