<svg width="429" height="106" viewBox="0 0 429 106" fill="none" xmlns="http://www.w3.org/2000/svg">
<path d="M428.003 90.3078L414.747 96.6677V92.7873L423.549 88.6905L414.747 84.559V80.6785L428.003 87.0385V90.3078ZM394.681 102.822L406.79 70.5586H410.273L398.166 102.822H394.681ZM387.815 79.3255H391.768L382.786 101.457C382.307 102.655 381.678 103.553 380.902 104.151C380.122 104.749 379.001 105.05 377.541 105.05H374.414V101.852H378.798L380.487 97.6128L373.013 79.3255H377.11L380.057 87.085L382.356 93.4449H382.571L384.871 87.085L387.815 79.3255ZM349.09 97.8639V79.3255H352.431V81.7325H352.611C352.898 80.9413 353.31 80.2706 353.851 79.7219C354.389 79.1702 355.161 78.8944 356.169 78.8944C357.147 78.8944 357.91 79.1629 358.45 79.703C358.988 80.2416 359.328 80.979 359.472 81.9125H359.617C359.952 81.0734 360.418 80.3606 361.018 79.7756C361.616 79.1876 362.478 78.8944 363.605 78.8944C365.042 78.8944 366.041 79.3967 366.604 80.4042C367.167 81.4087 367.449 82.8822 367.449 84.8217V97.8639H364.107V85.3255C364.107 84.032 363.952 83.1406 363.641 82.6485C363.327 82.1578 362.826 81.9125 362.133 81.9125C361.508 81.9125 360.987 82.1215 360.568 82.5411C360.15 82.9592 359.939 83.5892 359.939 84.4269V97.8639H356.597V85.3255C356.597 84.032 356.449 83.1406 356.15 82.6485C355.85 82.1578 355.353 81.9125 354.658 81.9125C354.012 81.9125 353.479 82.1215 353.059 82.5411C352.64 82.9592 352.431 83.5892 352.431 84.4269V97.8639H349.09ZM333.86 81.8762C333.165 81.8762 332.525 81.9952 331.938 82.2362C331.352 82.4758 330.848 82.8169 330.43 83.2597C330.01 83.7039 329.679 84.2251 329.44 84.8217C329.202 85.4213 329.081 86.0789 329.081 86.7975V87.0501H338.387V86.6915C338.387 85.2282 337.973 84.0625 337.147 83.1871C336.323 82.3146 335.226 81.8762 333.86 81.8762ZM334.148 98.2951C332.735 98.2951 331.465 98.0672 330.34 97.6128C329.213 97.157 328.267 96.5109 327.5 95.6718C326.734 94.8342 326.147 93.8209 325.741 92.6363C325.333 91.4517 325.131 90.1161 325.131 88.6296C325.131 87.1459 325.339 85.8031 325.758 84.6054C326.176 83.4107 326.766 82.3843 327.518 81.535C328.274 80.6843 329.19 80.0311 330.269 79.5752C331.346 79.1223 332.544 78.8944 333.86 78.8944C335.154 78.8944 336.328 79.1165 337.381 79.5593C338.435 80.002 339.333 80.6306 340.077 81.445C340.817 82.2609 341.388 83.2292 341.782 84.3543C342.177 85.4823 342.376 86.7264 342.376 88.0924V89.5645H329.081V90.1713C329.081 91.623 329.537 92.8076 330.447 93.7236C331.358 94.6397 332.615 95.097 334.219 95.097C335.418 95.097 336.442 94.8429 337.291 94.3305C338.142 93.818 338.831 93.1342 339.357 92.2777L341.8 94.4393C341.177 95.5209 340.225 96.434 338.944 97.1787C337.664 97.922 336.063 98.2951 334.148 98.2951ZM309.623 95.097C310.197 95.097 310.737 95.0258 311.24 94.8821C311.744 94.7384 312.186 94.5235 312.568 94.2346C312.953 93.9487 313.258 93.5944 313.486 93.1763C313.712 92.7568 313.827 92.2589 313.827 91.684V85.504C313.827 84.9292 313.712 84.4327 313.486 84.0146C313.258 83.595 312.953 83.2408 312.568 82.9548C312.186 82.6659 311.744 82.4511 311.24 82.3074C310.737 82.1636 310.197 82.0911 309.623 82.0911C308.139 82.0911 306.995 82.5469 306.192 83.4571C305.389 84.3673 304.989 85.5766 304.989 87.085V90.1031C304.989 91.6114 305.389 92.8221 306.192 93.7324C306.995 94.6426 308.139 95.097 309.623 95.097ZM313.827 94.7021H313.61C313.06 95.8286 312.329 96.7084 311.418 97.3428C310.51 97.9772 309.371 98.2951 308.007 98.2951C305.828 98.2951 304.092 97.4807 302.797 95.8519C301.503 94.223 300.857 91.8045 300.857 88.5947C300.857 85.385 301.503 82.9664 302.797 81.3376C304.092 79.7088 305.828 78.8944 308.007 78.8944C309.371 78.8944 310.51 79.2108 311.418 79.8452C312.329 80.4811 313.06 81.3608 313.61 82.4874H313.827V71.2772H317.743V97.8639H313.827V94.7021ZM284.591 95.4207C285.859 95.4207 286.902 95.1362 287.715 94.5642C288.531 93.9922 288.937 93.2547 288.937 92.3503V89.6734H285.451C282.625 89.6734 281.212 90.5183 281.212 92.2081V92.9223C281.212 93.7556 281.512 94.3798 282.111 94.795C282.709 95.2131 283.535 95.4207 284.591 95.4207ZM292.781 97.8639C291.655 97.8639 290.811 97.575 290.248 97.0016C289.686 96.4267 289.344 95.6718 289.225 94.7384H289.044C288.684 95.8649 288.033 96.7389 287.088 97.3616C286.14 97.983 284.936 98.2951 283.476 98.2951C281.584 98.2951 280.076 97.7986 278.949 96.8042C277.823 95.8112 277.261 94.4393 277.261 92.6915C277.261 90.8943 277.924 89.5224 279.254 88.5759C280.584 87.6308 282.625 87.159 285.38 87.159H288.937V85.7203C288.937 83.2045 287.607 81.9473 284.949 81.9473C283.752 81.9473 282.78 82.1825 282.039 82.6485C281.295 83.116 280.675 83.7329 280.17 84.498L277.836 82.5948C278.363 81.5888 279.247 80.7206 280.494 79.9904C281.738 79.2602 283.345 78.8944 285.308 78.8944C287.655 78.8944 289.5 79.4562 290.842 80.5827C292.182 81.7093 292.852 83.3366 292.852 85.4692V94.7747H295.188V97.8639H292.781ZM262.901 98.2951C261.51 98.2951 260.271 98.0672 259.181 97.6128C258.091 97.157 257.169 96.5109 256.416 95.6718C255.659 94.8342 255.086 93.8166 254.691 92.6174C254.295 91.4212 254.097 90.0798 254.097 88.5947C254.097 87.1096 254.295 85.7682 254.691 84.5706C255.086 83.3729 255.659 82.3553 256.416 81.5162C257.169 80.6785 258.091 80.0311 259.181 79.5752C260.271 79.1223 261.5 78.8944 262.864 78.8944C264.781 78.8944 266.319 79.2965 267.481 80.1022C268.644 80.9065 269.512 81.9546 270.087 83.2408L267.032 84.8943C266.697 84.032 266.187 83.3482 265.503 82.8459C264.823 82.3437 263.941 82.0911 262.864 82.0911C261.379 82.0911 260.229 82.544 259.415 83.447C258.602 84.3499 258.193 85.549 258.193 87.0414V90.1481C258.193 91.6172 258.602 92.8105 259.415 93.7251C260.229 94.6411 261.402 95.097 262.935 95.097C264.085 95.097 265.024 94.8342 265.756 94.3072C266.486 93.7803 267.068 93.0617 267.498 92.1514L270.373 93.9124C269.774 95.2 268.864 96.2511 267.642 97.0698C266.421 97.8872 264.84 98.2951 262.901 98.2951ZM208.926 87.0385L222.181 80.6785V84.559L213.38 88.6557L222.181 92.7873V96.6677L208.926 90.3078V87.0385ZM237.594 95.4207C238.863 95.4207 239.905 95.1362 240.718 94.5642C241.534 93.9922 241.941 93.2547 241.941 92.3503V89.6734H238.455C235.629 89.6734 234.216 90.5183 234.216 92.2081V92.9223C234.216 93.7556 234.515 94.3798 235.115 94.795C235.713 95.2131 236.539 95.4207 237.594 95.4207ZM245.783 97.8639C244.658 97.8639 243.815 97.575 243.252 97.0016C242.69 96.4267 242.347 95.6718 242.227 94.7384H242.048C241.688 95.8649 241.036 96.7389 240.091 97.3616C239.143 97.983 237.94 98.2951 236.479 98.2951C234.588 98.2951 233.079 97.7986 231.953 96.8042C230.826 95.8112 230.265 94.4393 230.265 92.6915C230.265 90.8943 230.928 89.5224 232.258 88.5759C233.586 87.6308 235.629 87.159 238.384 87.159H241.941V85.7203C241.941 83.2045 240.611 81.9473 237.953 81.9473C236.755 81.9473 235.784 82.1825 235.042 82.6485C234.299 83.116 233.679 83.7329 233.174 84.498L230.839 82.5948C231.366 81.5888 232.25 80.7206 233.498 79.9904C234.742 79.2602 236.347 78.8944 238.311 78.8944C240.659 78.8944 242.504 79.4562 243.845 80.5827C245.185 81.7093 245.856 83.3366 245.856 85.4692V94.7747H248.192V97.8639H245.783Z" fill="#1AC74A"/>
<path d="M398.351 33.462C398.958 27.9426 402.581 25.0101 408.24 24.8635C413.911 25.0101 417.369 27.764 417.759 33.462H398.351ZM428.291 37.55C428.291 36.1332 428.197 34.7671 427.997 33.462C426.467 22.8413 418.836 16.1779 408.025 16.1779C395.893 16.1779 387.77 24.5775 387.77 37.55C387.77 50.5211 395.893 58.9222 408.025 58.9222C416.643 58.9222 423.692 54.9097 426.786 47.8151L417.601 44.4791C416.139 48.0924 413.027 49.7778 408.24 49.7778C402.417 49.6312 399.007 46.3692 398.441 40.6524H428.127C428.239 39.6507 428.291 38.6127 428.291 37.55ZM381.51 33.0701V57.6752H371.079V26.607H354.032V57.6708H343.6V17.4191H365.859C374.502 17.4191 381.51 24.4265 381.51 33.0701ZM315.982 48.9155C308.65 48.7486 305.215 45.0351 305.215 37.3425C305.215 29.6992 308.611 25.8971 315.982 25.7273C323.354 25.8971 326.75 29.6992 326.75 37.3425C326.75 45.0351 323.315 48.7486 315.982 48.9155ZM315.978 16.1779C303.178 16.1779 294.615 24.5775 294.615 37.55C294.615 50.5211 303.178 58.9222 315.978 58.9222C328.776 58.9222 337.341 50.5211 337.341 37.55C337.341 24.5775 328.776 16.1779 315.978 16.1779ZM281.304 44.3775L291.138 47.9545C287.81 54.8342 280.941 58.9222 272.014 58.9222C259.214 58.9222 250.651 50.5211 250.651 37.55C250.651 24.5775 259.214 16.1779 272.014 16.1779C280.941 16.1779 287.81 20.2659 291.138 27.1442L281.485 30.653C279.878 27.465 276.785 25.8405 272.021 25.7273C264.651 25.9015 261.254 29.7035 261.254 37.3425C261.254 45.0336 264.686 48.75 272.021 48.9141C276.586 48.811 279.637 47.3332 281.304 44.3775ZM215.496 33.462C216.103 27.9426 219.726 25.0101 225.385 24.8635C231.056 25.0101 234.512 27.764 234.904 33.462H215.496ZM245.435 37.55C245.435 36.1332 245.34 34.7671 245.142 33.462C243.611 22.8413 235.981 16.1779 225.17 16.1779C213.037 16.1779 204.913 24.5775 204.913 37.55C204.913 50.5211 213.037 58.9222 225.17 58.9222C233.786 58.9222 240.837 54.9097 243.931 47.8151L234.744 44.4791C233.284 48.0924 230.171 49.7778 225.385 49.7778C219.562 49.6312 216.152 46.3692 215.586 40.6524H245.272C245.384 39.6507 245.435 38.6127 245.435 37.55ZM198.655 33.0817V57.6868H188.224V26.6186H171.177V57.681H160.745V17.4307H183.004C191.647 17.4307 198.655 24.4367 198.655 33.0817ZM140.924 6.25833C140.924 2.8018 143.726 -1.52588e-05 147.183 -1.52588e-05C150.639 -1.52588e-05 153.441 2.8018 153.441 6.25833C153.441 9.71486 150.639 12.5167 147.183 12.5167C143.726 12.5167 140.924 9.71486 140.924 6.25833ZM141.968 17.4307H152.4V57.6868H141.968V17.4307ZM125.278 40.1573C125.278 44.7622 121.545 48.4945 116.941 48.4945H104.44V26.6186H116.941C121.545 26.6186 125.278 30.351 125.278 34.9544V40.1573ZM135.644 35.4654C135.184 25.5342 127.071 17.5991 117.06 17.4322L94.0078 17.4249V70.9308H104.44V57.681H117.06C127.078 57.5126 135.196 49.5673 135.646 39.6275C135.659 39.3371 135.708 38.5038 135.708 37.553C135.708 36.6732 135.659 35.7601 135.644 35.4654Z" fill="#111111"/>
<path d="M71.2749 30.1819L61.4409 11.7509C59.6278 8.34661 56.0827 6.21985 52.2255 6.21985H41.7789V11.4417H41.7833C43.7097 11.4417 45.4808 12.5029 46.3881 14.2057L56.2191 32.6396C57.0408 34.1755 57.4502 35.8639 57.4502 37.5551C57.4502 39.2464 57.0408 40.9333 56.2191 42.4706L46.3881 60.9045C45.4808 62.6074 43.7097 63.6686 41.7833 63.6686H41.7789V68.8904H52.2255C56.0827 68.8904 59.6278 66.7636 61.4409 63.3593L71.2749 44.9284C72.5016 42.6216 73.1171 40.0898 73.1171 37.5551C73.1171 35.0204 72.5016 32.4886 71.2749 30.1819ZM20.8916 6.21985H31.3382V11.4417H31.3338C29.4074 11.4417 27.6348 12.5029 26.7275 14.2057L16.898 32.6396C16.0763 34.1755 15.6669 35.8639 15.6669 37.5551C15.6669 39.2464 16.0763 40.9333 16.898 42.4706L26.7275 60.9045C27.6348 62.6074 29.4074 63.6686 31.3338 63.6686H31.3382V68.8904H20.8916C17.0344 68.8904 13.4893 66.7636 11.6761 63.3593L1.84223 44.9284C0.615529 42.6216 0 40.0898 0 37.5551C0 35.0204 0.615529 32.4886 1.84223 30.1819L11.6761 11.7509C13.4893 8.34661 17.0344 6.21985 20.8916 6.21985Z" fill="#111111"/>
</svg>
