<svg width="233" height="234" viewBox="0 0 233 234" fill="none" xmlns="http://www.w3.org/2000/svg">
<path fill-rule="evenodd" clip-rule="evenodd" d="M122.554 97.7936V110.17L110.11 97.7936H99.3252V91.4212L93.5251 85.4805C93.5204 85.3491 93.5181 85.217 93.5181 85.0843C93.5181 79.2137 98.1608 74.4546 103.888 74.4546C109.615 74.4546 114.258 79.2137 114.258 85.0843V95.299L118.406 99.5458V85.0843C118.406 79.2137 123.049 74.4546 128.776 74.4546C134.503 74.4546 139.146 79.2137 139.146 85.0843C139.146 85.217 139.143 85.3491 139.138 85.4805L133.338 91.4212V97.7936H122.554ZM150.8 110.17L153.951 106.937C157.459 108.642 159.885 112.304 159.885 116.548C159.885 120.792 157.459 124.455 153.951 126.159L150.8 122.926H137.486V110.17H150.8ZM137.486 127.178H148.223C151.463 128.976 153.663 132.49 153.663 136.532C153.663 141.986 149.656 146.481 144.495 147.091L137.486 139.913V127.178ZM133.338 141.675L139.138 147.616C139.143 147.747 139.146 147.879 139.146 148.012C139.146 153.883 134.503 158.642 128.776 158.642C123.049 158.642 118.406 153.883 118.406 148.012V137.823L114.258 133.571V148.012C114.258 153.883 109.615 158.642 103.888 158.642C98.1608 158.642 93.5181 153.883 93.5181 148.012C93.5181 147.879 93.5204 147.747 93.5251 147.616L99.3252 141.675V135.303H110.11V122.926L122.554 135.303H133.338V141.675ZM137.486 105.918V93.1833L144.495 86.0052C149.656 86.6155 153.663 91.1102 153.663 96.5644C153.663 100.606 151.463 104.121 148.223 105.918H137.486ZM81.8639 122.926L78.7124 126.159C75.2044 124.455 72.7783 120.792 72.7783 116.548C72.7783 112.304 75.2044 108.642 78.7124 106.937L81.8639 110.17H95.1773V122.926H81.8639ZM84.4405 105.918C81.2007 104.121 79.0002 100.606 79.0002 96.5644C79.0002 91.1102 83.0077 86.6155 88.1689 86.0052L95.1773 93.1833V105.918H84.4405ZM95.1773 127.178V139.913L88.1689 147.091C83.0077 146.481 79.0002 141.986 79.0002 136.532C79.0002 132.49 81.2007 128.976 84.4405 127.178H95.1773Z" fill="#1AC74A"/>
<path fill-rule="evenodd" clip-rule="evenodd" d="M224.568 73.565L213.7 65.903L213.549 52.6072C213.541 51.8313 213.3 51.0756 212.859 50.4373C212.418 49.7989 211.796 49.307 211.073 49.0247L198.688 44.189L195.372 31.3142C195.178 30.5626 194.765 29.8861 194.184 29.3715C193.603 28.8569 192.881 28.5276 192.112 28.4261L178.934 26.6776L172.644 14.9644C172.275 14.281 171.712 13.7231 171.025 13.3618C170.338 13.0006 169.559 12.8525 168.787 12.9366L155.569 14.3965L146.644 4.53588C146.123 3.95963 145.441 3.55266 144.687 3.3674C143.932 3.18214 143.139 3.22708 142.411 3.49644L129.935 8.09461L118.912 0.664731C118.269 0.231462 117.511 0 116.736 0C115.961 0 115.203 0.231462 114.56 0.664731L103.535 8.09461L91.0589 3.49595C90.33 3.22706 89.5373 3.1824 88.7828 3.36772C88.0283 3.55305 87.3465 3.95988 86.8252 4.53588L77.9028 14.3945L64.6854 12.9371C63.9136 12.8514 63.1338 12.9988 62.4465 13.3602C61.7592 13.7216 61.1958 14.2805 60.8288 14.9649L54.5382 26.6781L41.3568 28.4265C40.5873 28.5281 39.8657 28.8575 39.2847 29.3722C38.7038 29.8869 38.2899 30.5635 38.0964 31.3152L34.7805 44.19L22.3962 49.0256C21.6734 49.3079 21.0515 49.7998 20.6102 50.438C20.169 51.0763 19.9285 51.8318 19.9197 52.6077L19.7689 65.9035L8.90336 73.5655C8.26857 74.013 7.78214 74.6402 7.50663 75.3664C7.23113 76.0925 7.17913 76.8845 7.35734 77.6405L10.4085 90.5849L1.70609 100.636C1.19838 101.222 0.877548 101.947 0.784772 102.718C0.691996 103.488 0.831504 104.269 1.1854 104.959L7.24931 116.792L1.1854 128.623C0.831504 129.313 0.691996 130.094 0.784772 130.864C0.877548 131.634 1.19838 132.359 1.70609 132.946L10.4071 143.001L7.35588 155.945C7.17783 156.701 7.22995 157.493 7.50554 158.219C7.78113 158.945 8.2676 159.572 8.90239 160.02L19.7703 167.682L19.9212 180.978C19.9299 181.754 20.1703 182.509 20.6116 183.148C21.0528 183.786 21.6748 184.278 22.3976 184.56L34.7834 189.397L38.0998 202.272C38.2934 203.024 38.7073 203.7 39.2883 204.215C39.8692 204.729 40.5908 205.059 41.3602 205.16L54.5396 206.909L60.8303 218.622C61.1984 219.305 61.7621 219.863 62.4491 220.224C63.1361 220.586 63.9152 220.734 64.6869 220.65L77.9047 219.192L86.8295 229.05C87.351 229.626 88.0328 230.033 88.7873 230.218C89.5417 230.404 90.3344 230.359 91.0632 230.09L103.539 225.492L114.564 232.922C115.206 233.355 115.964 233.586 116.739 233.586C117.515 233.586 118.272 233.355 118.915 232.922L129.94 225.492L142.416 230.09C143.145 230.359 143.938 230.403 144.692 230.218C145.447 230.032 146.128 229.626 146.65 229.05L155.575 219.192L168.792 220.652C169.564 220.737 170.344 220.589 171.031 220.228C171.718 219.866 172.282 219.308 172.649 218.624L178.94 206.911L192.119 205.162C192.889 205.061 193.611 204.731 194.191 204.217C194.772 203.702 195.186 203.025 195.38 202.274L198.696 189.399L211.08 184.563C211.803 184.281 212.425 183.789 212.866 183.151C213.307 182.512 213.548 181.757 213.557 180.981L213.707 167.685L224.575 160.023C225.21 159.576 225.697 158.949 225.972 158.222C226.248 157.496 226.3 156.704 226.121 155.948L223.07 143.004L231.766 132.948C232.273 132.361 232.594 131.636 232.687 130.866C232.78 130.096 232.64 129.315 232.286 128.625L226.223 116.792L232.286 104.961C232.64 104.27 232.78 103.49 232.687 102.72C232.594 101.949 232.273 101.224 231.766 100.638L223.065 90.5829L226.116 77.6386C226.294 76.8826 226.241 76.0908 225.965 75.3649C225.69 74.639 225.203 74.0122 224.568 73.565ZM224.16 103.747L218.384 115.017C218.102 115.566 217.955 116.175 217.955 116.793C217.955 117.411 218.102 118.02 218.384 118.569L224.16 129.839L215.874 139.411C215.471 139.877 215.184 140.432 215.037 141.03C214.89 141.628 214.887 142.253 215.029 142.852L217.933 155.172L207.587 162.466C207.083 162.821 206.671 163.291 206.385 163.836C206.098 164.382 205.945 164.987 205.938 165.603L205.792 178.263L193.997 182.868C193.423 183.093 192.91 183.451 192.501 183.912C192.091 184.374 191.798 184.926 191.644 185.524L188.485 197.787L175.934 199.452C175.322 199.532 174.738 199.757 174.23 200.108C173.723 200.459 173.306 200.925 173.014 201.469L167.028 212.619L154.446 211.231C153.834 211.164 153.214 211.243 152.639 211.462C152.063 211.68 151.547 212.032 151.133 212.488L142.638 221.873L130.76 217.493C130.181 217.281 129.56 217.208 128.948 217.282C128.335 217.356 127.749 217.574 127.238 217.918L116.736 224.996L106.234 217.919C105.723 217.575 105.137 217.356 104.524 217.283C103.912 217.209 103.291 217.282 102.712 217.495L90.8345 221.875L82.3394 212.49C81.9258 212.034 81.4099 211.682 80.8342 211.464C80.2584 211.245 79.6391 211.166 79.0269 211.233L66.4441 212.621L60.4541 201.466C60.1622 200.922 59.7452 200.456 59.2375 200.105C58.7299 199.754 58.1461 199.529 57.5343 199.448L44.9832 197.783L41.824 185.52C41.6701 184.923 41.3765 184.371 40.9673 183.909C40.5582 183.447 40.0452 183.09 39.4706 182.865L27.6761 178.26L27.5365 165.601C27.5295 164.985 27.3764 164.379 27.0897 163.834C26.803 163.288 26.3909 162.818 25.8873 162.463L15.5415 155.17L18.4452 142.85C18.5867 142.25 18.5838 141.626 18.4367 141.027C18.2897 140.429 18.0027 139.875 17.5995 139.409L9.31213 129.837L15.088 118.567C15.3701 118.018 15.5173 117.409 15.5173 116.791C15.5173 116.173 15.3701 115.564 15.088 115.015L9.31213 103.747L17.5975 94.1743C18.0007 93.7085 18.2875 93.1538 18.4346 92.5556C18.5816 91.9574 18.5846 91.3329 18.4433 90.7333L15.5391 78.4138L25.8848 71.1197C26.3884 70.7645 26.8005 70.295 27.0872 69.7496C27.3739 69.2042 27.527 68.5985 27.534 67.9824L27.68 55.3231L39.4745 50.7176C40.0491 50.4931 40.5621 50.1353 40.9713 49.6736C41.3805 49.2119 41.674 48.6595 41.8278 48.0621L44.9866 35.799L57.5382 34.1342C58.15 34.0534 58.7338 33.8283 59.2414 33.4775C59.7491 33.1267 60.1661 32.6603 60.458 32.1167L66.4436 20.9645L79.0259 22.3524C79.6381 22.4191 80.2573 22.3399 80.833 22.1215C81.4087 21.903 81.9246 21.5514 82.3384 21.0954L90.8335 11.7108L102.712 16.0904C103.291 16.3032 103.912 16.3757 104.524 16.3018C105.136 16.2279 105.722 16.0099 106.234 15.6656L116.736 8.58757L127.238 15.6646C127.749 16.0093 128.335 16.2275 128.948 16.3012C129.56 16.375 130.181 16.3023 130.76 16.089L142.637 11.7093L151.132 21.0935C151.546 21.5496 152.062 21.9013 152.638 22.1198C153.214 22.3382 153.833 22.4173 154.445 22.3505L167.028 20.9626L173.018 32.1181C173.31 32.6618 173.727 33.1282 174.234 33.479C174.742 33.8298 175.326 34.0549 175.938 34.1357L188.489 35.8005L191.648 48.0636C191.802 48.6609 192.095 49.2131 192.505 49.6748C192.914 50.1364 193.427 50.4942 194.001 50.7186L205.796 55.3241L205.935 67.9828C205.942 68.5991 206.095 69.2048 206.382 69.7503C206.669 70.2958 207.081 70.7655 207.585 71.1206L217.93 78.4143L215.027 90.7343C214.885 91.3338 214.888 91.9583 215.035 92.5564C215.182 93.1545 215.469 93.7092 215.872 94.1748L224.16 103.747ZM186.811 116.792V116.955H194.597V116.792C194.597 114.076 194.457 111.362 194.177 108.66L186.433 109.464C186.684 111.898 186.81 114.344 186.811 116.792ZM45.5509 148.382L52.6659 145.219C53.6607 147.454 54.7716 149.636 55.994 151.756L49.2493 155.646C47.8909 153.291 46.6564 150.866 45.5509 148.382ZM64.5589 174.585C66.5756 176.406 68.6856 178.121 70.8802 179.723L75.4697 173.436C73.494 171.993 71.5945 170.449 69.779 168.809L64.5589 174.585ZM173.442 75.6132C172.002 73.6345 170.46 71.7318 168.822 69.9128L174.609 64.7058C176.426 66.7247 178.138 68.8363 179.738 71.032L173.442 75.6132ZM92.5572 190.825C95.1423 191.667 97.7698 192.374 100.429 192.942L102.052 185.327C99.6609 184.817 97.298 184.181 94.9733 183.423L92.5572 190.825ZM192.913 100.611L185.295 102.222C184.79 99.8289 184.159 97.4639 183.405 95.1368L190.809 92.7348C191.647 95.3216 192.35 97.9506 192.913 100.611ZM180.776 88.2937L187.887 85.1238C186.78 82.6399 185.544 80.2158 184.183 77.8614L177.443 81.7602C178.667 83.8784 179.78 86.0592 180.776 88.2937ZM116.607 194.652C113.891 194.648 111.177 194.503 108.476 194.219L109.293 186.477C111.727 186.733 114.172 186.863 116.619 186.866L116.607 194.652ZM59.9848 157.908L53.6834 162.483C55.2798 164.682 56.9897 166.796 58.8062 168.817L64.5971 163.613C62.962 161.792 61.4225 159.888 59.9848 157.908ZM162.523 53.809C164.719 55.4091 166.83 57.1223 168.849 58.9415L163.634 64.7242C161.818 63.0865 159.917 61.5443 157.941 60.1041L162.523 53.809ZM155.695 49.3649C153.342 48.0041 150.921 46.767 148.44 45.6587L145.266 52.7684C147.498 53.7659 149.677 54.8792 151.794 56.1038L155.695 49.3649ZM92.7197 42.7068L95.1188 50.1133C92.7925 50.8685 90.5074 51.7451 88.2729 52.7397L85.1069 45.6266C87.5915 44.5205 90.1327 43.5459 92.7197 42.7068ZM109.447 47.0914L108.648 39.3462C105.944 39.6258 103.257 40.0462 100.598 40.6056L102.204 48.2248C104.596 47.7206 107.014 47.3422 109.447 47.0914ZM116.779 38.9309C119.495 38.9324 122.21 39.0739 124.911 39.3547L124.101 47.099C121.668 46.8459 119.222 46.7184 116.775 46.717L116.779 38.9309ZM140.832 42.7325C138.246 41.8929 135.618 41.1891 132.959 40.6239L131.342 48.2402C133.734 48.7488 136.098 49.3823 138.424 50.138L140.832 42.7325ZM179.642 162.683L173.355 158.089C174.798 156.114 176.137 154.065 177.366 151.95L184.098 155.863C182.732 158.212 181.244 160.488 179.642 162.683ZM151.665 177.555L155.553 184.301C157.907 182.944 160.19 181.464 162.39 179.869L157.821 173.566C155.84 175.001 153.785 176.333 151.665 177.555ZM84.9525 187.891C82.4725 186.78 80.0523 185.54 77.7017 184.176L81.6104 177.443C83.7253 178.671 85.903 179.786 88.1346 180.786L84.9525 187.891ZM163.528 168.959L168.729 174.75C170.75 172.934 172.676 171.016 174.499 169.001L168.724 163.778C167.083 165.594 165.348 167.323 163.528 168.959ZM187.817 148.614L180.712 145.429C181.712 143.198 182.595 140.916 183.356 138.593L190.755 141.011C189.91 143.595 188.929 146.133 187.817 148.614ZM138.28 183.494L140.67 190.904C143.258 190.068 145.801 189.097 148.287 187.994L145.129 180.877C142.893 181.869 140.607 182.742 138.28 183.494ZM40.5778 100.527L48.1926 102.144C47.6851 104.537 47.303 106.955 47.0481 109.388L39.3048 108.575C39.5887 105.872 40.0136 103.186 40.5778 100.527ZM46.6604 116.792V116.71H38.8743V116.792C38.8742 119.479 39.0115 122.165 39.2855 124.838L47.0307 124.042C46.7839 121.633 46.6603 119.213 46.6604 116.792ZM124.738 194.246L123.947 186.5C126.38 186.251 128.799 185.876 131.193 185.375L132.788 192.996C130.129 193.552 127.441 193.97 124.738 194.246ZM52.7271 88.2266L45.6184 85.0494C44.5098 87.5318 43.5321 90.0706 42.6894 92.6554L50.0925 95.0667C50.8506 92.7422 51.73 90.459 52.7271 88.2266ZM40.5417 132.888L48.1614 131.286C48.6648 133.679 49.2939 136.045 50.0461 138.372L42.6372 140.767C41.8014 138.179 41.102 135.549 40.5417 132.888ZM185.262 131.513L192.876 133.142C193.443 130.484 193.871 127.798 194.158 125.095L186.415 124.274C186.157 126.705 185.772 129.122 185.262 131.513ZM64.6796 58.8917L69.8866 64.6797C68.0683 66.3169 66.3358 68.0471 64.6962 69.8633L58.9155 64.6476C60.7363 62.6308 62.6602 60.7096 64.6796 58.8917ZM60.0709 75.5575L53.7787 70.9706C52.1786 73.1666 50.6936 75.4444 49.3299 77.7946L56.0659 81.7003C57.2932 79.5845 58.63 77.5341 60.0709 75.5575ZM77.8464 49.3249L81.7394 56.0677C79.6212 57.2918 77.5684 58.6257 75.5894 60.0639L71.0121 53.7649C73.2117 52.1675 75.4929 50.6855 77.8464 49.3249ZM179.024 116.792C179.024 104.472 175.371 92.4293 168.526 82.186C161.682 71.9426 151.954 63.9589 140.572 59.2444C129.19 54.5299 116.666 53.2964 104.583 55.6998C92.5004 58.1033 81.4016 64.0357 72.6903 72.7469C63.9791 81.4582 58.0466 92.557 55.6432 104.64C53.2398 116.723 54.4733 129.247 59.1878 140.629C63.9023 152.01 71.886 161.739 82.1293 168.583C92.3727 175.427 104.416 179.081 116.735 179.081C133.249 179.062 149.082 172.493 160.759 160.816C172.437 149.138 179.005 133.306 179.024 116.792ZM116.735 171.294C105.956 171.294 95.418 168.098 86.4551 162.109C77.4921 156.12 70.5064 147.608 66.3812 137.649C62.256 127.69 61.1767 116.731 63.2797 106.159C65.3827 95.5863 70.5736 85.8749 78.1959 78.2525C85.8183 70.6302 95.5297 65.4393 106.102 63.3363C116.675 61.2333 127.633 62.3127 137.592 66.4379C147.551 70.563 156.064 77.5488 162.052 86.5117C168.041 95.4746 171.238 106.012 171.238 116.792C171.221 131.242 165.474 145.095 155.256 155.313C145.039 165.531 131.185 171.278 116.735 171.294ZM23.3022 116.792C23.3022 65.2727 65.2162 23.3587 116.735 23.3587C168.254 23.3587 210.169 65.2727 210.169 116.792C210.169 168.311 168.254 210.225 116.735 210.225C65.2162 210.225 23.3022 168.311 23.3022 116.792ZM31.0883 116.792C31.0883 164.018 69.5093 202.439 116.735 202.439C163.961 202.439 202.382 164.018 202.382 116.792C202.382 69.5658 163.961 31.1448 116.735 31.1448C69.5093 31.1448 31.0883 69.5658 31.0883 116.792Z" fill="#1AC74A"/>
</svg>
