<svg width="651" height="1257" viewBox="0 0 651 1257" fill="none" xmlns="http://www.w3.org/2000/svg">
<path fill-rule="evenodd" clip-rule="evenodd" d="M641.174 -192.904C641.101 -188.084 641.032 -183.531 641.226 -179.549C643.467 -133.412 642.532 -86.7499 641.605 -40.4631C641.477 -34.0719 641.349 -27.6879 641.23 -21.3134C639.807 54.6806 637.687 130.661 635.566 206.64C631.951 336.164 628.336 465.684 628.179 595.26C617.229 590.72 609.54 588.363 596.632 585.172C584.243 582.109 578.902 580.211 573.783 578.391C568.316 576.449 563.102 574.596 549.83 571.511C516.344 563.727 483.082 562.737 449.69 561.743C433.248 561.253 416.774 560.763 400.226 559.46C375.723 557.531 351.43 556.455 326.93 555.682C311.078 555.182 295.306 552.764 279.529 550.345L279.527 550.345C271.483 549.112 263.438 547.879 255.38 546.899C230.041 543.819 219.169 540.907 204.057 536.859L204.055 536.859C195.323 534.52 185.175 531.802 170.002 528.453C155.645 532.341 127.93 531.023 104.461 529.907C92.1289 529.321 80.9696 528.791 73.5364 529.1C70.3117 529.235 57.8432 528.578 55.4622 523.904C53.0809 519.229 50.1496 519.037 47.2845 518.849C45.7924 518.751 44.3183 518.655 42.9491 517.927C44.6584 519.792 46.7322 522.511 46.8363 524.384C51.3141 530.76 157.013 547.762 174.685 549.068C175.167 549.104 175.64 549.139 176.103 549.173L177.024 549.24C196.681 550.681 199.425 550.882 222.235 561.501C230.486 565.342 249.863 568.993 274.364 573.61C320.196 582.246 383.954 594.259 426.332 617.212C461.219 612.826 486.393 612.437 505.314 614.544L356.617 681.807L189.497 669.507L329.542 696.985L205.828 738.511L209.341 747.125L565.242 640.055L565.904 640.596C569.061 643.176 572.189 645.731 575.532 648.156C593.074 660.883 616.179 716.501 629.261 754.69C630.173 850.34 630.652 946.096 625.806 1041.39C624.936 1058.5 622.505 1076.22 620.07 1093.96C616.487 1120.08 612.896 1146.26 614.252 1170.66L619.807 1270.6L1036.9 1247.41L953.127 -259.81L629.437 -241.819C641.764 -231.835 641.442 -210.568 641.174 -192.904ZM41.0517 516.362C40.0426 515.162 41.3329 516.163 42.9491 517.927C42.289 517.576 41.6533 517.078 41.0517 516.362Z" fill="#7C4D27"/>
<path opacity="0.3" d="M665.703 -67.1609L694.533 -68.7634L646.108 247.641L665.703 -67.1609Z" fill="#8C4B2D"/>
<path opacity="0.3" d="M650.372 246.775L722.165 68.011L682.053 70.2405L650.372 246.775Z" fill="#8C4B2D"/>
<path opacity="0.2" d="M700.395 635.298L694.904 454.119L652.339 450.192L661.856 621.415L687.952 627.407L682.874 463.953L662.137 461.67L673.764 609.303L673.277 486.814" stroke="#8C4B2D" stroke-width="8.20958"/>
</svg>
