<svg width="360" height="146" viewBox="0 0 360 146" fill="none" xmlns="http://www.w3.org/2000/svg">
<path d="M349.895 13.6188C346.682 9.44177 339.122 6.21627 333.867 6.15533C332.671 6.14146 330.531 5.73811 329.475 6.39318C328.703 6.87179 328.807 7.90484 328.065 8.36951C326.911 9.09292 325.134 8.50563 323.845 8.75375C321.825 9.14255 320.483 11.4666 318.699 11.6687C316.519 11.9155 315.471 11.8943 313.517 12.7926C310.902 13.9941 307.791 13.6503 304.959 13.6175C302.391 13.5877 302.972 10.6141 304.458 9.45306C305.966 8.275 303.41 7.8396 302.657 7.87269C299.579 8.00793 296.576 10.0664 293.67 10.8874C290.804 11.6971 287.079 12.8903 284.146 12.8563C281.297 12.8233 278.128 13.0996 275.551 14.3161C274.958 14.5962 271.295 16.1845 272.193 15.0569C273.809 13.0279 275.628 10.38 277.752 8.88341C278.535 8.33132 282 6.01075 281.671 4.62584C281.336 3.21897 273.095 9.10562 272.546 9.54502C271.078 10.7172 266.523 12.9053 264.62 13.1208C263.173 13.2846 261.957 13.6386 260.484 13.6215C259.205 13.6067 258.769 12.2481 257.355 12.0546C254.376 11.6471 251.549 11.0128 248.565 10.4798C246.166 10.0515 243.588 10.1854 241.303 9.12493C240.301 8.66015 238.761 9.05298 237.933 8.39273C236.369 7.14746 233.523 7.10248 231.566 7.0482C226.597 6.9104 220.872 7.01505 216.35 9.21097C212.899 10.8868 210.886 13.8427 207.667 15.8392C205.775 17.0128 203.519 19.4561 201.154 19.6912C197.938 20.0108 195.154 20.6613 191.786 20.6222L188.407 20.5831C186.113 20.5564 184.579 18.9527 182.456 18.3192C178.689 17.1958 175.39 14.3268 171.598 13.226C169.613 12.6496 167.636 11.9207 165.641 11.453C162.488 10.7139 166.378 12.0808 167.733 12.8058C170.201 14.1256 171.635 15.7026 173.51 17.6956C175.204 19.4961 175.379 20.3654 172.535 19.6192C166.406 18.0113 160.469 16.2083 154.309 14.8738C152.369 14.4535 150.651 14.1692 148.779 13.6256C148.564 13.5632 148.415 13.5191 148.321 13.4909C148.165 13.4415 148.136 13.4353 148.321 13.4909C148.769 13.6324 150.263 14.1283 150.79 14.5442C153.401 16.6075 158.397 20.235 151.995 20.1608C140.914 20.0322 129.351 14.937 118.258 18.21C115.424 19.0461 112.305 18.9326 109.547 19.784C107.896 20.2935 106.395 21.0431 104.676 21.4314C99.2095 22.6662 93.2318 20.4064 87.8038 22.0154C85.2936 22.7596 82.0231 23.2549 79.7463 24.5211C78.9476 24.9653 77.8549 25.3803 76.854 24.8919C73.9945 23.4966 70.9873 23.4366 67.9861 22.5654C62.7124 21.0343 58.1386 20.4857 53.8138 16.9428C52.1557 15.5845 46.0867 16.995 45.2558 15.284L42.6578 82.7546L176.19 95.8323L250.035 90.6936L347.477 65.5375L349.895 13.6188Z" fill="#B38022"/>
<path d="M350.398 13.0395C347.191 8.87074 339.646 5.65164 334.402 5.59082C333.208 5.57698 331.072 5.17443 330.018 5.8282C329.248 6.30586 329.352 7.33686 328.612 7.80061C327.459 8.52258 325.686 7.93645 324.399 8.18409C322.383 8.57211 321.045 10.8915 319.264 11.0932C317.088 11.3396 316.043 11.3184 314.092 12.2149C311.482 13.4141 308.377 13.071 305.551 13.0382C302.988 13.0085 303.568 10.0408 305.051 8.88201C306.557 7.70628 304.006 7.27175 303.254 7.30477C300.181 7.43975 297.185 9.49408 294.284 10.3135C291.424 11.1216 287.706 12.3124 284.779 12.2785C281.936 12.2455 278.773 12.5213 276.202 13.7354C275.61 14.0149 271.953 15.6001 272.85 14.4747C274.463 12.4497 276.278 9.80708 278.398 8.31349C279.179 7.76249 282.638 5.44653 282.309 4.06437C281.975 2.66029 273.751 8.53526 273.202 8.97379C271.738 10.1437 267.191 12.3274 265.292 12.5425C263.848 12.706 262.635 13.0593 261.165 13.0422C259.888 13.0274 259.453 11.6715 258.041 11.4784C255.068 11.0717 252.247 10.4386 249.269 9.90675C246.875 9.47923 244.302 9.61285 242.021 8.55453C241.022 8.09067 239.485 8.48272 238.658 7.82378C237.097 6.58098 234.257 6.5361 232.304 6.48192C227.344 6.34439 221.631 6.44884 217.118 8.6404C213.674 10.3129 211.665 13.263 208.452 15.2554C206.564 16.4267 204.312 18.8652 201.952 19.0998C198.742 19.4188 195.964 20.068 192.603 20.029C191.479 20.016 190.355 20.0029 189.231 19.9899C186.941 19.9634 185.41 18.3628 183.291 17.7305C179.532 16.6093 176.239 13.7461 172.455 12.6475C170.473 12.0722 168.5 11.3447 166.509 10.878C163.363 10.1404 167.245 11.5046 168.598 12.2281C171.061 13.5453 172.492 15.1192 174.363 17.1082C176.054 18.9051 176.228 19.7727 173.39 19.028C167.273 17.4232 161.348 15.6238 155.2 14.292C153.264 13.8726 151.55 13.5888 149.681 13.0463C147.833 12.5097 150.886 13.3296 151.688 13.963C154.294 16.0223 159.28 19.6426 152.891 19.5685C141.831 19.4402 130.292 14.3551 119.221 17.6216C116.392 18.456 113.28 18.3427 110.527 19.1924C108.88 19.7009 107.381 20.449 105.666 20.8366C100.21 22.0689 94.2441 19.8136 88.8269 21.4195C86.3217 22.1621 83.0577 22.6564 80.7854 23.9202C79.9883 24.3635 78.8978 24.7776 77.8989 24.2902C75.0451 22.8977 72.0438 22.8378 69.0486 21.9683C63.7853 20.4403 59.2206 19.8927 54.9044 16.3569C53.2496 15.0013 47.1926 16.409 46.3634 14.7014" stroke="#9E6B0B" stroke-width="1.86747" stroke-linecap="round"/>
<g opacity="0.8">
<path d="M342.202 48.122C336.943 46.3338 334.198 47.3768 329.41 50.0926C324.315 52.9825 318.346 56.7236 312.512 57.8949C307.145 58.9726 300.724 57.8892 295.648 60.0485C293.267 61.0613 291.678 63.0714 289.737 64.6774C288.142 65.998 286.884 66.1213 284.976 66.5492" stroke="#9E6B0B" stroke-width="2.45281" stroke-linecap="round"/>
<path d="M301.409 59.7716C305.247 56.641 310.403 60.5103 314.03 62.5451C315.326 63.272 316.605 61.3652 318.191 61.2062C320.391 60.9855 323.197 60.377 324.988 61.9795" stroke="#9E6B0B" stroke-width="2.45281" stroke-linecap="round"/>
<path d="M285.994 56.7193C281.861 56.2322 281.027 58.0083 279.731 61.2808C278.544 64.2814 276.374 64.0797 273.527 64.536C270.514 65.0189 268.302 66.7919 265.696 68.229C263.004 69.7138 260.045 70.0919 257.045 70.4474" stroke="#9E6B0B" stroke-width="2.45281" stroke-linecap="round"/>
<path d="M47.8226 55.1014C51.3409 54.1639 54.6213 53.7711 58.1554 55.0049C61.0568 56.0178 63.4205 58.4168 66.3014 59.3302C72.1222 61.1757 78.8961 60.1579 84.9125 61.2496C90.9199 62.3395 95.9312 65.7336 102.32 65.7334C103.658 65.7334 104.185 65.1596 105.313 64.8938C108.207 64.2117 112.042 66.7572 114.597 67.8093" stroke="#9E6B0B" stroke-width="2.45281" stroke-linecap="round"/>
<path d="M64.7741 59.6327C62.3563 58.004 60.6552 58.078 57.6723 58.4637C56.5571 58.6078 56.1391 59.6525 55.2473 60.1622C54.1677 60.7792 52.7662 60.691 51.5665 60.7577C45.5275 61.0934 40.158 61.839 33.9635 60.9542" stroke="#9E6B0B" stroke-width="2.45281" stroke-linecap="round"/>
<path d="M9.4778 82.6432C14.3492 84.3171 19.0579 86.8512 24.2132 87.5145C25.3196 87.6568 25.7713 87.3 26.7681 86.9816C28.4052 86.4586 30.0908 87.0862 31.6831 87.4902C35.7196 88.5144 40.4111 87.3987 43.5581 90.9133" stroke="#9E6B0B" stroke-width="2.45281" stroke-linecap="round"/>
<path d="M22.8691 87.7633C29.8539 86.4248 35.8246 92.7705 42.0312 95.2989C44.019 96.1087 46.6438 97.304 48.8191 96.6808C52.258 95.6957 56.2151 98.1362 59.4611 99.0214" stroke="#9E6B0B" stroke-width="2.45281" stroke-linecap="round"/>
<path d="M14.0245 80.0451C11.1418 79.69 8.62803 78.883 6.22976 77.3509C4.71235 76.3815 3.33187 74.5704 1.57452 74.0912" stroke="#9E6B0B" stroke-width="2.45281" stroke-linecap="round"/>
<path d="M356.947 81.3135C354.533 80.2874 353.844 79.6933 352.083 82.1051C350.544 84.2117 348.878 88.6335 346.295 89.7243C345.639 90.0013 344.809 89.6258 344.139 90.0179C343.269 90.5272 342.733 91.7089 342.147 92.4742C339.544 95.8762 336.085 95.6957 332.317 96.9299C330.065 97.6678 328.285 98.9518 326.332 100.216" stroke="#9E6B0B" stroke-width="2.45281" stroke-linecap="round"/>
<path d="M144.652 137.289C141.284 137.54 138.262 138.167 134.844 137.834C133.609 137.714 132.229 137.347 130.978 137.441C130.176 137.501 129.569 138.024 128.802 138.148C126.36 138.544 123.993 137.037 121.636 136.614C120.017 136.323 118.474 136.008 116.829 136.099" stroke="#9E6B0B" stroke-width="2.45281" stroke-linecap="round"/>
<path d="M140.991 85.4981C142.669 84.7657 144.702 84.0824 146.549 84.668C148.282 85.2175 147.982 86.8858 148.227 88.2886C148.414 89.3608 149.868 93.5155 151.197 93.6618C151.882 93.7373 152.467 93.3602 153.238 93.6569C153.798 93.8724 155.803 95.183 156.355 94.6348C157.331 93.6652 157.47 93.3291 159.211 93.6508C160.988 93.9792 162.27 94.6776 164.056 94.0765C165.526 93.5815 166.814 95.2687 167.775 96.1285" stroke="#9E6B0B" stroke-width="2.45281" stroke-linecap="round"/>
</g>
</svg>
